G04 #@! TF.FileFunction,Soldermask,Bot*
%FSLAX46Y46*%
G04 Gerber Fmt 4.6, Leading zero omitted, Abs format (unit mm)*
G04 Created by KiCad (PCBNEW 4.0.5+dfsg1-4) date Sun Mar 19 16:59:55 2017*
%MOMM*%
%LPD*%
G01*
G04 APERTURE LIST*
%ADD10C,0.020000*%
%ADD11C,0.150000*%
%ADD12R,2.127200X2.432000*%
%ADD13O,2.127200X2.432000*%
%ADD14R,2.127200X2.127200*%
%ADD15O,2.127200X2.127200*%
%ADD16R,1.700000X1.100000*%
%ADD17R,1.100000X1.700000*%
G04 APERTURE END LIST*
D10*
D11*
X56261000Y-73660000D02*
X56261000Y-20320000D01*
X151130000Y-73660000D02*
X56261000Y-73660000D01*
X151130000Y-20320000D02*
X151130000Y-73660000D01*
X56261000Y-20320000D02*
X151130000Y-20320000D01*
D12*
X70866000Y-22860000D03*
D13*
X73406000Y-22860000D03*
X75946000Y-22860000D03*
X78486000Y-22860000D03*
X81026000Y-22860000D03*
X83566000Y-22860000D03*
X86106000Y-22860000D03*
X88646000Y-22860000D03*
X91186000Y-22860000D03*
X93726000Y-22860000D03*
D12*
X97790000Y-71120000D03*
D13*
X95250000Y-71120000D03*
X92710000Y-71120000D03*
X90170000Y-71120000D03*
X87630000Y-71120000D03*
X85090000Y-71120000D03*
X82550000Y-71120000D03*
X80010000Y-71120000D03*
D12*
X97790000Y-22860000D03*
D13*
X100330000Y-22860000D03*
X102870000Y-22860000D03*
X105410000Y-22860000D03*
X107950000Y-22860000D03*
X110490000Y-22860000D03*
X113030000Y-22860000D03*
X115570000Y-22860000D03*
D12*
X120650000Y-71120000D03*
D13*
X118110000Y-71120000D03*
X115570000Y-71120000D03*
X113030000Y-71120000D03*
X110490000Y-71120000D03*
X107950000Y-71120000D03*
X105410000Y-71120000D03*
X102870000Y-71120000D03*
D12*
X120650000Y-22860000D03*
D13*
X123190000Y-22860000D03*
X125730000Y-22860000D03*
X128270000Y-22860000D03*
X130810000Y-22860000D03*
X133350000Y-22860000D03*
X135890000Y-22860000D03*
X138430000Y-22860000D03*
D12*
X143510000Y-71120000D03*
D13*
X140970000Y-71120000D03*
X138430000Y-71120000D03*
X135890000Y-71120000D03*
X133350000Y-71120000D03*
X130810000Y-71120000D03*
X128270000Y-71120000D03*
X125730000Y-71120000D03*
D14*
X146050000Y-22860000D03*
D15*
X148590000Y-22860000D03*
X146050000Y-25400000D03*
X148590000Y-25400000D03*
X146050000Y-27940000D03*
X148590000Y-27940000D03*
X146050000Y-30480000D03*
X148590000Y-30480000D03*
X146050000Y-33020000D03*
X148590000Y-33020000D03*
X146050000Y-35560000D03*
X148590000Y-35560000D03*
X146050000Y-38100000D03*
X148590000Y-38100000D03*
X146050000Y-40640000D03*
X148590000Y-40640000D03*
X146050000Y-43180000D03*
X148590000Y-43180000D03*
X146050000Y-45720000D03*
X148590000Y-45720000D03*
X146050000Y-48260000D03*
X148590000Y-48260000D03*
X146050000Y-50800000D03*
X148590000Y-50800000D03*
X146050000Y-53340000D03*
X148590000Y-53340000D03*
X146050000Y-55880000D03*
X148590000Y-55880000D03*
X146050000Y-58420000D03*
X148590000Y-58420000D03*
X146050000Y-60960000D03*
X148590000Y-60960000D03*
X146050000Y-63500000D03*
X148590000Y-63500000D03*
X146050000Y-66040000D03*
X148590000Y-66040000D03*
D16*
X78486000Y-27239000D03*
X78486000Y-25339000D03*
D17*
X141671000Y-66167000D03*
X143571000Y-66167000D03*
M02*
