G04 #@! TF.FileFunction,Paste,Top*
%FSLAX46Y46*%
G04 Gerber Fmt 4.6, Leading zero omitted, Abs format (unit mm)*
G04 Created by KiCad (PCBNEW 4.0.5+dfsg1-4) date Sun Mar 19 16:59:55 2017*
%MOMM*%
%LPD*%
G01*
G04 APERTURE LIST*
%ADD10C,0.020000*%
%ADD11C,0.150000*%
%ADD12R,1.600200X3.599180*%
%ADD13R,1.000000X1.250000*%
%ADD14R,1.250000X1.000000*%
%ADD15R,0.700000X1.300000*%
%ADD16R,1.300000X0.700000*%
%ADD17R,1.950000X0.600000*%
%ADD18R,0.508000X1.143000*%
%ADD19R,0.600000X1.550000*%
%ADD20R,1.350000X2.750000*%
G04 APERTURE END LIST*
D10*
D11*
X56261000Y-73660000D02*
X56261000Y-20320000D01*
X151130000Y-73660000D02*
X56261000Y-73660000D01*
X151130000Y-20320000D02*
X151130000Y-73660000D01*
X56261000Y-20320000D02*
X151130000Y-20320000D01*
D12*
X62357000Y-52367180D03*
X62357000Y-57868820D03*
X62357000Y-62654180D03*
X62357000Y-68155820D03*
D13*
X71866000Y-25908000D03*
X69866000Y-25908000D03*
D14*
X76200000Y-59801000D03*
X76200000Y-57801000D03*
D13*
X129429000Y-41656000D03*
X131429000Y-41656000D03*
D14*
X84328000Y-59801000D03*
X84328000Y-57801000D03*
X83947000Y-39386000D03*
X83947000Y-41386000D03*
X92583000Y-59801000D03*
X92583000Y-57801000D03*
X105791000Y-39386000D03*
X105791000Y-41386000D03*
X100711000Y-59801000D03*
X100711000Y-57801000D03*
X108839000Y-59801000D03*
X108839000Y-57801000D03*
X116967000Y-59801000D03*
X116967000Y-57801000D03*
X125095000Y-59801000D03*
X125095000Y-57801000D03*
X133223000Y-59801000D03*
X133223000Y-57801000D03*
D13*
X79645000Y-36322000D03*
X81645000Y-36322000D03*
X85106000Y-36322000D03*
X87106000Y-36322000D03*
X90567000Y-36322000D03*
X92567000Y-36322000D03*
X96028000Y-36322000D03*
X98028000Y-36322000D03*
X101489000Y-36322000D03*
X103489000Y-36322000D03*
X106950000Y-36322000D03*
X108950000Y-36322000D03*
X112411000Y-36322000D03*
X114411000Y-36322000D03*
X117872000Y-36322000D03*
X119872000Y-36322000D03*
X69485000Y-49911000D03*
X71485000Y-49911000D03*
X77613000Y-49911000D03*
X79613000Y-49911000D03*
X85868000Y-49911000D03*
X87868000Y-49911000D03*
X93996000Y-49911000D03*
X95996000Y-49911000D03*
X102124000Y-49911000D03*
X104124000Y-49911000D03*
X110252000Y-49911000D03*
X112252000Y-49911000D03*
X118380000Y-49911000D03*
X120380000Y-49911000D03*
X126508000Y-49911000D03*
X128508000Y-49911000D03*
D14*
X76200000Y-53991000D03*
X76200000Y-55991000D03*
X84328000Y-53991000D03*
X84328000Y-55991000D03*
X92583000Y-53991000D03*
X92583000Y-55991000D03*
X100711000Y-53991000D03*
X100711000Y-55991000D03*
X108839000Y-53991000D03*
X108839000Y-55991000D03*
X116967000Y-53991000D03*
X116967000Y-55991000D03*
X125095000Y-53991000D03*
X125095000Y-55991000D03*
X133223000Y-53991000D03*
X133223000Y-55991000D03*
D13*
X68088000Y-64008000D03*
X70088000Y-64008000D03*
X76216000Y-64008000D03*
X78216000Y-64008000D03*
X84471000Y-64008000D03*
X86471000Y-64008000D03*
X92599000Y-64008000D03*
X94599000Y-64008000D03*
X100727000Y-64008000D03*
X102727000Y-64008000D03*
X108855000Y-64008000D03*
X110855000Y-64008000D03*
X116983000Y-64008000D03*
X118983000Y-64008000D03*
X125111000Y-64008000D03*
X127111000Y-64008000D03*
D15*
X57978000Y-29337000D03*
X59878000Y-29337000D03*
X142809000Y-38227000D03*
X140909000Y-38227000D03*
X57978000Y-31877000D03*
X59878000Y-31877000D03*
X142809000Y-35687000D03*
X140909000Y-35687000D03*
X57978000Y-34417000D03*
X59878000Y-34417000D03*
X142809000Y-33147000D03*
X140909000Y-33147000D03*
X57978000Y-36957000D03*
X59878000Y-36957000D03*
X142809000Y-30607000D03*
X140909000Y-30607000D03*
X73599000Y-37211000D03*
X75499000Y-37211000D03*
X73599000Y-34671000D03*
X75499000Y-34671000D03*
X73599000Y-32131000D03*
X75499000Y-32131000D03*
X73599000Y-29591000D03*
X75499000Y-29591000D03*
X127315000Y-30353000D03*
X125415000Y-30353000D03*
X127315000Y-32893000D03*
X125415000Y-32893000D03*
X127315000Y-35433000D03*
X125415000Y-35433000D03*
X127315000Y-37973000D03*
X125415000Y-37973000D03*
X72964000Y-49911000D03*
X74864000Y-49911000D03*
X71562000Y-51943000D03*
X69662000Y-51943000D03*
X81092000Y-49911000D03*
X82992000Y-49911000D03*
X79690000Y-51943000D03*
X77790000Y-51943000D03*
X89347000Y-49911000D03*
X91247000Y-49911000D03*
X87945000Y-51943000D03*
X86045000Y-51943000D03*
X97475000Y-49911000D03*
X99375000Y-49911000D03*
X96073000Y-51943000D03*
X94173000Y-51943000D03*
X105603000Y-49911000D03*
X107503000Y-49911000D03*
X104201000Y-51943000D03*
X102301000Y-51943000D03*
X113731000Y-49911000D03*
X115631000Y-49911000D03*
X112329000Y-51943000D03*
X110429000Y-51943000D03*
X121859000Y-49911000D03*
X123759000Y-49911000D03*
X120457000Y-51943000D03*
X118557000Y-51943000D03*
X129987000Y-49911000D03*
X131887000Y-49911000D03*
X128585000Y-51943000D03*
X126685000Y-51943000D03*
X74864000Y-51943000D03*
X72964000Y-51943000D03*
X82992000Y-51943000D03*
X81092000Y-51943000D03*
X91247000Y-51943000D03*
X89347000Y-51943000D03*
X99375000Y-51943000D03*
X97475000Y-51943000D03*
X107503000Y-51943000D03*
X105603000Y-51943000D03*
X115631000Y-51943000D03*
X113731000Y-51943000D03*
X123759000Y-51943000D03*
X121859000Y-51943000D03*
X131887000Y-51943000D03*
X129987000Y-51943000D03*
X71694000Y-61849000D03*
X73594000Y-61849000D03*
X70292000Y-61849000D03*
X68392000Y-61849000D03*
X79822000Y-61849000D03*
X81722000Y-61849000D03*
X78420000Y-61849000D03*
X76520000Y-61849000D03*
X88077000Y-61849000D03*
X89977000Y-61849000D03*
X86675000Y-61849000D03*
X84775000Y-61849000D03*
X96205000Y-61849000D03*
X98105000Y-61849000D03*
X94803000Y-61849000D03*
X92903000Y-61849000D03*
X104333000Y-61849000D03*
X106233000Y-61849000D03*
X102931000Y-61849000D03*
X101031000Y-61849000D03*
X112461000Y-61849000D03*
X114361000Y-61849000D03*
X111059000Y-61849000D03*
X109159000Y-61849000D03*
X120589000Y-61849000D03*
X122489000Y-61849000D03*
X119187000Y-61849000D03*
X117287000Y-61849000D03*
X128717000Y-61849000D03*
X130617000Y-61849000D03*
X127315000Y-61849000D03*
X125415000Y-61849000D03*
X73594000Y-64008000D03*
X71694000Y-64008000D03*
X81722000Y-64008000D03*
X79822000Y-64008000D03*
X89977000Y-64008000D03*
X88077000Y-64008000D03*
X98105000Y-64008000D03*
X96205000Y-64008000D03*
X106233000Y-64008000D03*
X104333000Y-64008000D03*
X114361000Y-64008000D03*
X112461000Y-64008000D03*
X122489000Y-64008000D03*
X120589000Y-64008000D03*
X130617000Y-64008000D03*
X128717000Y-64008000D03*
D16*
X59055000Y-45405000D03*
X59055000Y-47305000D03*
X59055000Y-42103000D03*
X59055000Y-44003000D03*
D17*
X62102000Y-28067000D03*
X62102000Y-29337000D03*
X62102000Y-30607000D03*
X62102000Y-31877000D03*
X62102000Y-33147000D03*
X62102000Y-34417000D03*
X62102000Y-35687000D03*
X62102000Y-36957000D03*
X62102000Y-38227000D03*
X62102000Y-39497000D03*
X71502000Y-39497000D03*
X71502000Y-38227000D03*
X71502000Y-36957000D03*
X71502000Y-35687000D03*
X71502000Y-34417000D03*
X71502000Y-33147000D03*
X71502000Y-31877000D03*
X71502000Y-30607000D03*
X71502000Y-29337000D03*
X71502000Y-28067000D03*
X138812000Y-39497000D03*
X138812000Y-38227000D03*
X138812000Y-36957000D03*
X138812000Y-35687000D03*
X138812000Y-34417000D03*
X138812000Y-33147000D03*
X138812000Y-31877000D03*
X138812000Y-30607000D03*
X138812000Y-29337000D03*
X138812000Y-28067000D03*
X129412000Y-28067000D03*
X129412000Y-29337000D03*
X129412000Y-30607000D03*
X129412000Y-31877000D03*
X129412000Y-33147000D03*
X129412000Y-34417000D03*
X129412000Y-35687000D03*
X129412000Y-36957000D03*
X129412000Y-38227000D03*
X129412000Y-39497000D03*
D18*
X86487000Y-45720000D03*
X87757000Y-45720000D03*
X89027000Y-45720000D03*
X90297000Y-45720000D03*
X91567000Y-45720000D03*
X92837000Y-45720000D03*
X94107000Y-45720000D03*
X94107000Y-39370000D03*
X92837000Y-39370000D03*
X90297000Y-39370000D03*
X89027000Y-39370000D03*
X87757000Y-39370000D03*
X86487000Y-39370000D03*
X91567000Y-39370000D03*
X108331000Y-45720000D03*
X109601000Y-45720000D03*
X110871000Y-45720000D03*
X112141000Y-45720000D03*
X113411000Y-45720000D03*
X114681000Y-45720000D03*
X115951000Y-45720000D03*
X115951000Y-39370000D03*
X114681000Y-39370000D03*
X112141000Y-39370000D03*
X110871000Y-39370000D03*
X109601000Y-39370000D03*
X108331000Y-39370000D03*
X113411000Y-39370000D03*
D19*
X74168000Y-54196000D03*
X72898000Y-54196000D03*
X71628000Y-54196000D03*
X70358000Y-54196000D03*
X70358000Y-59596000D03*
X71628000Y-59596000D03*
X72898000Y-59596000D03*
X74168000Y-59596000D03*
X82296000Y-54196000D03*
X81026000Y-54196000D03*
X79756000Y-54196000D03*
X78486000Y-54196000D03*
X78486000Y-59596000D03*
X79756000Y-59596000D03*
X81026000Y-59596000D03*
X82296000Y-59596000D03*
X90551000Y-54196000D03*
X89281000Y-54196000D03*
X88011000Y-54196000D03*
X86741000Y-54196000D03*
X86741000Y-59596000D03*
X88011000Y-59596000D03*
X89281000Y-59596000D03*
X90551000Y-59596000D03*
X98679000Y-54196000D03*
X97409000Y-54196000D03*
X96139000Y-54196000D03*
X94869000Y-54196000D03*
X94869000Y-59596000D03*
X96139000Y-59596000D03*
X97409000Y-59596000D03*
X98679000Y-59596000D03*
X106807000Y-54196000D03*
X105537000Y-54196000D03*
X104267000Y-54196000D03*
X102997000Y-54196000D03*
X102997000Y-59596000D03*
X104267000Y-59596000D03*
X105537000Y-59596000D03*
X106807000Y-59596000D03*
X114935000Y-54196000D03*
X113665000Y-54196000D03*
X112395000Y-54196000D03*
X111125000Y-54196000D03*
X111125000Y-59596000D03*
X112395000Y-59596000D03*
X113665000Y-59596000D03*
X114935000Y-59596000D03*
X123063000Y-54196000D03*
X121793000Y-54196000D03*
X120523000Y-54196000D03*
X119253000Y-54196000D03*
X119253000Y-59596000D03*
X120523000Y-59596000D03*
X121793000Y-59596000D03*
X123063000Y-59596000D03*
X131191000Y-54196000D03*
X129921000Y-54196000D03*
X128651000Y-54196000D03*
X127381000Y-54196000D03*
X127381000Y-59596000D03*
X128651000Y-59596000D03*
X129921000Y-59596000D03*
X131191000Y-59596000D03*
X64897000Y-42512000D03*
X63627000Y-42512000D03*
X62357000Y-42512000D03*
X61087000Y-42512000D03*
X61087000Y-47912000D03*
X62357000Y-47912000D03*
X63627000Y-47912000D03*
X64897000Y-47912000D03*
D20*
X79994000Y-32947000D03*
X83044000Y-32947000D03*
X83044000Y-28447000D03*
X79994000Y-28447000D03*
X85394000Y-32947000D03*
X88444000Y-32947000D03*
X88444000Y-28447000D03*
X85394000Y-28447000D03*
X90794000Y-32947000D03*
X93844000Y-32947000D03*
X93844000Y-28447000D03*
X90794000Y-28447000D03*
X96194000Y-32947000D03*
X99244000Y-32947000D03*
X99244000Y-28447000D03*
X96194000Y-28447000D03*
X101594000Y-32947000D03*
X104644000Y-32947000D03*
X104644000Y-28447000D03*
X101594000Y-28447000D03*
X106994000Y-32947000D03*
X110044000Y-32947000D03*
X110044000Y-28447000D03*
X106994000Y-28447000D03*
X112394000Y-32947000D03*
X115444000Y-32947000D03*
X115444000Y-28447000D03*
X112394000Y-28447000D03*
X117794000Y-32947000D03*
X120844000Y-32947000D03*
X120844000Y-28447000D03*
X117794000Y-28447000D03*
D14*
X66929000Y-48117000D03*
X66929000Y-46117000D03*
D13*
X60000000Y-39500000D03*
X58000000Y-39500000D03*
M02*
