G04 #@! TF.FileFunction,Copper,L4,Bot,Signal*
%FSLAX46Y46*%
G04 Gerber Fmt 4.6, Leading zero omitted, Abs format (unit mm)*
G04 Created by KiCad (PCBNEW 4.0.5+dfsg1-4) date Sun Mar 19 16:59:55 2017*
%MOMM*%
%LPD*%
G01*
G04 APERTURE LIST*
%ADD10C,0.020000*%
%ADD11C,0.150000*%
%ADD12R,1.727200X2.032000*%
%ADD13O,1.727200X2.032000*%
%ADD14R,1.727200X1.727200*%
%ADD15O,1.727200X1.727200*%
%ADD16R,1.300000X0.700000*%
%ADD17R,0.700000X1.300000*%
%ADD18C,0.600000*%
%ADD19C,0.250000*%
%ADD20C,0.200000*%
G04 APERTURE END LIST*
D10*
D11*
X56261000Y-73660000D02*
X56261000Y-20320000D01*
X151130000Y-73660000D02*
X56261000Y-73660000D01*
X151130000Y-20320000D02*
X151130000Y-73660000D01*
X56261000Y-20320000D02*
X151130000Y-20320000D01*
D12*
X70866000Y-22860000D03*
D13*
X73406000Y-22860000D03*
X75946000Y-22860000D03*
X78486000Y-22860000D03*
X81026000Y-22860000D03*
X83566000Y-22860000D03*
X86106000Y-22860000D03*
X88646000Y-22860000D03*
X91186000Y-22860000D03*
X93726000Y-22860000D03*
D12*
X97790000Y-71120000D03*
D13*
X95250000Y-71120000D03*
X92710000Y-71120000D03*
X90170000Y-71120000D03*
X87630000Y-71120000D03*
X85090000Y-71120000D03*
X82550000Y-71120000D03*
X80010000Y-71120000D03*
D12*
X97790000Y-22860000D03*
D13*
X100330000Y-22860000D03*
X102870000Y-22860000D03*
X105410000Y-22860000D03*
X107950000Y-22860000D03*
X110490000Y-22860000D03*
X113030000Y-22860000D03*
X115570000Y-22860000D03*
D12*
X120650000Y-71120000D03*
D13*
X118110000Y-71120000D03*
X115570000Y-71120000D03*
X113030000Y-71120000D03*
X110490000Y-71120000D03*
X107950000Y-71120000D03*
X105410000Y-71120000D03*
X102870000Y-71120000D03*
D12*
X120650000Y-22860000D03*
D13*
X123190000Y-22860000D03*
X125730000Y-22860000D03*
X128270000Y-22860000D03*
X130810000Y-22860000D03*
X133350000Y-22860000D03*
X135890000Y-22860000D03*
X138430000Y-22860000D03*
D12*
X143510000Y-71120000D03*
D13*
X140970000Y-71120000D03*
X138430000Y-71120000D03*
X135890000Y-71120000D03*
X133350000Y-71120000D03*
X130810000Y-71120000D03*
X128270000Y-71120000D03*
X125730000Y-71120000D03*
D14*
X146050000Y-22860000D03*
D15*
X148590000Y-22860000D03*
X146050000Y-25400000D03*
X148590000Y-25400000D03*
X146050000Y-27940000D03*
X148590000Y-27940000D03*
X146050000Y-30480000D03*
X148590000Y-30480000D03*
X146050000Y-33020000D03*
X148590000Y-33020000D03*
X146050000Y-35560000D03*
X148590000Y-35560000D03*
X146050000Y-38100000D03*
X148590000Y-38100000D03*
X146050000Y-40640000D03*
X148590000Y-40640000D03*
X146050000Y-43180000D03*
X148590000Y-43180000D03*
X146050000Y-45720000D03*
X148590000Y-45720000D03*
X146050000Y-48260000D03*
X148590000Y-48260000D03*
X146050000Y-50800000D03*
X148590000Y-50800000D03*
X146050000Y-53340000D03*
X148590000Y-53340000D03*
X146050000Y-55880000D03*
X148590000Y-55880000D03*
X146050000Y-58420000D03*
X148590000Y-58420000D03*
X146050000Y-60960000D03*
X148590000Y-60960000D03*
X146050000Y-63500000D03*
X148590000Y-63500000D03*
X146050000Y-66040000D03*
X148590000Y-66040000D03*
D16*
X78486000Y-27239000D03*
X78486000Y-25339000D03*
D17*
X141671000Y-66167000D03*
X143571000Y-66167000D03*
D18*
X71882000Y-24638000D03*
X83947000Y-38354000D03*
X105791000Y-38354000D03*
X128143000Y-41656000D03*
X60833000Y-52324000D03*
X62000000Y-40500000D03*
X59055000Y-41021000D03*
X106934000Y-41402000D03*
X85090000Y-41402000D03*
X60579000Y-57912000D03*
X60706000Y-68199000D03*
X132461000Y-41656000D03*
X69596000Y-27559000D03*
X125095000Y-65151000D03*
X116967000Y-65151000D03*
X108839000Y-65151000D03*
X100711000Y-65151000D03*
X92583000Y-65151000D03*
X84455000Y-65151000D03*
X76200000Y-65151000D03*
X68072000Y-65151000D03*
X134366000Y-57785000D03*
X126238000Y-57785000D03*
X118110000Y-57785000D03*
X109982000Y-57785000D03*
X101854000Y-57785000D03*
X93726000Y-57785000D03*
X85471000Y-57785000D03*
X77343000Y-57785000D03*
X127381000Y-55499000D03*
X119253000Y-55499000D03*
X111125000Y-55499000D03*
X102997000Y-55499000D03*
X94869000Y-55499000D03*
X86741000Y-55499000D03*
X78486000Y-55499000D03*
X70358000Y-55499000D03*
X125476000Y-49911000D03*
X117348000Y-49911000D03*
X109220000Y-49911000D03*
X101092000Y-49911000D03*
X93091000Y-49911000D03*
X84836000Y-49911000D03*
X76581000Y-49911000D03*
X68453000Y-49911000D03*
X65532000Y-46101000D03*
X95123000Y-45720000D03*
X116967000Y-45720000D03*
X119380000Y-28448000D03*
X114046000Y-28448000D03*
X109982000Y-30607000D03*
X104648000Y-30607000D03*
X99187000Y-30607000D03*
X93853000Y-30607000D03*
X86995000Y-28448000D03*
X81661000Y-28448000D03*
X127635000Y-28067000D03*
X73279000Y-39497000D03*
X59055000Y-48260000D03*
X134366000Y-59817000D03*
X126238000Y-59817000D03*
X118110000Y-59817000D03*
X109982000Y-59817000D03*
X101854000Y-59817000D03*
X93726000Y-59817000D03*
X85471000Y-59817000D03*
X77343000Y-59817000D03*
X68072000Y-48133000D03*
X60579000Y-62611000D03*
X137287000Y-39497000D03*
X63754000Y-28067000D03*
X130937000Y-38227000D03*
X69977000Y-29337000D03*
X89027000Y-35052000D03*
X113792000Y-43307000D03*
X91821000Y-43307000D03*
X58928000Y-35687000D03*
X58928000Y-33147000D03*
X59182000Y-30607000D03*
X59690000Y-27940000D03*
X140843000Y-48260000D03*
X140843000Y-31877000D03*
X141478000Y-45720000D03*
X141478000Y-34417000D03*
X142113000Y-43180000D03*
X142113000Y-36957000D03*
X76581000Y-51943000D03*
X124206000Y-61849000D03*
X116078000Y-61849000D03*
X107950000Y-61849000D03*
X99822000Y-61849000D03*
X91694000Y-61849000D03*
X83566000Y-61849000D03*
X75311000Y-61849000D03*
X67183000Y-61849000D03*
X68453000Y-51943000D03*
X84836000Y-51943000D03*
X92964000Y-51943000D03*
X101092000Y-51943000D03*
X109220000Y-51943000D03*
X117348000Y-51943000D03*
X66421000Y-42545000D03*
X125476000Y-51943000D03*
D19*
X78486000Y-22860000D02*
X78486000Y-25339000D01*
X148590000Y-66040000D02*
X146050000Y-66040000D01*
X146050000Y-66040000D02*
X143698000Y-66040000D01*
X143698000Y-66040000D02*
X143571000Y-66167000D01*
D20*
G36*
X150755000Y-73285000D02*
X56636000Y-73285000D01*
X56636000Y-70941818D01*
X78846400Y-70941818D01*
X78846400Y-71298182D01*
X78934974Y-71743472D01*
X79187211Y-72120971D01*
X79564710Y-72373208D01*
X80010000Y-72461782D01*
X80455290Y-72373208D01*
X80832789Y-72120971D01*
X81085026Y-71743472D01*
X81173600Y-71298182D01*
X81173600Y-70941818D01*
X81386400Y-70941818D01*
X81386400Y-71298182D01*
X81474974Y-71743472D01*
X81727211Y-72120971D01*
X82104710Y-72373208D01*
X82550000Y-72461782D01*
X82995290Y-72373208D01*
X83372789Y-72120971D01*
X83625026Y-71743472D01*
X83713600Y-71298182D01*
X83713600Y-70941818D01*
X83926400Y-70941818D01*
X83926400Y-71298182D01*
X84014974Y-71743472D01*
X84267211Y-72120971D01*
X84644710Y-72373208D01*
X85090000Y-72461782D01*
X85535290Y-72373208D01*
X85912789Y-72120971D01*
X86165026Y-71743472D01*
X86253600Y-71298182D01*
X86253600Y-70941818D01*
X86466400Y-70941818D01*
X86466400Y-71298182D01*
X86554974Y-71743472D01*
X86807211Y-72120971D01*
X87184710Y-72373208D01*
X87630000Y-72461782D01*
X88075290Y-72373208D01*
X88452789Y-72120971D01*
X88705026Y-71743472D01*
X88793600Y-71298182D01*
X88793600Y-70941818D01*
X89006400Y-70941818D01*
X89006400Y-71298182D01*
X89094974Y-71743472D01*
X89347211Y-72120971D01*
X89724710Y-72373208D01*
X90170000Y-72461782D01*
X90615290Y-72373208D01*
X90992789Y-72120971D01*
X91245026Y-71743472D01*
X91333600Y-71298182D01*
X91333600Y-71170000D01*
X91546400Y-71170000D01*
X91546400Y-71322400D01*
X91654108Y-71763884D01*
X91922566Y-72130544D01*
X92310903Y-72366560D01*
X92478757Y-72412791D01*
X92660000Y-72359851D01*
X92660000Y-71170000D01*
X92760000Y-71170000D01*
X92760000Y-72359851D01*
X92941243Y-72412791D01*
X93109097Y-72366560D01*
X93497434Y-72130544D01*
X93765892Y-71763884D01*
X93873600Y-71322400D01*
X93873600Y-71170000D01*
X94086400Y-71170000D01*
X94086400Y-71322400D01*
X94194108Y-71763884D01*
X94462566Y-72130544D01*
X94850903Y-72366560D01*
X95018757Y-72412791D01*
X95200000Y-72359851D01*
X95200000Y-71170000D01*
X95300000Y-71170000D01*
X95300000Y-72359851D01*
X95481243Y-72412791D01*
X95649097Y-72366560D01*
X96037434Y-72130544D01*
X96305892Y-71763884D01*
X96413600Y-71322400D01*
X96413600Y-71245000D01*
X96626400Y-71245000D01*
X96626400Y-72195674D01*
X96672072Y-72305937D01*
X96756464Y-72390328D01*
X96866727Y-72436000D01*
X97665000Y-72436000D01*
X97740000Y-72361000D01*
X97740000Y-71170000D01*
X97840000Y-71170000D01*
X97840000Y-72361000D01*
X97915000Y-72436000D01*
X98713273Y-72436000D01*
X98823536Y-72390328D01*
X98907928Y-72305937D01*
X98953600Y-72195674D01*
X98953600Y-71245000D01*
X98878600Y-71170000D01*
X97840000Y-71170000D01*
X97740000Y-71170000D01*
X96701400Y-71170000D01*
X96626400Y-71245000D01*
X96413600Y-71245000D01*
X96413600Y-71170000D01*
X95300000Y-71170000D01*
X95200000Y-71170000D01*
X94086400Y-71170000D01*
X93873600Y-71170000D01*
X92760000Y-71170000D01*
X92660000Y-71170000D01*
X91546400Y-71170000D01*
X91333600Y-71170000D01*
X91333600Y-70941818D01*
X91328783Y-70917600D01*
X91546400Y-70917600D01*
X91546400Y-71070000D01*
X92660000Y-71070000D01*
X92660000Y-69880149D01*
X92760000Y-69880149D01*
X92760000Y-71070000D01*
X93873600Y-71070000D01*
X93873600Y-70917600D01*
X94086400Y-70917600D01*
X94086400Y-71070000D01*
X95200000Y-71070000D01*
X95200000Y-69880149D01*
X95300000Y-69880149D01*
X95300000Y-71070000D01*
X96413600Y-71070000D01*
X96413600Y-70917600D01*
X96305892Y-70476116D01*
X96037434Y-70109456D01*
X95930271Y-70044326D01*
X96626400Y-70044326D01*
X96626400Y-70995000D01*
X96701400Y-71070000D01*
X97740000Y-71070000D01*
X97740000Y-69879000D01*
X97840000Y-69879000D01*
X97840000Y-71070000D01*
X98878600Y-71070000D01*
X98953600Y-70995000D01*
X98953600Y-70941818D01*
X101706400Y-70941818D01*
X101706400Y-71298182D01*
X101794974Y-71743472D01*
X102047211Y-72120971D01*
X102424710Y-72373208D01*
X102870000Y-72461782D01*
X103315290Y-72373208D01*
X103692789Y-72120971D01*
X103945026Y-71743472D01*
X104033600Y-71298182D01*
X104033600Y-70941818D01*
X104246400Y-70941818D01*
X104246400Y-71298182D01*
X104334974Y-71743472D01*
X104587211Y-72120971D01*
X104964710Y-72373208D01*
X105410000Y-72461782D01*
X105855290Y-72373208D01*
X106232789Y-72120971D01*
X106485026Y-71743472D01*
X106573600Y-71298182D01*
X106573600Y-70941818D01*
X106786400Y-70941818D01*
X106786400Y-71298182D01*
X106874974Y-71743472D01*
X107127211Y-72120971D01*
X107504710Y-72373208D01*
X107950000Y-72461782D01*
X108395290Y-72373208D01*
X108772789Y-72120971D01*
X109025026Y-71743472D01*
X109113600Y-71298182D01*
X109113600Y-70941818D01*
X109326400Y-70941818D01*
X109326400Y-71298182D01*
X109414974Y-71743472D01*
X109667211Y-72120971D01*
X110044710Y-72373208D01*
X110490000Y-72461782D01*
X110935290Y-72373208D01*
X111312789Y-72120971D01*
X111565026Y-71743472D01*
X111653600Y-71298182D01*
X111653600Y-70941818D01*
X111866400Y-70941818D01*
X111866400Y-71298182D01*
X111954974Y-71743472D01*
X112207211Y-72120971D01*
X112584710Y-72373208D01*
X113030000Y-72461782D01*
X113475290Y-72373208D01*
X113852789Y-72120971D01*
X114105026Y-71743472D01*
X114193600Y-71298182D01*
X114193600Y-70941818D01*
X114406400Y-70941818D01*
X114406400Y-71298182D01*
X114494974Y-71743472D01*
X114747211Y-72120971D01*
X115124710Y-72373208D01*
X115570000Y-72461782D01*
X116015290Y-72373208D01*
X116392789Y-72120971D01*
X116645026Y-71743472D01*
X116733600Y-71298182D01*
X116733600Y-70941818D01*
X116946400Y-70941818D01*
X116946400Y-71298182D01*
X117034974Y-71743472D01*
X117287211Y-72120971D01*
X117664710Y-72373208D01*
X118110000Y-72461782D01*
X118555290Y-72373208D01*
X118932789Y-72120971D01*
X119185026Y-71743472D01*
X119273600Y-71298182D01*
X119273600Y-70941818D01*
X119185026Y-70496528D01*
X118932789Y-70119029D01*
X118910297Y-70104000D01*
X119480523Y-70104000D01*
X119480523Y-72136000D01*
X119501442Y-72247173D01*
X119567145Y-72349279D01*
X119667397Y-72417778D01*
X119786400Y-72441877D01*
X121513600Y-72441877D01*
X121624773Y-72420958D01*
X121726879Y-72355255D01*
X121795378Y-72255003D01*
X121819477Y-72136000D01*
X121819477Y-70941818D01*
X124566400Y-70941818D01*
X124566400Y-71298182D01*
X124654974Y-71743472D01*
X124907211Y-72120971D01*
X125284710Y-72373208D01*
X125730000Y-72461782D01*
X126175290Y-72373208D01*
X126552789Y-72120971D01*
X126805026Y-71743472D01*
X126893600Y-71298182D01*
X126893600Y-70941818D01*
X127106400Y-70941818D01*
X127106400Y-71298182D01*
X127194974Y-71743472D01*
X127447211Y-72120971D01*
X127824710Y-72373208D01*
X128270000Y-72461782D01*
X128715290Y-72373208D01*
X129092789Y-72120971D01*
X129345026Y-71743472D01*
X129433600Y-71298182D01*
X129433600Y-70941818D01*
X129646400Y-70941818D01*
X129646400Y-71298182D01*
X129734974Y-71743472D01*
X129987211Y-72120971D01*
X130364710Y-72373208D01*
X130810000Y-72461782D01*
X131255290Y-72373208D01*
X131632789Y-72120971D01*
X131885026Y-71743472D01*
X131973600Y-71298182D01*
X131973600Y-70941818D01*
X132186400Y-70941818D01*
X132186400Y-71298182D01*
X132274974Y-71743472D01*
X132527211Y-72120971D01*
X132904710Y-72373208D01*
X133350000Y-72461782D01*
X133795290Y-72373208D01*
X134172789Y-72120971D01*
X134425026Y-71743472D01*
X134513600Y-71298182D01*
X134513600Y-70941818D01*
X134726400Y-70941818D01*
X134726400Y-71298182D01*
X134814974Y-71743472D01*
X135067211Y-72120971D01*
X135444710Y-72373208D01*
X135890000Y-72461782D01*
X136335290Y-72373208D01*
X136712789Y-72120971D01*
X136965026Y-71743472D01*
X137053600Y-71298182D01*
X137053600Y-70941818D01*
X137266400Y-70941818D01*
X137266400Y-71298182D01*
X137354974Y-71743472D01*
X137607211Y-72120971D01*
X137984710Y-72373208D01*
X138430000Y-72461782D01*
X138875290Y-72373208D01*
X139252789Y-72120971D01*
X139505026Y-71743472D01*
X139593600Y-71298182D01*
X139593600Y-70941818D01*
X139806400Y-70941818D01*
X139806400Y-71298182D01*
X139894974Y-71743472D01*
X140147211Y-72120971D01*
X140524710Y-72373208D01*
X140970000Y-72461782D01*
X141415290Y-72373208D01*
X141792789Y-72120971D01*
X142045026Y-71743472D01*
X142133600Y-71298182D01*
X142133600Y-70941818D01*
X142045026Y-70496528D01*
X141792789Y-70119029D01*
X141770297Y-70104000D01*
X142340523Y-70104000D01*
X142340523Y-72136000D01*
X142361442Y-72247173D01*
X142427145Y-72349279D01*
X142527397Y-72417778D01*
X142646400Y-72441877D01*
X144373600Y-72441877D01*
X144484773Y-72420958D01*
X144586879Y-72355255D01*
X144655378Y-72255003D01*
X144679477Y-72136000D01*
X144679477Y-70104000D01*
X144658558Y-69992827D01*
X144592855Y-69890721D01*
X144492603Y-69822222D01*
X144373600Y-69798123D01*
X142646400Y-69798123D01*
X142535227Y-69819042D01*
X142433121Y-69884745D01*
X142364622Y-69984997D01*
X142340523Y-70104000D01*
X141770297Y-70104000D01*
X141415290Y-69866792D01*
X140970000Y-69778218D01*
X140524710Y-69866792D01*
X140147211Y-70119029D01*
X139894974Y-70496528D01*
X139806400Y-70941818D01*
X139593600Y-70941818D01*
X139505026Y-70496528D01*
X139252789Y-70119029D01*
X138875290Y-69866792D01*
X138430000Y-69778218D01*
X137984710Y-69866792D01*
X137607211Y-70119029D01*
X137354974Y-70496528D01*
X137266400Y-70941818D01*
X137053600Y-70941818D01*
X136965026Y-70496528D01*
X136712789Y-70119029D01*
X136335290Y-69866792D01*
X135890000Y-69778218D01*
X135444710Y-69866792D01*
X135067211Y-70119029D01*
X134814974Y-70496528D01*
X134726400Y-70941818D01*
X134513600Y-70941818D01*
X134425026Y-70496528D01*
X134172789Y-70119029D01*
X133795290Y-69866792D01*
X133350000Y-69778218D01*
X132904710Y-69866792D01*
X132527211Y-70119029D01*
X132274974Y-70496528D01*
X132186400Y-70941818D01*
X131973600Y-70941818D01*
X131885026Y-70496528D01*
X131632789Y-70119029D01*
X131255290Y-69866792D01*
X130810000Y-69778218D01*
X130364710Y-69866792D01*
X129987211Y-70119029D01*
X129734974Y-70496528D01*
X129646400Y-70941818D01*
X129433600Y-70941818D01*
X129345026Y-70496528D01*
X129092789Y-70119029D01*
X128715290Y-69866792D01*
X128270000Y-69778218D01*
X127824710Y-69866792D01*
X127447211Y-70119029D01*
X127194974Y-70496528D01*
X127106400Y-70941818D01*
X126893600Y-70941818D01*
X126805026Y-70496528D01*
X126552789Y-70119029D01*
X126175290Y-69866792D01*
X125730000Y-69778218D01*
X125284710Y-69866792D01*
X124907211Y-70119029D01*
X124654974Y-70496528D01*
X124566400Y-70941818D01*
X121819477Y-70941818D01*
X121819477Y-70104000D01*
X121798558Y-69992827D01*
X121732855Y-69890721D01*
X121632603Y-69822222D01*
X121513600Y-69798123D01*
X119786400Y-69798123D01*
X119675227Y-69819042D01*
X119573121Y-69884745D01*
X119504622Y-69984997D01*
X119480523Y-70104000D01*
X118910297Y-70104000D01*
X118555290Y-69866792D01*
X118110000Y-69778218D01*
X117664710Y-69866792D01*
X117287211Y-70119029D01*
X117034974Y-70496528D01*
X116946400Y-70941818D01*
X116733600Y-70941818D01*
X116645026Y-70496528D01*
X116392789Y-70119029D01*
X116015290Y-69866792D01*
X115570000Y-69778218D01*
X115124710Y-69866792D01*
X114747211Y-70119029D01*
X114494974Y-70496528D01*
X114406400Y-70941818D01*
X114193600Y-70941818D01*
X114105026Y-70496528D01*
X113852789Y-70119029D01*
X113475290Y-69866792D01*
X113030000Y-69778218D01*
X112584710Y-69866792D01*
X112207211Y-70119029D01*
X111954974Y-70496528D01*
X111866400Y-70941818D01*
X111653600Y-70941818D01*
X111565026Y-70496528D01*
X111312789Y-70119029D01*
X110935290Y-69866792D01*
X110490000Y-69778218D01*
X110044710Y-69866792D01*
X109667211Y-70119029D01*
X109414974Y-70496528D01*
X109326400Y-70941818D01*
X109113600Y-70941818D01*
X109025026Y-70496528D01*
X108772789Y-70119029D01*
X108395290Y-69866792D01*
X107950000Y-69778218D01*
X107504710Y-69866792D01*
X107127211Y-70119029D01*
X106874974Y-70496528D01*
X106786400Y-70941818D01*
X106573600Y-70941818D01*
X106485026Y-70496528D01*
X106232789Y-70119029D01*
X105855290Y-69866792D01*
X105410000Y-69778218D01*
X104964710Y-69866792D01*
X104587211Y-70119029D01*
X104334974Y-70496528D01*
X104246400Y-70941818D01*
X104033600Y-70941818D01*
X103945026Y-70496528D01*
X103692789Y-70119029D01*
X103315290Y-69866792D01*
X102870000Y-69778218D01*
X102424710Y-69866792D01*
X102047211Y-70119029D01*
X101794974Y-70496528D01*
X101706400Y-70941818D01*
X98953600Y-70941818D01*
X98953600Y-70044326D01*
X98907928Y-69934063D01*
X98823536Y-69849672D01*
X98713273Y-69804000D01*
X97915000Y-69804000D01*
X97840000Y-69879000D01*
X97740000Y-69879000D01*
X97665000Y-69804000D01*
X96866727Y-69804000D01*
X96756464Y-69849672D01*
X96672072Y-69934063D01*
X96626400Y-70044326D01*
X95930271Y-70044326D01*
X95649097Y-69873440D01*
X95481243Y-69827209D01*
X95300000Y-69880149D01*
X95200000Y-69880149D01*
X95018757Y-69827209D01*
X94850903Y-69873440D01*
X94462566Y-70109456D01*
X94194108Y-70476116D01*
X94086400Y-70917600D01*
X93873600Y-70917600D01*
X93765892Y-70476116D01*
X93497434Y-70109456D01*
X93109097Y-69873440D01*
X92941243Y-69827209D01*
X92760000Y-69880149D01*
X92660000Y-69880149D01*
X92478757Y-69827209D01*
X92310903Y-69873440D01*
X91922566Y-70109456D01*
X91654108Y-70476116D01*
X91546400Y-70917600D01*
X91328783Y-70917600D01*
X91245026Y-70496528D01*
X90992789Y-70119029D01*
X90615290Y-69866792D01*
X90170000Y-69778218D01*
X89724710Y-69866792D01*
X89347211Y-70119029D01*
X89094974Y-70496528D01*
X89006400Y-70941818D01*
X88793600Y-70941818D01*
X88705026Y-70496528D01*
X88452789Y-70119029D01*
X88075290Y-69866792D01*
X87630000Y-69778218D01*
X87184710Y-69866792D01*
X86807211Y-70119029D01*
X86554974Y-70496528D01*
X86466400Y-70941818D01*
X86253600Y-70941818D01*
X86165026Y-70496528D01*
X85912789Y-70119029D01*
X85535290Y-69866792D01*
X85090000Y-69778218D01*
X84644710Y-69866792D01*
X84267211Y-70119029D01*
X84014974Y-70496528D01*
X83926400Y-70941818D01*
X83713600Y-70941818D01*
X83625026Y-70496528D01*
X83372789Y-70119029D01*
X82995290Y-69866792D01*
X82550000Y-69778218D01*
X82104710Y-69866792D01*
X81727211Y-70119029D01*
X81474974Y-70496528D01*
X81386400Y-70941818D01*
X81173600Y-70941818D01*
X81085026Y-70496528D01*
X80832789Y-70119029D01*
X80455290Y-69866792D01*
X80010000Y-69778218D01*
X79564710Y-69866792D01*
X79187211Y-70119029D01*
X78934974Y-70496528D01*
X78846400Y-70941818D01*
X56636000Y-70941818D01*
X56636000Y-66292000D01*
X141021000Y-66292000D01*
X141021000Y-66876673D01*
X141066672Y-66986936D01*
X141151063Y-67071328D01*
X141261326Y-67117000D01*
X141546000Y-67117000D01*
X141621000Y-67042000D01*
X141621000Y-66217000D01*
X141721000Y-66217000D01*
X141721000Y-67042000D01*
X141796000Y-67117000D01*
X142080674Y-67117000D01*
X142190937Y-67071328D01*
X142275328Y-66986936D01*
X142321000Y-66876673D01*
X142321000Y-66292000D01*
X142246000Y-66217000D01*
X141721000Y-66217000D01*
X141621000Y-66217000D01*
X141096000Y-66217000D01*
X141021000Y-66292000D01*
X56636000Y-66292000D01*
X56636000Y-65457327D01*
X141021000Y-65457327D01*
X141021000Y-66042000D01*
X141096000Y-66117000D01*
X141621000Y-66117000D01*
X141621000Y-65292000D01*
X141721000Y-65292000D01*
X141721000Y-66117000D01*
X142246000Y-66117000D01*
X142321000Y-66042000D01*
X142321000Y-65517000D01*
X142915123Y-65517000D01*
X142915123Y-66817000D01*
X142936042Y-66928173D01*
X143001745Y-67030279D01*
X143101997Y-67098778D01*
X143221000Y-67122877D01*
X143921000Y-67122877D01*
X144032173Y-67101958D01*
X144134279Y-67036255D01*
X144202778Y-66936003D01*
X144226877Y-66817000D01*
X144226877Y-66465000D01*
X144948142Y-66465000D01*
X144952178Y-66485290D01*
X145204415Y-66862789D01*
X145581914Y-67115026D01*
X146027204Y-67203600D01*
X146072796Y-67203600D01*
X146518086Y-67115026D01*
X146895585Y-66862789D01*
X147147822Y-66485290D01*
X147151858Y-66465000D01*
X147488142Y-66465000D01*
X147492178Y-66485290D01*
X147744415Y-66862789D01*
X148121914Y-67115026D01*
X148567204Y-67203600D01*
X148612796Y-67203600D01*
X149058086Y-67115026D01*
X149435585Y-66862789D01*
X149687822Y-66485290D01*
X149776396Y-66040000D01*
X149687822Y-65594710D01*
X149435585Y-65217211D01*
X149058086Y-64964974D01*
X148612796Y-64876400D01*
X148567204Y-64876400D01*
X148121914Y-64964974D01*
X147744415Y-65217211D01*
X147492178Y-65594710D01*
X147488142Y-65615000D01*
X147151858Y-65615000D01*
X147147822Y-65594710D01*
X146895585Y-65217211D01*
X146518086Y-64964974D01*
X146072796Y-64876400D01*
X146027204Y-64876400D01*
X145581914Y-64964974D01*
X145204415Y-65217211D01*
X144952178Y-65594710D01*
X144948142Y-65615000D01*
X144226877Y-65615000D01*
X144226877Y-65517000D01*
X144205958Y-65405827D01*
X144140255Y-65303721D01*
X144040003Y-65235222D01*
X143921000Y-65211123D01*
X143221000Y-65211123D01*
X143109827Y-65232042D01*
X143007721Y-65297745D01*
X142939222Y-65397997D01*
X142915123Y-65517000D01*
X142321000Y-65517000D01*
X142321000Y-65457327D01*
X142275328Y-65347064D01*
X142190937Y-65262672D01*
X142080674Y-65217000D01*
X141796000Y-65217000D01*
X141721000Y-65292000D01*
X141621000Y-65292000D01*
X141546000Y-65217000D01*
X141261326Y-65217000D01*
X141151063Y-65262672D01*
X141066672Y-65347064D01*
X141021000Y-65457327D01*
X56636000Y-65457327D01*
X56636000Y-63500000D01*
X144863604Y-63500000D01*
X144952178Y-63945290D01*
X145204415Y-64322789D01*
X145581914Y-64575026D01*
X146027204Y-64663600D01*
X146072796Y-64663600D01*
X146518086Y-64575026D01*
X146895585Y-64322789D01*
X147147822Y-63945290D01*
X147236396Y-63500000D01*
X147403604Y-63500000D01*
X147492178Y-63945290D01*
X147744415Y-64322789D01*
X148121914Y-64575026D01*
X148567204Y-64663600D01*
X148612796Y-64663600D01*
X149058086Y-64575026D01*
X149435585Y-64322789D01*
X149687822Y-63945290D01*
X149776396Y-63500000D01*
X149687822Y-63054710D01*
X149435585Y-62677211D01*
X149058086Y-62424974D01*
X148612796Y-62336400D01*
X148567204Y-62336400D01*
X148121914Y-62424974D01*
X147744415Y-62677211D01*
X147492178Y-63054710D01*
X147403604Y-63500000D01*
X147236396Y-63500000D01*
X147147822Y-63054710D01*
X146895585Y-62677211D01*
X146518086Y-62424974D01*
X146072796Y-62336400D01*
X146027204Y-62336400D01*
X145581914Y-62424974D01*
X145204415Y-62677211D01*
X144952178Y-63054710D01*
X144863604Y-63500000D01*
X56636000Y-63500000D01*
X56636000Y-62729824D01*
X59978896Y-62729824D01*
X60070048Y-62950429D01*
X60238683Y-63119359D01*
X60459129Y-63210896D01*
X60697824Y-63211104D01*
X60918429Y-63119952D01*
X61087359Y-62951317D01*
X61178896Y-62730871D01*
X61179104Y-62492176D01*
X61087952Y-62271571D01*
X60919317Y-62102641D01*
X60698871Y-62011104D01*
X60460176Y-62010896D01*
X60239571Y-62102048D01*
X60070641Y-62270683D01*
X59979104Y-62491129D01*
X59978896Y-62729824D01*
X56636000Y-62729824D01*
X56636000Y-61967824D01*
X66582896Y-61967824D01*
X66674048Y-62188429D01*
X66842683Y-62357359D01*
X67063129Y-62448896D01*
X67301824Y-62449104D01*
X67522429Y-62357952D01*
X67691359Y-62189317D01*
X67782896Y-61968871D01*
X67782896Y-61967824D01*
X74710896Y-61967824D01*
X74802048Y-62188429D01*
X74970683Y-62357359D01*
X75191129Y-62448896D01*
X75429824Y-62449104D01*
X75650429Y-62357952D01*
X75819359Y-62189317D01*
X75910896Y-61968871D01*
X75910896Y-61967824D01*
X82965896Y-61967824D01*
X83057048Y-62188429D01*
X83225683Y-62357359D01*
X83446129Y-62448896D01*
X83684824Y-62449104D01*
X83905429Y-62357952D01*
X84074359Y-62189317D01*
X84165896Y-61968871D01*
X84165896Y-61967824D01*
X91093896Y-61967824D01*
X91185048Y-62188429D01*
X91353683Y-62357359D01*
X91574129Y-62448896D01*
X91812824Y-62449104D01*
X92033429Y-62357952D01*
X92202359Y-62189317D01*
X92293896Y-61968871D01*
X92293896Y-61967824D01*
X99221896Y-61967824D01*
X99313048Y-62188429D01*
X99481683Y-62357359D01*
X99702129Y-62448896D01*
X99940824Y-62449104D01*
X100161429Y-62357952D01*
X100330359Y-62189317D01*
X100421896Y-61968871D01*
X100421896Y-61967824D01*
X107349896Y-61967824D01*
X107441048Y-62188429D01*
X107609683Y-62357359D01*
X107830129Y-62448896D01*
X108068824Y-62449104D01*
X108289429Y-62357952D01*
X108458359Y-62189317D01*
X108549896Y-61968871D01*
X108549896Y-61967824D01*
X115477896Y-61967824D01*
X115569048Y-62188429D01*
X115737683Y-62357359D01*
X115958129Y-62448896D01*
X116196824Y-62449104D01*
X116417429Y-62357952D01*
X116586359Y-62189317D01*
X116677896Y-61968871D01*
X116677896Y-61967824D01*
X123605896Y-61967824D01*
X123697048Y-62188429D01*
X123865683Y-62357359D01*
X124086129Y-62448896D01*
X124324824Y-62449104D01*
X124545429Y-62357952D01*
X124714359Y-62189317D01*
X124805896Y-61968871D01*
X124806104Y-61730176D01*
X124714952Y-61509571D01*
X124546317Y-61340641D01*
X124325871Y-61249104D01*
X124087176Y-61248896D01*
X123866571Y-61340048D01*
X123697641Y-61508683D01*
X123606104Y-61729129D01*
X123605896Y-61967824D01*
X116677896Y-61967824D01*
X116678104Y-61730176D01*
X116586952Y-61509571D01*
X116418317Y-61340641D01*
X116197871Y-61249104D01*
X115959176Y-61248896D01*
X115738571Y-61340048D01*
X115569641Y-61508683D01*
X115478104Y-61729129D01*
X115477896Y-61967824D01*
X108549896Y-61967824D01*
X108550104Y-61730176D01*
X108458952Y-61509571D01*
X108290317Y-61340641D01*
X108069871Y-61249104D01*
X107831176Y-61248896D01*
X107610571Y-61340048D01*
X107441641Y-61508683D01*
X107350104Y-61729129D01*
X107349896Y-61967824D01*
X100421896Y-61967824D01*
X100422104Y-61730176D01*
X100330952Y-61509571D01*
X100162317Y-61340641D01*
X99941871Y-61249104D01*
X99703176Y-61248896D01*
X99482571Y-61340048D01*
X99313641Y-61508683D01*
X99222104Y-61729129D01*
X99221896Y-61967824D01*
X92293896Y-61967824D01*
X92294104Y-61730176D01*
X92202952Y-61509571D01*
X92034317Y-61340641D01*
X91813871Y-61249104D01*
X91575176Y-61248896D01*
X91354571Y-61340048D01*
X91185641Y-61508683D01*
X91094104Y-61729129D01*
X91093896Y-61967824D01*
X84165896Y-61967824D01*
X84166104Y-61730176D01*
X84074952Y-61509571D01*
X83906317Y-61340641D01*
X83685871Y-61249104D01*
X83447176Y-61248896D01*
X83226571Y-61340048D01*
X83057641Y-61508683D01*
X82966104Y-61729129D01*
X82965896Y-61967824D01*
X75910896Y-61967824D01*
X75911104Y-61730176D01*
X75819952Y-61509571D01*
X75651317Y-61340641D01*
X75430871Y-61249104D01*
X75192176Y-61248896D01*
X74971571Y-61340048D01*
X74802641Y-61508683D01*
X74711104Y-61729129D01*
X74710896Y-61967824D01*
X67782896Y-61967824D01*
X67783104Y-61730176D01*
X67691952Y-61509571D01*
X67523317Y-61340641D01*
X67302871Y-61249104D01*
X67064176Y-61248896D01*
X66843571Y-61340048D01*
X66674641Y-61508683D01*
X66583104Y-61729129D01*
X66582896Y-61967824D01*
X56636000Y-61967824D01*
X56636000Y-60960000D01*
X144863604Y-60960000D01*
X144952178Y-61405290D01*
X145204415Y-61782789D01*
X145581914Y-62035026D01*
X146027204Y-62123600D01*
X146072796Y-62123600D01*
X146518086Y-62035026D01*
X146895585Y-61782789D01*
X147147822Y-61405290D01*
X147236396Y-60960000D01*
X147403604Y-60960000D01*
X147492178Y-61405290D01*
X147744415Y-61782789D01*
X148121914Y-62035026D01*
X148567204Y-62123600D01*
X148612796Y-62123600D01*
X149058086Y-62035026D01*
X149435585Y-61782789D01*
X149687822Y-61405290D01*
X149776396Y-60960000D01*
X149687822Y-60514710D01*
X149435585Y-60137211D01*
X149058086Y-59884974D01*
X148612796Y-59796400D01*
X148567204Y-59796400D01*
X148121914Y-59884974D01*
X147744415Y-60137211D01*
X147492178Y-60514710D01*
X147403604Y-60960000D01*
X147236396Y-60960000D01*
X147147822Y-60514710D01*
X146895585Y-60137211D01*
X146518086Y-59884974D01*
X146072796Y-59796400D01*
X146027204Y-59796400D01*
X145581914Y-59884974D01*
X145204415Y-60137211D01*
X144952178Y-60514710D01*
X144863604Y-60960000D01*
X56636000Y-60960000D01*
X56636000Y-59935824D01*
X76742896Y-59935824D01*
X76834048Y-60156429D01*
X77002683Y-60325359D01*
X77223129Y-60416896D01*
X77461824Y-60417104D01*
X77682429Y-60325952D01*
X77851359Y-60157317D01*
X77942896Y-59936871D01*
X77942896Y-59935824D01*
X84870896Y-59935824D01*
X84962048Y-60156429D01*
X85130683Y-60325359D01*
X85351129Y-60416896D01*
X85589824Y-60417104D01*
X85810429Y-60325952D01*
X85979359Y-60157317D01*
X86070896Y-59936871D01*
X86070896Y-59935824D01*
X93125896Y-59935824D01*
X93217048Y-60156429D01*
X93385683Y-60325359D01*
X93606129Y-60416896D01*
X93844824Y-60417104D01*
X94065429Y-60325952D01*
X94234359Y-60157317D01*
X94325896Y-59936871D01*
X94325896Y-59935824D01*
X101253896Y-59935824D01*
X101345048Y-60156429D01*
X101513683Y-60325359D01*
X101734129Y-60416896D01*
X101972824Y-60417104D01*
X102193429Y-60325952D01*
X102362359Y-60157317D01*
X102453896Y-59936871D01*
X102453896Y-59935824D01*
X109381896Y-59935824D01*
X109473048Y-60156429D01*
X109641683Y-60325359D01*
X109862129Y-60416896D01*
X110100824Y-60417104D01*
X110321429Y-60325952D01*
X110490359Y-60157317D01*
X110581896Y-59936871D01*
X110581896Y-59935824D01*
X117509896Y-59935824D01*
X117601048Y-60156429D01*
X117769683Y-60325359D01*
X117990129Y-60416896D01*
X118228824Y-60417104D01*
X118449429Y-60325952D01*
X118618359Y-60157317D01*
X118709896Y-59936871D01*
X118709896Y-59935824D01*
X125637896Y-59935824D01*
X125729048Y-60156429D01*
X125897683Y-60325359D01*
X126118129Y-60416896D01*
X126356824Y-60417104D01*
X126577429Y-60325952D01*
X126746359Y-60157317D01*
X126837896Y-59936871D01*
X126837896Y-59935824D01*
X133765896Y-59935824D01*
X133857048Y-60156429D01*
X134025683Y-60325359D01*
X134246129Y-60416896D01*
X134484824Y-60417104D01*
X134705429Y-60325952D01*
X134874359Y-60157317D01*
X134965896Y-59936871D01*
X134966104Y-59698176D01*
X134874952Y-59477571D01*
X134706317Y-59308641D01*
X134485871Y-59217104D01*
X134247176Y-59216896D01*
X134026571Y-59308048D01*
X133857641Y-59476683D01*
X133766104Y-59697129D01*
X133765896Y-59935824D01*
X126837896Y-59935824D01*
X126838104Y-59698176D01*
X126746952Y-59477571D01*
X126578317Y-59308641D01*
X126357871Y-59217104D01*
X126119176Y-59216896D01*
X125898571Y-59308048D01*
X125729641Y-59476683D01*
X125638104Y-59697129D01*
X125637896Y-59935824D01*
X118709896Y-59935824D01*
X118710104Y-59698176D01*
X118618952Y-59477571D01*
X118450317Y-59308641D01*
X118229871Y-59217104D01*
X117991176Y-59216896D01*
X117770571Y-59308048D01*
X117601641Y-59476683D01*
X117510104Y-59697129D01*
X117509896Y-59935824D01*
X110581896Y-59935824D01*
X110582104Y-59698176D01*
X110490952Y-59477571D01*
X110322317Y-59308641D01*
X110101871Y-59217104D01*
X109863176Y-59216896D01*
X109642571Y-59308048D01*
X109473641Y-59476683D01*
X109382104Y-59697129D01*
X109381896Y-59935824D01*
X102453896Y-59935824D01*
X102454104Y-59698176D01*
X102362952Y-59477571D01*
X102194317Y-59308641D01*
X101973871Y-59217104D01*
X101735176Y-59216896D01*
X101514571Y-59308048D01*
X101345641Y-59476683D01*
X101254104Y-59697129D01*
X101253896Y-59935824D01*
X94325896Y-59935824D01*
X94326104Y-59698176D01*
X94234952Y-59477571D01*
X94066317Y-59308641D01*
X93845871Y-59217104D01*
X93607176Y-59216896D01*
X93386571Y-59308048D01*
X93217641Y-59476683D01*
X93126104Y-59697129D01*
X93125896Y-59935824D01*
X86070896Y-59935824D01*
X86071104Y-59698176D01*
X85979952Y-59477571D01*
X85811317Y-59308641D01*
X85590871Y-59217104D01*
X85352176Y-59216896D01*
X85131571Y-59308048D01*
X84962641Y-59476683D01*
X84871104Y-59697129D01*
X84870896Y-59935824D01*
X77942896Y-59935824D01*
X77943104Y-59698176D01*
X77851952Y-59477571D01*
X77683317Y-59308641D01*
X77462871Y-59217104D01*
X77224176Y-59216896D01*
X77003571Y-59308048D01*
X76834641Y-59476683D01*
X76743104Y-59697129D01*
X76742896Y-59935824D01*
X56636000Y-59935824D01*
X56636000Y-58420000D01*
X144863604Y-58420000D01*
X144952178Y-58865290D01*
X145204415Y-59242789D01*
X145581914Y-59495026D01*
X146027204Y-59583600D01*
X146072796Y-59583600D01*
X146518086Y-59495026D01*
X146895585Y-59242789D01*
X147147822Y-58865290D01*
X147236396Y-58420000D01*
X147403604Y-58420000D01*
X147492178Y-58865290D01*
X147744415Y-59242789D01*
X148121914Y-59495026D01*
X148567204Y-59583600D01*
X148612796Y-59583600D01*
X149058086Y-59495026D01*
X149435585Y-59242789D01*
X149687822Y-58865290D01*
X149776396Y-58420000D01*
X149687822Y-57974710D01*
X149435585Y-57597211D01*
X149058086Y-57344974D01*
X148612796Y-57256400D01*
X148567204Y-57256400D01*
X148121914Y-57344974D01*
X147744415Y-57597211D01*
X147492178Y-57974710D01*
X147403604Y-58420000D01*
X147236396Y-58420000D01*
X147147822Y-57974710D01*
X146895585Y-57597211D01*
X146518086Y-57344974D01*
X146072796Y-57256400D01*
X146027204Y-57256400D01*
X145581914Y-57344974D01*
X145204415Y-57597211D01*
X144952178Y-57974710D01*
X144863604Y-58420000D01*
X56636000Y-58420000D01*
X56636000Y-55880000D01*
X144863604Y-55880000D01*
X144952178Y-56325290D01*
X145204415Y-56702789D01*
X145581914Y-56955026D01*
X146027204Y-57043600D01*
X146072796Y-57043600D01*
X146518086Y-56955026D01*
X146895585Y-56702789D01*
X147147822Y-56325290D01*
X147236396Y-55880000D01*
X147403604Y-55880000D01*
X147492178Y-56325290D01*
X147744415Y-56702789D01*
X148121914Y-56955026D01*
X148567204Y-57043600D01*
X148612796Y-57043600D01*
X149058086Y-56955026D01*
X149435585Y-56702789D01*
X149687822Y-56325290D01*
X149776396Y-55880000D01*
X149687822Y-55434710D01*
X149435585Y-55057211D01*
X149058086Y-54804974D01*
X148612796Y-54716400D01*
X148567204Y-54716400D01*
X148121914Y-54804974D01*
X147744415Y-55057211D01*
X147492178Y-55434710D01*
X147403604Y-55880000D01*
X147236396Y-55880000D01*
X147147822Y-55434710D01*
X146895585Y-55057211D01*
X146518086Y-54804974D01*
X146072796Y-54716400D01*
X146027204Y-54716400D01*
X145581914Y-54804974D01*
X145204415Y-55057211D01*
X144952178Y-55434710D01*
X144863604Y-55880000D01*
X56636000Y-55880000D01*
X56636000Y-53340000D01*
X144863604Y-53340000D01*
X144952178Y-53785290D01*
X145204415Y-54162789D01*
X145581914Y-54415026D01*
X146027204Y-54503600D01*
X146072796Y-54503600D01*
X146518086Y-54415026D01*
X146895585Y-54162789D01*
X147147822Y-53785290D01*
X147236396Y-53340000D01*
X147403604Y-53340000D01*
X147492178Y-53785290D01*
X147744415Y-54162789D01*
X148121914Y-54415026D01*
X148567204Y-54503600D01*
X148612796Y-54503600D01*
X149058086Y-54415026D01*
X149435585Y-54162789D01*
X149687822Y-53785290D01*
X149776396Y-53340000D01*
X149687822Y-52894710D01*
X149435585Y-52517211D01*
X149058086Y-52264974D01*
X148612796Y-52176400D01*
X148567204Y-52176400D01*
X148121914Y-52264974D01*
X147744415Y-52517211D01*
X147492178Y-52894710D01*
X147403604Y-53340000D01*
X147236396Y-53340000D01*
X147147822Y-52894710D01*
X146895585Y-52517211D01*
X146518086Y-52264974D01*
X146072796Y-52176400D01*
X146027204Y-52176400D01*
X145581914Y-52264974D01*
X145204415Y-52517211D01*
X144952178Y-52894710D01*
X144863604Y-53340000D01*
X56636000Y-53340000D01*
X56636000Y-52442824D01*
X60232896Y-52442824D01*
X60324048Y-52663429D01*
X60492683Y-52832359D01*
X60713129Y-52923896D01*
X60951824Y-52924104D01*
X61172429Y-52832952D01*
X61341359Y-52664317D01*
X61432896Y-52443871D01*
X61433104Y-52205176D01*
X61373873Y-52061824D01*
X67852896Y-52061824D01*
X67944048Y-52282429D01*
X68112683Y-52451359D01*
X68333129Y-52542896D01*
X68571824Y-52543104D01*
X68792429Y-52451952D01*
X68961359Y-52283317D01*
X69052896Y-52062871D01*
X69052896Y-52061824D01*
X75980896Y-52061824D01*
X76072048Y-52282429D01*
X76240683Y-52451359D01*
X76461129Y-52542896D01*
X76699824Y-52543104D01*
X76920429Y-52451952D01*
X77089359Y-52283317D01*
X77180896Y-52062871D01*
X77180896Y-52061824D01*
X84235896Y-52061824D01*
X84327048Y-52282429D01*
X84495683Y-52451359D01*
X84716129Y-52542896D01*
X84954824Y-52543104D01*
X85175429Y-52451952D01*
X85344359Y-52283317D01*
X85435896Y-52062871D01*
X85435896Y-52061824D01*
X92363896Y-52061824D01*
X92455048Y-52282429D01*
X92623683Y-52451359D01*
X92844129Y-52542896D01*
X93082824Y-52543104D01*
X93303429Y-52451952D01*
X93472359Y-52283317D01*
X93563896Y-52062871D01*
X93563896Y-52061824D01*
X100491896Y-52061824D01*
X100583048Y-52282429D01*
X100751683Y-52451359D01*
X100972129Y-52542896D01*
X101210824Y-52543104D01*
X101431429Y-52451952D01*
X101600359Y-52283317D01*
X101691896Y-52062871D01*
X101691896Y-52061824D01*
X108619896Y-52061824D01*
X108711048Y-52282429D01*
X108879683Y-52451359D01*
X109100129Y-52542896D01*
X109338824Y-52543104D01*
X109559429Y-52451952D01*
X109728359Y-52283317D01*
X109819896Y-52062871D01*
X109819896Y-52061824D01*
X116747896Y-52061824D01*
X116839048Y-52282429D01*
X117007683Y-52451359D01*
X117228129Y-52542896D01*
X117466824Y-52543104D01*
X117687429Y-52451952D01*
X117856359Y-52283317D01*
X117947896Y-52062871D01*
X117947896Y-52061824D01*
X124875896Y-52061824D01*
X124967048Y-52282429D01*
X125135683Y-52451359D01*
X125356129Y-52542896D01*
X125594824Y-52543104D01*
X125815429Y-52451952D01*
X125984359Y-52283317D01*
X126075896Y-52062871D01*
X126076104Y-51824176D01*
X125984952Y-51603571D01*
X125816317Y-51434641D01*
X125595871Y-51343104D01*
X125357176Y-51342896D01*
X125136571Y-51434048D01*
X124967641Y-51602683D01*
X124876104Y-51823129D01*
X124875896Y-52061824D01*
X117947896Y-52061824D01*
X117948104Y-51824176D01*
X117856952Y-51603571D01*
X117688317Y-51434641D01*
X117467871Y-51343104D01*
X117229176Y-51342896D01*
X117008571Y-51434048D01*
X116839641Y-51602683D01*
X116748104Y-51823129D01*
X116747896Y-52061824D01*
X109819896Y-52061824D01*
X109820104Y-51824176D01*
X109728952Y-51603571D01*
X109560317Y-51434641D01*
X109339871Y-51343104D01*
X109101176Y-51342896D01*
X108880571Y-51434048D01*
X108711641Y-51602683D01*
X108620104Y-51823129D01*
X108619896Y-52061824D01*
X101691896Y-52061824D01*
X101692104Y-51824176D01*
X101600952Y-51603571D01*
X101432317Y-51434641D01*
X101211871Y-51343104D01*
X100973176Y-51342896D01*
X100752571Y-51434048D01*
X100583641Y-51602683D01*
X100492104Y-51823129D01*
X100491896Y-52061824D01*
X93563896Y-52061824D01*
X93564104Y-51824176D01*
X93472952Y-51603571D01*
X93304317Y-51434641D01*
X93083871Y-51343104D01*
X92845176Y-51342896D01*
X92624571Y-51434048D01*
X92455641Y-51602683D01*
X92364104Y-51823129D01*
X92363896Y-52061824D01*
X85435896Y-52061824D01*
X85436104Y-51824176D01*
X85344952Y-51603571D01*
X85176317Y-51434641D01*
X84955871Y-51343104D01*
X84717176Y-51342896D01*
X84496571Y-51434048D01*
X84327641Y-51602683D01*
X84236104Y-51823129D01*
X84235896Y-52061824D01*
X77180896Y-52061824D01*
X77181104Y-51824176D01*
X77089952Y-51603571D01*
X76921317Y-51434641D01*
X76700871Y-51343104D01*
X76462176Y-51342896D01*
X76241571Y-51434048D01*
X76072641Y-51602683D01*
X75981104Y-51823129D01*
X75980896Y-52061824D01*
X69052896Y-52061824D01*
X69053104Y-51824176D01*
X68961952Y-51603571D01*
X68793317Y-51434641D01*
X68572871Y-51343104D01*
X68334176Y-51342896D01*
X68113571Y-51434048D01*
X67944641Y-51602683D01*
X67853104Y-51823129D01*
X67852896Y-52061824D01*
X61373873Y-52061824D01*
X61341952Y-51984571D01*
X61173317Y-51815641D01*
X60952871Y-51724104D01*
X60714176Y-51723896D01*
X60493571Y-51815048D01*
X60324641Y-51983683D01*
X60233104Y-52204129D01*
X60232896Y-52442824D01*
X56636000Y-52442824D01*
X56636000Y-50800000D01*
X144863604Y-50800000D01*
X144952178Y-51245290D01*
X145204415Y-51622789D01*
X145581914Y-51875026D01*
X146027204Y-51963600D01*
X146072796Y-51963600D01*
X146518086Y-51875026D01*
X146895585Y-51622789D01*
X147147822Y-51245290D01*
X147236396Y-50800000D01*
X147403604Y-50800000D01*
X147492178Y-51245290D01*
X147744415Y-51622789D01*
X148121914Y-51875026D01*
X148567204Y-51963600D01*
X148612796Y-51963600D01*
X149058086Y-51875026D01*
X149435585Y-51622789D01*
X149687822Y-51245290D01*
X149776396Y-50800000D01*
X149687822Y-50354710D01*
X149435585Y-49977211D01*
X149058086Y-49724974D01*
X148612796Y-49636400D01*
X148567204Y-49636400D01*
X148121914Y-49724974D01*
X147744415Y-49977211D01*
X147492178Y-50354710D01*
X147403604Y-50800000D01*
X147236396Y-50800000D01*
X147147822Y-50354710D01*
X146895585Y-49977211D01*
X146518086Y-49724974D01*
X146072796Y-49636400D01*
X146027204Y-49636400D01*
X145581914Y-49724974D01*
X145204415Y-49977211D01*
X144952178Y-50354710D01*
X144863604Y-50800000D01*
X56636000Y-50800000D01*
X56636000Y-48378824D01*
X58454896Y-48378824D01*
X58546048Y-48599429D01*
X58714683Y-48768359D01*
X58935129Y-48859896D01*
X59173824Y-48860104D01*
X59394429Y-48768952D01*
X59563359Y-48600317D01*
X59654896Y-48379871D01*
X59655007Y-48251824D01*
X67471896Y-48251824D01*
X67563048Y-48472429D01*
X67731683Y-48641359D01*
X67952129Y-48732896D01*
X68190824Y-48733104D01*
X68411429Y-48641952D01*
X68580359Y-48473317D01*
X68619595Y-48378824D01*
X140242896Y-48378824D01*
X140334048Y-48599429D01*
X140502683Y-48768359D01*
X140723129Y-48859896D01*
X140961824Y-48860104D01*
X141182429Y-48768952D01*
X141351359Y-48600317D01*
X141442896Y-48379871D01*
X141443000Y-48260000D01*
X144863604Y-48260000D01*
X144952178Y-48705290D01*
X145204415Y-49082789D01*
X145581914Y-49335026D01*
X146027204Y-49423600D01*
X146072796Y-49423600D01*
X146518086Y-49335026D01*
X146895585Y-49082789D01*
X147147822Y-48705290D01*
X147236396Y-48260000D01*
X147403604Y-48260000D01*
X147492178Y-48705290D01*
X147744415Y-49082789D01*
X148121914Y-49335026D01*
X148567204Y-49423600D01*
X148612796Y-49423600D01*
X149058086Y-49335026D01*
X149435585Y-49082789D01*
X149687822Y-48705290D01*
X149776396Y-48260000D01*
X149687822Y-47814710D01*
X149435585Y-47437211D01*
X149058086Y-47184974D01*
X148612796Y-47096400D01*
X148567204Y-47096400D01*
X148121914Y-47184974D01*
X147744415Y-47437211D01*
X147492178Y-47814710D01*
X147403604Y-48260000D01*
X147236396Y-48260000D01*
X147147822Y-47814710D01*
X146895585Y-47437211D01*
X146518086Y-47184974D01*
X146072796Y-47096400D01*
X146027204Y-47096400D01*
X145581914Y-47184974D01*
X145204415Y-47437211D01*
X144952178Y-47814710D01*
X144863604Y-48260000D01*
X141443000Y-48260000D01*
X141443104Y-48141176D01*
X141351952Y-47920571D01*
X141183317Y-47751641D01*
X140962871Y-47660104D01*
X140724176Y-47659896D01*
X140503571Y-47751048D01*
X140334641Y-47919683D01*
X140243104Y-48140129D01*
X140242896Y-48378824D01*
X68619595Y-48378824D01*
X68671896Y-48252871D01*
X68672104Y-48014176D01*
X68580952Y-47793571D01*
X68412317Y-47624641D01*
X68191871Y-47533104D01*
X67953176Y-47532896D01*
X67732571Y-47624048D01*
X67563641Y-47792683D01*
X67472104Y-48013129D01*
X67471896Y-48251824D01*
X59655007Y-48251824D01*
X59655104Y-48141176D01*
X59563952Y-47920571D01*
X59395317Y-47751641D01*
X59174871Y-47660104D01*
X58936176Y-47659896D01*
X58715571Y-47751048D01*
X58546641Y-47919683D01*
X58455104Y-48140129D01*
X58454896Y-48378824D01*
X56636000Y-48378824D01*
X56636000Y-45838824D01*
X140877896Y-45838824D01*
X140969048Y-46059429D01*
X141137683Y-46228359D01*
X141358129Y-46319896D01*
X141596824Y-46320104D01*
X141817429Y-46228952D01*
X141986359Y-46060317D01*
X142077896Y-45839871D01*
X142078000Y-45720000D01*
X144863604Y-45720000D01*
X144952178Y-46165290D01*
X145204415Y-46542789D01*
X145581914Y-46795026D01*
X146027204Y-46883600D01*
X146072796Y-46883600D01*
X146518086Y-46795026D01*
X146895585Y-46542789D01*
X147147822Y-46165290D01*
X147236396Y-45720000D01*
X147403604Y-45720000D01*
X147492178Y-46165290D01*
X147744415Y-46542789D01*
X148121914Y-46795026D01*
X148567204Y-46883600D01*
X148612796Y-46883600D01*
X149058086Y-46795026D01*
X149435585Y-46542789D01*
X149687822Y-46165290D01*
X149776396Y-45720000D01*
X149687822Y-45274710D01*
X149435585Y-44897211D01*
X149058086Y-44644974D01*
X148612796Y-44556400D01*
X148567204Y-44556400D01*
X148121914Y-44644974D01*
X147744415Y-44897211D01*
X147492178Y-45274710D01*
X147403604Y-45720000D01*
X147236396Y-45720000D01*
X147147822Y-45274710D01*
X146895585Y-44897211D01*
X146518086Y-44644974D01*
X146072796Y-44556400D01*
X146027204Y-44556400D01*
X145581914Y-44644974D01*
X145204415Y-44897211D01*
X144952178Y-45274710D01*
X144863604Y-45720000D01*
X142078000Y-45720000D01*
X142078104Y-45601176D01*
X141986952Y-45380571D01*
X141818317Y-45211641D01*
X141597871Y-45120104D01*
X141359176Y-45119896D01*
X141138571Y-45211048D01*
X140969641Y-45379683D01*
X140878104Y-45600129D01*
X140877896Y-45838824D01*
X56636000Y-45838824D01*
X56636000Y-43425824D01*
X91220896Y-43425824D01*
X91312048Y-43646429D01*
X91480683Y-43815359D01*
X91701129Y-43906896D01*
X91939824Y-43907104D01*
X92160429Y-43815952D01*
X92329359Y-43647317D01*
X92420896Y-43426871D01*
X92420896Y-43425824D01*
X113191896Y-43425824D01*
X113283048Y-43646429D01*
X113451683Y-43815359D01*
X113672129Y-43906896D01*
X113910824Y-43907104D01*
X114131429Y-43815952D01*
X114300359Y-43647317D01*
X114391896Y-43426871D01*
X114392007Y-43298824D01*
X141512896Y-43298824D01*
X141604048Y-43519429D01*
X141772683Y-43688359D01*
X141993129Y-43779896D01*
X142231824Y-43780104D01*
X142452429Y-43688952D01*
X142621359Y-43520317D01*
X142712896Y-43299871D01*
X142713000Y-43180000D01*
X144863604Y-43180000D01*
X144952178Y-43625290D01*
X145204415Y-44002789D01*
X145581914Y-44255026D01*
X146027204Y-44343600D01*
X146072796Y-44343600D01*
X146518086Y-44255026D01*
X146895585Y-44002789D01*
X147147822Y-43625290D01*
X147236396Y-43180000D01*
X147403604Y-43180000D01*
X147492178Y-43625290D01*
X147744415Y-44002789D01*
X148121914Y-44255026D01*
X148567204Y-44343600D01*
X148612796Y-44343600D01*
X149058086Y-44255026D01*
X149435585Y-44002789D01*
X149687822Y-43625290D01*
X149776396Y-43180000D01*
X149687822Y-42734710D01*
X149435585Y-42357211D01*
X149058086Y-42104974D01*
X148612796Y-42016400D01*
X148567204Y-42016400D01*
X148121914Y-42104974D01*
X147744415Y-42357211D01*
X147492178Y-42734710D01*
X147403604Y-43180000D01*
X147236396Y-43180000D01*
X147147822Y-42734710D01*
X146895585Y-42357211D01*
X146518086Y-42104974D01*
X146072796Y-42016400D01*
X146027204Y-42016400D01*
X145581914Y-42104974D01*
X145204415Y-42357211D01*
X144952178Y-42734710D01*
X144863604Y-43180000D01*
X142713000Y-43180000D01*
X142713104Y-43061176D01*
X142621952Y-42840571D01*
X142453317Y-42671641D01*
X142232871Y-42580104D01*
X141994176Y-42579896D01*
X141773571Y-42671048D01*
X141604641Y-42839683D01*
X141513104Y-43060129D01*
X141512896Y-43298824D01*
X114392007Y-43298824D01*
X114392104Y-43188176D01*
X114300952Y-42967571D01*
X114132317Y-42798641D01*
X113911871Y-42707104D01*
X113673176Y-42706896D01*
X113452571Y-42798048D01*
X113283641Y-42966683D01*
X113192104Y-43187129D01*
X113191896Y-43425824D01*
X92420896Y-43425824D01*
X92421104Y-43188176D01*
X92329952Y-42967571D01*
X92161317Y-42798641D01*
X91940871Y-42707104D01*
X91702176Y-42706896D01*
X91481571Y-42798048D01*
X91312641Y-42966683D01*
X91221104Y-43187129D01*
X91220896Y-43425824D01*
X56636000Y-43425824D01*
X56636000Y-42663824D01*
X65820896Y-42663824D01*
X65912048Y-42884429D01*
X66080683Y-43053359D01*
X66301129Y-43144896D01*
X66539824Y-43145104D01*
X66760429Y-43053952D01*
X66929359Y-42885317D01*
X67020896Y-42664871D01*
X67021104Y-42426176D01*
X66929952Y-42205571D01*
X66761317Y-42036641D01*
X66540871Y-41945104D01*
X66302176Y-41944896D01*
X66081571Y-42036048D01*
X65912641Y-42204683D01*
X65821104Y-42425129D01*
X65820896Y-42663824D01*
X56636000Y-42663824D01*
X56636000Y-41774824D01*
X127542896Y-41774824D01*
X127634048Y-41995429D01*
X127802683Y-42164359D01*
X128023129Y-42255896D01*
X128261824Y-42256104D01*
X128482429Y-42164952D01*
X128651359Y-41996317D01*
X128742896Y-41775871D01*
X128743104Y-41537176D01*
X128651952Y-41316571D01*
X128483317Y-41147641D01*
X128262871Y-41056104D01*
X128024176Y-41055896D01*
X127803571Y-41147048D01*
X127634641Y-41315683D01*
X127543104Y-41536129D01*
X127542896Y-41774824D01*
X56636000Y-41774824D01*
X56636000Y-40640000D01*
X144863604Y-40640000D01*
X144952178Y-41085290D01*
X145204415Y-41462789D01*
X145581914Y-41715026D01*
X146027204Y-41803600D01*
X146072796Y-41803600D01*
X146518086Y-41715026D01*
X146895585Y-41462789D01*
X147147822Y-41085290D01*
X147236396Y-40640000D01*
X147403604Y-40640000D01*
X147492178Y-41085290D01*
X147744415Y-41462789D01*
X148121914Y-41715026D01*
X148567204Y-41803600D01*
X148612796Y-41803600D01*
X149058086Y-41715026D01*
X149435585Y-41462789D01*
X149687822Y-41085290D01*
X149776396Y-40640000D01*
X149687822Y-40194710D01*
X149435585Y-39817211D01*
X149058086Y-39564974D01*
X148612796Y-39476400D01*
X148567204Y-39476400D01*
X148121914Y-39564974D01*
X147744415Y-39817211D01*
X147492178Y-40194710D01*
X147403604Y-40640000D01*
X147236396Y-40640000D01*
X147147822Y-40194710D01*
X146895585Y-39817211D01*
X146518086Y-39564974D01*
X146072796Y-39476400D01*
X146027204Y-39476400D01*
X145581914Y-39564974D01*
X145204415Y-39817211D01*
X144952178Y-40194710D01*
X144863604Y-40640000D01*
X56636000Y-40640000D01*
X56636000Y-39615824D01*
X136686896Y-39615824D01*
X136778048Y-39836429D01*
X136946683Y-40005359D01*
X137167129Y-40096896D01*
X137405824Y-40097104D01*
X137626429Y-40005952D01*
X137795359Y-39837317D01*
X137886896Y-39616871D01*
X137887104Y-39378176D01*
X137795952Y-39157571D01*
X137627317Y-38988641D01*
X137406871Y-38897104D01*
X137168176Y-38896896D01*
X136947571Y-38988048D01*
X136778641Y-39156683D01*
X136687104Y-39377129D01*
X136686896Y-39615824D01*
X56636000Y-39615824D01*
X56636000Y-38472824D01*
X83346896Y-38472824D01*
X83438048Y-38693429D01*
X83606683Y-38862359D01*
X83827129Y-38953896D01*
X84065824Y-38954104D01*
X84286429Y-38862952D01*
X84455359Y-38694317D01*
X84546896Y-38473871D01*
X84546896Y-38472824D01*
X105190896Y-38472824D01*
X105282048Y-38693429D01*
X105450683Y-38862359D01*
X105671129Y-38953896D01*
X105909824Y-38954104D01*
X106130429Y-38862952D01*
X106299359Y-38694317D01*
X106390896Y-38473871D01*
X106391007Y-38345824D01*
X130336896Y-38345824D01*
X130428048Y-38566429D01*
X130596683Y-38735359D01*
X130817129Y-38826896D01*
X131055824Y-38827104D01*
X131276429Y-38735952D01*
X131445359Y-38567317D01*
X131536896Y-38346871D01*
X131537104Y-38108176D01*
X131533726Y-38100000D01*
X144863604Y-38100000D01*
X144952178Y-38545290D01*
X145204415Y-38922789D01*
X145581914Y-39175026D01*
X146027204Y-39263600D01*
X146072796Y-39263600D01*
X146518086Y-39175026D01*
X146895585Y-38922789D01*
X147147822Y-38545290D01*
X147236396Y-38100000D01*
X147403604Y-38100000D01*
X147492178Y-38545290D01*
X147744415Y-38922789D01*
X148121914Y-39175026D01*
X148567204Y-39263600D01*
X148612796Y-39263600D01*
X149058086Y-39175026D01*
X149435585Y-38922789D01*
X149687822Y-38545290D01*
X149776396Y-38100000D01*
X149687822Y-37654710D01*
X149435585Y-37277211D01*
X149058086Y-37024974D01*
X148612796Y-36936400D01*
X148567204Y-36936400D01*
X148121914Y-37024974D01*
X147744415Y-37277211D01*
X147492178Y-37654710D01*
X147403604Y-38100000D01*
X147236396Y-38100000D01*
X147147822Y-37654710D01*
X146895585Y-37277211D01*
X146518086Y-37024974D01*
X146072796Y-36936400D01*
X146027204Y-36936400D01*
X145581914Y-37024974D01*
X145204415Y-37277211D01*
X144952178Y-37654710D01*
X144863604Y-38100000D01*
X131533726Y-38100000D01*
X131445952Y-37887571D01*
X131277317Y-37718641D01*
X131056871Y-37627104D01*
X130818176Y-37626896D01*
X130597571Y-37718048D01*
X130428641Y-37886683D01*
X130337104Y-38107129D01*
X130336896Y-38345824D01*
X106391007Y-38345824D01*
X106391104Y-38235176D01*
X106299952Y-38014571D01*
X106131317Y-37845641D01*
X105910871Y-37754104D01*
X105672176Y-37753896D01*
X105451571Y-37845048D01*
X105282641Y-38013683D01*
X105191104Y-38234129D01*
X105190896Y-38472824D01*
X84546896Y-38472824D01*
X84547104Y-38235176D01*
X84455952Y-38014571D01*
X84287317Y-37845641D01*
X84066871Y-37754104D01*
X83828176Y-37753896D01*
X83607571Y-37845048D01*
X83438641Y-38013683D01*
X83347104Y-38234129D01*
X83346896Y-38472824D01*
X56636000Y-38472824D01*
X56636000Y-37075824D01*
X141512896Y-37075824D01*
X141604048Y-37296429D01*
X141772683Y-37465359D01*
X141993129Y-37556896D01*
X142231824Y-37557104D01*
X142452429Y-37465952D01*
X142621359Y-37297317D01*
X142712896Y-37076871D01*
X142713104Y-36838176D01*
X142621952Y-36617571D01*
X142453317Y-36448641D01*
X142232871Y-36357104D01*
X141994176Y-36356896D01*
X141773571Y-36448048D01*
X141604641Y-36616683D01*
X141513104Y-36837129D01*
X141512896Y-37075824D01*
X56636000Y-37075824D01*
X56636000Y-35805824D01*
X58327896Y-35805824D01*
X58419048Y-36026429D01*
X58587683Y-36195359D01*
X58808129Y-36286896D01*
X59046824Y-36287104D01*
X59267429Y-36195952D01*
X59436359Y-36027317D01*
X59527896Y-35806871D01*
X59528104Y-35568176D01*
X59436952Y-35347571D01*
X59268317Y-35178641D01*
X59249492Y-35170824D01*
X88426896Y-35170824D01*
X88518048Y-35391429D01*
X88686683Y-35560359D01*
X88907129Y-35651896D01*
X89145824Y-35652104D01*
X89366429Y-35560952D01*
X89367382Y-35560000D01*
X144863604Y-35560000D01*
X144952178Y-36005290D01*
X145204415Y-36382789D01*
X145581914Y-36635026D01*
X146027204Y-36723600D01*
X146072796Y-36723600D01*
X146518086Y-36635026D01*
X146895585Y-36382789D01*
X147147822Y-36005290D01*
X147236396Y-35560000D01*
X147403604Y-35560000D01*
X147492178Y-36005290D01*
X147744415Y-36382789D01*
X148121914Y-36635026D01*
X148567204Y-36723600D01*
X148612796Y-36723600D01*
X149058086Y-36635026D01*
X149435585Y-36382789D01*
X149687822Y-36005290D01*
X149776396Y-35560000D01*
X149687822Y-35114710D01*
X149435585Y-34737211D01*
X149058086Y-34484974D01*
X148612796Y-34396400D01*
X148567204Y-34396400D01*
X148121914Y-34484974D01*
X147744415Y-34737211D01*
X147492178Y-35114710D01*
X147403604Y-35560000D01*
X147236396Y-35560000D01*
X147147822Y-35114710D01*
X146895585Y-34737211D01*
X146518086Y-34484974D01*
X146072796Y-34396400D01*
X146027204Y-34396400D01*
X145581914Y-34484974D01*
X145204415Y-34737211D01*
X144952178Y-35114710D01*
X144863604Y-35560000D01*
X89367382Y-35560000D01*
X89535359Y-35392317D01*
X89626896Y-35171871D01*
X89627104Y-34933176D01*
X89535952Y-34712571D01*
X89367317Y-34543641D01*
X89348492Y-34535824D01*
X140877896Y-34535824D01*
X140969048Y-34756429D01*
X141137683Y-34925359D01*
X141358129Y-35016896D01*
X141596824Y-35017104D01*
X141817429Y-34925952D01*
X141986359Y-34757317D01*
X142077896Y-34536871D01*
X142078104Y-34298176D01*
X141986952Y-34077571D01*
X141818317Y-33908641D01*
X141597871Y-33817104D01*
X141359176Y-33816896D01*
X141138571Y-33908048D01*
X140969641Y-34076683D01*
X140878104Y-34297129D01*
X140877896Y-34535824D01*
X89348492Y-34535824D01*
X89146871Y-34452104D01*
X88908176Y-34451896D01*
X88687571Y-34543048D01*
X88518641Y-34711683D01*
X88427104Y-34932129D01*
X88426896Y-35170824D01*
X59249492Y-35170824D01*
X59047871Y-35087104D01*
X58809176Y-35086896D01*
X58588571Y-35178048D01*
X58419641Y-35346683D01*
X58328104Y-35567129D01*
X58327896Y-35805824D01*
X56636000Y-35805824D01*
X56636000Y-33265824D01*
X58327896Y-33265824D01*
X58419048Y-33486429D01*
X58587683Y-33655359D01*
X58808129Y-33746896D01*
X59046824Y-33747104D01*
X59267429Y-33655952D01*
X59436359Y-33487317D01*
X59527896Y-33266871D01*
X59528104Y-33028176D01*
X59524726Y-33020000D01*
X144863604Y-33020000D01*
X144952178Y-33465290D01*
X145204415Y-33842789D01*
X145581914Y-34095026D01*
X146027204Y-34183600D01*
X146072796Y-34183600D01*
X146518086Y-34095026D01*
X146895585Y-33842789D01*
X147147822Y-33465290D01*
X147236396Y-33020000D01*
X147403604Y-33020000D01*
X147492178Y-33465290D01*
X147744415Y-33842789D01*
X148121914Y-34095026D01*
X148567204Y-34183600D01*
X148612796Y-34183600D01*
X149058086Y-34095026D01*
X149435585Y-33842789D01*
X149687822Y-33465290D01*
X149776396Y-33020000D01*
X149687822Y-32574710D01*
X149435585Y-32197211D01*
X149058086Y-31944974D01*
X148612796Y-31856400D01*
X148567204Y-31856400D01*
X148121914Y-31944974D01*
X147744415Y-32197211D01*
X147492178Y-32574710D01*
X147403604Y-33020000D01*
X147236396Y-33020000D01*
X147147822Y-32574710D01*
X146895585Y-32197211D01*
X146518086Y-31944974D01*
X146072796Y-31856400D01*
X146027204Y-31856400D01*
X145581914Y-31944974D01*
X145204415Y-32197211D01*
X144952178Y-32574710D01*
X144863604Y-33020000D01*
X59524726Y-33020000D01*
X59436952Y-32807571D01*
X59268317Y-32638641D01*
X59047871Y-32547104D01*
X58809176Y-32546896D01*
X58588571Y-32638048D01*
X58419641Y-32806683D01*
X58328104Y-33027129D01*
X58327896Y-33265824D01*
X56636000Y-33265824D01*
X56636000Y-31995824D01*
X140242896Y-31995824D01*
X140334048Y-32216429D01*
X140502683Y-32385359D01*
X140723129Y-32476896D01*
X140961824Y-32477104D01*
X141182429Y-32385952D01*
X141351359Y-32217317D01*
X141442896Y-31996871D01*
X141443104Y-31758176D01*
X141351952Y-31537571D01*
X141183317Y-31368641D01*
X140962871Y-31277104D01*
X140724176Y-31276896D01*
X140503571Y-31368048D01*
X140334641Y-31536683D01*
X140243104Y-31757129D01*
X140242896Y-31995824D01*
X56636000Y-31995824D01*
X56636000Y-30725824D01*
X58581896Y-30725824D01*
X58673048Y-30946429D01*
X58841683Y-31115359D01*
X59062129Y-31206896D01*
X59300824Y-31207104D01*
X59521429Y-31115952D01*
X59690359Y-30947317D01*
X59781896Y-30726871D01*
X59782104Y-30488176D01*
X59778726Y-30480000D01*
X144863604Y-30480000D01*
X144952178Y-30925290D01*
X145204415Y-31302789D01*
X145581914Y-31555026D01*
X146027204Y-31643600D01*
X146072796Y-31643600D01*
X146518086Y-31555026D01*
X146895585Y-31302789D01*
X147147822Y-30925290D01*
X147236396Y-30480000D01*
X147403604Y-30480000D01*
X147492178Y-30925290D01*
X147744415Y-31302789D01*
X148121914Y-31555026D01*
X148567204Y-31643600D01*
X148612796Y-31643600D01*
X149058086Y-31555026D01*
X149435585Y-31302789D01*
X149687822Y-30925290D01*
X149776396Y-30480000D01*
X149687822Y-30034710D01*
X149435585Y-29657211D01*
X149058086Y-29404974D01*
X148612796Y-29316400D01*
X148567204Y-29316400D01*
X148121914Y-29404974D01*
X147744415Y-29657211D01*
X147492178Y-30034710D01*
X147403604Y-30480000D01*
X147236396Y-30480000D01*
X147147822Y-30034710D01*
X146895585Y-29657211D01*
X146518086Y-29404974D01*
X146072796Y-29316400D01*
X146027204Y-29316400D01*
X145581914Y-29404974D01*
X145204415Y-29657211D01*
X144952178Y-30034710D01*
X144863604Y-30480000D01*
X59778726Y-30480000D01*
X59690952Y-30267571D01*
X59522317Y-30098641D01*
X59301871Y-30007104D01*
X59063176Y-30006896D01*
X58842571Y-30098048D01*
X58673641Y-30266683D01*
X58582104Y-30487129D01*
X58581896Y-30725824D01*
X56636000Y-30725824D01*
X56636000Y-29455824D01*
X69376896Y-29455824D01*
X69468048Y-29676429D01*
X69636683Y-29845359D01*
X69857129Y-29936896D01*
X70095824Y-29937104D01*
X70316429Y-29845952D01*
X70485359Y-29677317D01*
X70576896Y-29456871D01*
X70577104Y-29218176D01*
X70485952Y-28997571D01*
X70317317Y-28828641D01*
X70096871Y-28737104D01*
X69858176Y-28736896D01*
X69637571Y-28828048D01*
X69468641Y-28996683D01*
X69377104Y-29217129D01*
X69376896Y-29455824D01*
X56636000Y-29455824D01*
X56636000Y-28058824D01*
X59089896Y-28058824D01*
X59181048Y-28279429D01*
X59349683Y-28448359D01*
X59570129Y-28539896D01*
X59808824Y-28540104D01*
X60029429Y-28448952D01*
X60198359Y-28280317D01*
X60237595Y-28185824D01*
X63153896Y-28185824D01*
X63245048Y-28406429D01*
X63413683Y-28575359D01*
X63634129Y-28666896D01*
X63872824Y-28667104D01*
X64093429Y-28575952D01*
X64262359Y-28407317D01*
X64353896Y-28186871D01*
X64354104Y-27948176D01*
X64350726Y-27940000D01*
X144863604Y-27940000D01*
X144952178Y-28385290D01*
X145204415Y-28762789D01*
X145581914Y-29015026D01*
X146027204Y-29103600D01*
X146072796Y-29103600D01*
X146518086Y-29015026D01*
X146895585Y-28762789D01*
X147147822Y-28385290D01*
X147236396Y-27940000D01*
X147403604Y-27940000D01*
X147492178Y-28385290D01*
X147744415Y-28762789D01*
X148121914Y-29015026D01*
X148567204Y-29103600D01*
X148612796Y-29103600D01*
X149058086Y-29015026D01*
X149435585Y-28762789D01*
X149687822Y-28385290D01*
X149776396Y-27940000D01*
X149687822Y-27494710D01*
X149435585Y-27117211D01*
X149058086Y-26864974D01*
X148612796Y-26776400D01*
X148567204Y-26776400D01*
X148121914Y-26864974D01*
X147744415Y-27117211D01*
X147492178Y-27494710D01*
X147403604Y-27940000D01*
X147236396Y-27940000D01*
X147147822Y-27494710D01*
X146895585Y-27117211D01*
X146518086Y-26864974D01*
X146072796Y-26776400D01*
X146027204Y-26776400D01*
X145581914Y-26864974D01*
X145204415Y-27117211D01*
X144952178Y-27494710D01*
X144863604Y-27940000D01*
X64350726Y-27940000D01*
X64262952Y-27727571D01*
X64094317Y-27558641D01*
X63873871Y-27467104D01*
X63635176Y-27466896D01*
X63414571Y-27558048D01*
X63245641Y-27726683D01*
X63154104Y-27947129D01*
X63153896Y-28185824D01*
X60237595Y-28185824D01*
X60289896Y-28059871D01*
X60290104Y-27821176D01*
X60198952Y-27600571D01*
X60030317Y-27431641D01*
X59867420Y-27364000D01*
X77536000Y-27364000D01*
X77536000Y-27648674D01*
X77581672Y-27758937D01*
X77666064Y-27843328D01*
X77776327Y-27889000D01*
X78361000Y-27889000D01*
X78436000Y-27814000D01*
X78436000Y-27289000D01*
X78536000Y-27289000D01*
X78536000Y-27814000D01*
X78611000Y-27889000D01*
X79195673Y-27889000D01*
X79305936Y-27843328D01*
X79390328Y-27758937D01*
X79436000Y-27648674D01*
X79436000Y-27364000D01*
X79361000Y-27289000D01*
X78536000Y-27289000D01*
X78436000Y-27289000D01*
X77611000Y-27289000D01*
X77536000Y-27364000D01*
X59867420Y-27364000D01*
X59809871Y-27340104D01*
X59571176Y-27339896D01*
X59350571Y-27431048D01*
X59181641Y-27599683D01*
X59090104Y-27820129D01*
X59089896Y-28058824D01*
X56636000Y-28058824D01*
X56636000Y-26829326D01*
X77536000Y-26829326D01*
X77536000Y-27114000D01*
X77611000Y-27189000D01*
X78436000Y-27189000D01*
X78436000Y-26664000D01*
X78536000Y-26664000D01*
X78536000Y-27189000D01*
X79361000Y-27189000D01*
X79436000Y-27114000D01*
X79436000Y-26829326D01*
X79390328Y-26719063D01*
X79305936Y-26634672D01*
X79195673Y-26589000D01*
X78611000Y-26589000D01*
X78536000Y-26664000D01*
X78436000Y-26664000D01*
X78361000Y-26589000D01*
X77776327Y-26589000D01*
X77666064Y-26634672D01*
X77581672Y-26719063D01*
X77536000Y-26829326D01*
X56636000Y-26829326D01*
X56636000Y-21844000D01*
X69696523Y-21844000D01*
X69696523Y-23876000D01*
X69717442Y-23987173D01*
X69783145Y-24089279D01*
X69883397Y-24157778D01*
X70002400Y-24181877D01*
X71489650Y-24181877D01*
X71373641Y-24297683D01*
X71282104Y-24518129D01*
X71281896Y-24756824D01*
X71373048Y-24977429D01*
X71541683Y-25146359D01*
X71762129Y-25237896D01*
X72000824Y-25238104D01*
X72221429Y-25146952D01*
X72390359Y-24978317D01*
X72481896Y-24757871D01*
X72482104Y-24519176D01*
X72390952Y-24298571D01*
X72222317Y-24129641D01*
X72001871Y-24038104D01*
X71981940Y-24038087D01*
X72011378Y-23995003D01*
X72035477Y-23876000D01*
X72035477Y-22681818D01*
X72242400Y-22681818D01*
X72242400Y-23038182D01*
X72330974Y-23483472D01*
X72583211Y-23860971D01*
X72960710Y-24113208D01*
X73406000Y-24201782D01*
X73851290Y-24113208D01*
X74228789Y-23860971D01*
X74481026Y-23483472D01*
X74569600Y-23038182D01*
X74569600Y-22681818D01*
X74782400Y-22681818D01*
X74782400Y-23038182D01*
X74870974Y-23483472D01*
X75123211Y-23860971D01*
X75500710Y-24113208D01*
X75946000Y-24201782D01*
X76391290Y-24113208D01*
X76768789Y-23860971D01*
X77021026Y-23483472D01*
X77109600Y-23038182D01*
X77109600Y-22681818D01*
X77322400Y-22681818D01*
X77322400Y-23038182D01*
X77410974Y-23483472D01*
X77663211Y-23860971D01*
X78040710Y-24113208D01*
X78061000Y-24117244D01*
X78061000Y-24683123D01*
X77836000Y-24683123D01*
X77724827Y-24704042D01*
X77622721Y-24769745D01*
X77554222Y-24869997D01*
X77530123Y-24989000D01*
X77530123Y-25689000D01*
X77551042Y-25800173D01*
X77616745Y-25902279D01*
X77716997Y-25970778D01*
X77836000Y-25994877D01*
X79136000Y-25994877D01*
X79247173Y-25973958D01*
X79349279Y-25908255D01*
X79417778Y-25808003D01*
X79441877Y-25689000D01*
X79441877Y-25400000D01*
X144863604Y-25400000D01*
X144952178Y-25845290D01*
X145204415Y-26222789D01*
X145581914Y-26475026D01*
X146027204Y-26563600D01*
X146072796Y-26563600D01*
X146518086Y-26475026D01*
X146895585Y-26222789D01*
X147147822Y-25845290D01*
X147236396Y-25400000D01*
X147403604Y-25400000D01*
X147492178Y-25845290D01*
X147744415Y-26222789D01*
X148121914Y-26475026D01*
X148567204Y-26563600D01*
X148612796Y-26563600D01*
X149058086Y-26475026D01*
X149435585Y-26222789D01*
X149687822Y-25845290D01*
X149776396Y-25400000D01*
X149687822Y-24954710D01*
X149435585Y-24577211D01*
X149058086Y-24324974D01*
X148612796Y-24236400D01*
X148567204Y-24236400D01*
X148121914Y-24324974D01*
X147744415Y-24577211D01*
X147492178Y-24954710D01*
X147403604Y-25400000D01*
X147236396Y-25400000D01*
X147147822Y-24954710D01*
X146895585Y-24577211D01*
X146518086Y-24324974D01*
X146072796Y-24236400D01*
X146027204Y-24236400D01*
X145581914Y-24324974D01*
X145204415Y-24577211D01*
X144952178Y-24954710D01*
X144863604Y-25400000D01*
X79441877Y-25400000D01*
X79441877Y-24989000D01*
X79420958Y-24877827D01*
X79355255Y-24775721D01*
X79255003Y-24707222D01*
X79136000Y-24683123D01*
X78911000Y-24683123D01*
X78911000Y-24117244D01*
X78931290Y-24113208D01*
X79308789Y-23860971D01*
X79561026Y-23483472D01*
X79649600Y-23038182D01*
X79649600Y-22681818D01*
X79862400Y-22681818D01*
X79862400Y-23038182D01*
X79950974Y-23483472D01*
X80203211Y-23860971D01*
X80580710Y-24113208D01*
X81026000Y-24201782D01*
X81471290Y-24113208D01*
X81848789Y-23860971D01*
X82101026Y-23483472D01*
X82189600Y-23038182D01*
X82189600Y-22681818D01*
X82402400Y-22681818D01*
X82402400Y-23038182D01*
X82490974Y-23483472D01*
X82743211Y-23860971D01*
X83120710Y-24113208D01*
X83566000Y-24201782D01*
X84011290Y-24113208D01*
X84388789Y-23860971D01*
X84641026Y-23483472D01*
X84729600Y-23038182D01*
X84729600Y-22681818D01*
X84942400Y-22681818D01*
X84942400Y-23038182D01*
X85030974Y-23483472D01*
X85283211Y-23860971D01*
X85660710Y-24113208D01*
X86106000Y-24201782D01*
X86551290Y-24113208D01*
X86928789Y-23860971D01*
X87181026Y-23483472D01*
X87269600Y-23038182D01*
X87269600Y-22681818D01*
X87482400Y-22681818D01*
X87482400Y-23038182D01*
X87570974Y-23483472D01*
X87823211Y-23860971D01*
X88200710Y-24113208D01*
X88646000Y-24201782D01*
X89091290Y-24113208D01*
X89468789Y-23860971D01*
X89721026Y-23483472D01*
X89809600Y-23038182D01*
X89809600Y-22681818D01*
X90022400Y-22681818D01*
X90022400Y-23038182D01*
X90110974Y-23483472D01*
X90363211Y-23860971D01*
X90740710Y-24113208D01*
X91186000Y-24201782D01*
X91631290Y-24113208D01*
X92008789Y-23860971D01*
X92261026Y-23483472D01*
X92349600Y-23038182D01*
X92349600Y-22681818D01*
X92562400Y-22681818D01*
X92562400Y-23038182D01*
X92650974Y-23483472D01*
X92903211Y-23860971D01*
X93280710Y-24113208D01*
X93726000Y-24201782D01*
X94171290Y-24113208D01*
X94548789Y-23860971D01*
X94801026Y-23483472D01*
X94889600Y-23038182D01*
X94889600Y-22681818D01*
X94801026Y-22236528D01*
X94548789Y-21859029D01*
X94526297Y-21844000D01*
X96620523Y-21844000D01*
X96620523Y-23876000D01*
X96641442Y-23987173D01*
X96707145Y-24089279D01*
X96807397Y-24157778D01*
X96926400Y-24181877D01*
X98653600Y-24181877D01*
X98764773Y-24160958D01*
X98866879Y-24095255D01*
X98935378Y-23995003D01*
X98959477Y-23876000D01*
X98959477Y-22681818D01*
X99166400Y-22681818D01*
X99166400Y-23038182D01*
X99254974Y-23483472D01*
X99507211Y-23860971D01*
X99884710Y-24113208D01*
X100330000Y-24201782D01*
X100775290Y-24113208D01*
X101152789Y-23860971D01*
X101405026Y-23483472D01*
X101493600Y-23038182D01*
X101493600Y-22681818D01*
X101706400Y-22681818D01*
X101706400Y-23038182D01*
X101794974Y-23483472D01*
X102047211Y-23860971D01*
X102424710Y-24113208D01*
X102870000Y-24201782D01*
X103315290Y-24113208D01*
X103692789Y-23860971D01*
X103945026Y-23483472D01*
X104033600Y-23038182D01*
X104033600Y-22681818D01*
X104246400Y-22681818D01*
X104246400Y-23038182D01*
X104334974Y-23483472D01*
X104587211Y-23860971D01*
X104964710Y-24113208D01*
X105410000Y-24201782D01*
X105855290Y-24113208D01*
X106232789Y-23860971D01*
X106485026Y-23483472D01*
X106573600Y-23038182D01*
X106573600Y-22681818D01*
X106786400Y-22681818D01*
X106786400Y-23038182D01*
X106874974Y-23483472D01*
X107127211Y-23860971D01*
X107504710Y-24113208D01*
X107950000Y-24201782D01*
X108395290Y-24113208D01*
X108772789Y-23860971D01*
X109025026Y-23483472D01*
X109113600Y-23038182D01*
X109113600Y-22681818D01*
X109326400Y-22681818D01*
X109326400Y-23038182D01*
X109414974Y-23483472D01*
X109667211Y-23860971D01*
X110044710Y-24113208D01*
X110490000Y-24201782D01*
X110935290Y-24113208D01*
X111312789Y-23860971D01*
X111565026Y-23483472D01*
X111653600Y-23038182D01*
X111653600Y-22681818D01*
X111866400Y-22681818D01*
X111866400Y-23038182D01*
X111954974Y-23483472D01*
X112207211Y-23860971D01*
X112584710Y-24113208D01*
X113030000Y-24201782D01*
X113475290Y-24113208D01*
X113852789Y-23860971D01*
X114105026Y-23483472D01*
X114193600Y-23038182D01*
X114193600Y-22681818D01*
X114406400Y-22681818D01*
X114406400Y-23038182D01*
X114494974Y-23483472D01*
X114747211Y-23860971D01*
X115124710Y-24113208D01*
X115570000Y-24201782D01*
X116015290Y-24113208D01*
X116392789Y-23860971D01*
X116645026Y-23483472D01*
X116733600Y-23038182D01*
X116733600Y-22681818D01*
X116645026Y-22236528D01*
X116392789Y-21859029D01*
X116370297Y-21844000D01*
X119480523Y-21844000D01*
X119480523Y-23876000D01*
X119501442Y-23987173D01*
X119567145Y-24089279D01*
X119667397Y-24157778D01*
X119786400Y-24181877D01*
X121513600Y-24181877D01*
X121624773Y-24160958D01*
X121726879Y-24095255D01*
X121795378Y-23995003D01*
X121819477Y-23876000D01*
X121819477Y-22681818D01*
X122026400Y-22681818D01*
X122026400Y-23038182D01*
X122114974Y-23483472D01*
X122367211Y-23860971D01*
X122744710Y-24113208D01*
X123190000Y-24201782D01*
X123635290Y-24113208D01*
X124012789Y-23860971D01*
X124265026Y-23483472D01*
X124353600Y-23038182D01*
X124353600Y-22681818D01*
X124566400Y-22681818D01*
X124566400Y-23038182D01*
X124654974Y-23483472D01*
X124907211Y-23860971D01*
X125284710Y-24113208D01*
X125730000Y-24201782D01*
X126175290Y-24113208D01*
X126552789Y-23860971D01*
X126805026Y-23483472D01*
X126893600Y-23038182D01*
X126893600Y-22681818D01*
X127106400Y-22681818D01*
X127106400Y-23038182D01*
X127194974Y-23483472D01*
X127447211Y-23860971D01*
X127824710Y-24113208D01*
X128270000Y-24201782D01*
X128715290Y-24113208D01*
X129092789Y-23860971D01*
X129345026Y-23483472D01*
X129433600Y-23038182D01*
X129433600Y-22681818D01*
X129646400Y-22681818D01*
X129646400Y-23038182D01*
X129734974Y-23483472D01*
X129987211Y-23860971D01*
X130364710Y-24113208D01*
X130810000Y-24201782D01*
X131255290Y-24113208D01*
X131632789Y-23860971D01*
X131885026Y-23483472D01*
X131973600Y-23038182D01*
X131973600Y-22681818D01*
X132186400Y-22681818D01*
X132186400Y-23038182D01*
X132274974Y-23483472D01*
X132527211Y-23860971D01*
X132904710Y-24113208D01*
X133350000Y-24201782D01*
X133795290Y-24113208D01*
X134172789Y-23860971D01*
X134425026Y-23483472D01*
X134513600Y-23038182D01*
X134513600Y-22681818D01*
X134726400Y-22681818D01*
X134726400Y-23038182D01*
X134814974Y-23483472D01*
X135067211Y-23860971D01*
X135444710Y-24113208D01*
X135890000Y-24201782D01*
X136335290Y-24113208D01*
X136712789Y-23860971D01*
X136965026Y-23483472D01*
X137053600Y-23038182D01*
X137053600Y-22681818D01*
X137266400Y-22681818D01*
X137266400Y-23038182D01*
X137354974Y-23483472D01*
X137607211Y-23860971D01*
X137984710Y-24113208D01*
X138430000Y-24201782D01*
X138875290Y-24113208D01*
X139252789Y-23860971D01*
X139505026Y-23483472D01*
X139593600Y-23038182D01*
X139593600Y-22681818D01*
X139505026Y-22236528D01*
X139344578Y-21996400D01*
X144880523Y-21996400D01*
X144880523Y-23723600D01*
X144901442Y-23834773D01*
X144967145Y-23936879D01*
X145067397Y-24005378D01*
X145186400Y-24029477D01*
X146913600Y-24029477D01*
X147024773Y-24008558D01*
X147126879Y-23942855D01*
X147195378Y-23842603D01*
X147219477Y-23723600D01*
X147219477Y-22860000D01*
X147403604Y-22860000D01*
X147492178Y-23305290D01*
X147744415Y-23682789D01*
X148121914Y-23935026D01*
X148567204Y-24023600D01*
X148612796Y-24023600D01*
X149058086Y-23935026D01*
X149435585Y-23682789D01*
X149687822Y-23305290D01*
X149776396Y-22860000D01*
X149687822Y-22414710D01*
X149435585Y-22037211D01*
X149058086Y-21784974D01*
X148612796Y-21696400D01*
X148567204Y-21696400D01*
X148121914Y-21784974D01*
X147744415Y-22037211D01*
X147492178Y-22414710D01*
X147403604Y-22860000D01*
X147219477Y-22860000D01*
X147219477Y-21996400D01*
X147198558Y-21885227D01*
X147132855Y-21783121D01*
X147032603Y-21714622D01*
X146913600Y-21690523D01*
X145186400Y-21690523D01*
X145075227Y-21711442D01*
X144973121Y-21777145D01*
X144904622Y-21877397D01*
X144880523Y-21996400D01*
X139344578Y-21996400D01*
X139252789Y-21859029D01*
X138875290Y-21606792D01*
X138430000Y-21518218D01*
X137984710Y-21606792D01*
X137607211Y-21859029D01*
X137354974Y-22236528D01*
X137266400Y-22681818D01*
X137053600Y-22681818D01*
X136965026Y-22236528D01*
X136712789Y-21859029D01*
X136335290Y-21606792D01*
X135890000Y-21518218D01*
X135444710Y-21606792D01*
X135067211Y-21859029D01*
X134814974Y-22236528D01*
X134726400Y-22681818D01*
X134513600Y-22681818D01*
X134425026Y-22236528D01*
X134172789Y-21859029D01*
X133795290Y-21606792D01*
X133350000Y-21518218D01*
X132904710Y-21606792D01*
X132527211Y-21859029D01*
X132274974Y-22236528D01*
X132186400Y-22681818D01*
X131973600Y-22681818D01*
X131885026Y-22236528D01*
X131632789Y-21859029D01*
X131255290Y-21606792D01*
X130810000Y-21518218D01*
X130364710Y-21606792D01*
X129987211Y-21859029D01*
X129734974Y-22236528D01*
X129646400Y-22681818D01*
X129433600Y-22681818D01*
X129345026Y-22236528D01*
X129092789Y-21859029D01*
X128715290Y-21606792D01*
X128270000Y-21518218D01*
X127824710Y-21606792D01*
X127447211Y-21859029D01*
X127194974Y-22236528D01*
X127106400Y-22681818D01*
X126893600Y-22681818D01*
X126805026Y-22236528D01*
X126552789Y-21859029D01*
X126175290Y-21606792D01*
X125730000Y-21518218D01*
X125284710Y-21606792D01*
X124907211Y-21859029D01*
X124654974Y-22236528D01*
X124566400Y-22681818D01*
X124353600Y-22681818D01*
X124265026Y-22236528D01*
X124012789Y-21859029D01*
X123635290Y-21606792D01*
X123190000Y-21518218D01*
X122744710Y-21606792D01*
X122367211Y-21859029D01*
X122114974Y-22236528D01*
X122026400Y-22681818D01*
X121819477Y-22681818D01*
X121819477Y-21844000D01*
X121798558Y-21732827D01*
X121732855Y-21630721D01*
X121632603Y-21562222D01*
X121513600Y-21538123D01*
X119786400Y-21538123D01*
X119675227Y-21559042D01*
X119573121Y-21624745D01*
X119504622Y-21724997D01*
X119480523Y-21844000D01*
X116370297Y-21844000D01*
X116015290Y-21606792D01*
X115570000Y-21518218D01*
X115124710Y-21606792D01*
X114747211Y-21859029D01*
X114494974Y-22236528D01*
X114406400Y-22681818D01*
X114193600Y-22681818D01*
X114105026Y-22236528D01*
X113852789Y-21859029D01*
X113475290Y-21606792D01*
X113030000Y-21518218D01*
X112584710Y-21606792D01*
X112207211Y-21859029D01*
X111954974Y-22236528D01*
X111866400Y-22681818D01*
X111653600Y-22681818D01*
X111565026Y-22236528D01*
X111312789Y-21859029D01*
X110935290Y-21606792D01*
X110490000Y-21518218D01*
X110044710Y-21606792D01*
X109667211Y-21859029D01*
X109414974Y-22236528D01*
X109326400Y-22681818D01*
X109113600Y-22681818D01*
X109025026Y-22236528D01*
X108772789Y-21859029D01*
X108395290Y-21606792D01*
X107950000Y-21518218D01*
X107504710Y-21606792D01*
X107127211Y-21859029D01*
X106874974Y-22236528D01*
X106786400Y-22681818D01*
X106573600Y-22681818D01*
X106485026Y-22236528D01*
X106232789Y-21859029D01*
X105855290Y-21606792D01*
X105410000Y-21518218D01*
X104964710Y-21606792D01*
X104587211Y-21859029D01*
X104334974Y-22236528D01*
X104246400Y-22681818D01*
X104033600Y-22681818D01*
X103945026Y-22236528D01*
X103692789Y-21859029D01*
X103315290Y-21606792D01*
X102870000Y-21518218D01*
X102424710Y-21606792D01*
X102047211Y-21859029D01*
X101794974Y-22236528D01*
X101706400Y-22681818D01*
X101493600Y-22681818D01*
X101405026Y-22236528D01*
X101152789Y-21859029D01*
X100775290Y-21606792D01*
X100330000Y-21518218D01*
X99884710Y-21606792D01*
X99507211Y-21859029D01*
X99254974Y-22236528D01*
X99166400Y-22681818D01*
X98959477Y-22681818D01*
X98959477Y-21844000D01*
X98938558Y-21732827D01*
X98872855Y-21630721D01*
X98772603Y-21562222D01*
X98653600Y-21538123D01*
X96926400Y-21538123D01*
X96815227Y-21559042D01*
X96713121Y-21624745D01*
X96644622Y-21724997D01*
X96620523Y-21844000D01*
X94526297Y-21844000D01*
X94171290Y-21606792D01*
X93726000Y-21518218D01*
X93280710Y-21606792D01*
X92903211Y-21859029D01*
X92650974Y-22236528D01*
X92562400Y-22681818D01*
X92349600Y-22681818D01*
X92261026Y-22236528D01*
X92008789Y-21859029D01*
X91631290Y-21606792D01*
X91186000Y-21518218D01*
X90740710Y-21606792D01*
X90363211Y-21859029D01*
X90110974Y-22236528D01*
X90022400Y-22681818D01*
X89809600Y-22681818D01*
X89721026Y-22236528D01*
X89468789Y-21859029D01*
X89091290Y-21606792D01*
X88646000Y-21518218D01*
X88200710Y-21606792D01*
X87823211Y-21859029D01*
X87570974Y-22236528D01*
X87482400Y-22681818D01*
X87269600Y-22681818D01*
X87181026Y-22236528D01*
X86928789Y-21859029D01*
X86551290Y-21606792D01*
X86106000Y-21518218D01*
X85660710Y-21606792D01*
X85283211Y-21859029D01*
X85030974Y-22236528D01*
X84942400Y-22681818D01*
X84729600Y-22681818D01*
X84641026Y-22236528D01*
X84388789Y-21859029D01*
X84011290Y-21606792D01*
X83566000Y-21518218D01*
X83120710Y-21606792D01*
X82743211Y-21859029D01*
X82490974Y-22236528D01*
X82402400Y-22681818D01*
X82189600Y-22681818D01*
X82101026Y-22236528D01*
X81848789Y-21859029D01*
X81471290Y-21606792D01*
X81026000Y-21518218D01*
X80580710Y-21606792D01*
X80203211Y-21859029D01*
X79950974Y-22236528D01*
X79862400Y-22681818D01*
X79649600Y-22681818D01*
X79561026Y-22236528D01*
X79308789Y-21859029D01*
X78931290Y-21606792D01*
X78486000Y-21518218D01*
X78040710Y-21606792D01*
X77663211Y-21859029D01*
X77410974Y-22236528D01*
X77322400Y-22681818D01*
X77109600Y-22681818D01*
X77021026Y-22236528D01*
X76768789Y-21859029D01*
X76391290Y-21606792D01*
X75946000Y-21518218D01*
X75500710Y-21606792D01*
X75123211Y-21859029D01*
X74870974Y-22236528D01*
X74782400Y-22681818D01*
X74569600Y-22681818D01*
X74481026Y-22236528D01*
X74228789Y-21859029D01*
X73851290Y-21606792D01*
X73406000Y-21518218D01*
X72960710Y-21606792D01*
X72583211Y-21859029D01*
X72330974Y-22236528D01*
X72242400Y-22681818D01*
X72035477Y-22681818D01*
X72035477Y-21844000D01*
X72014558Y-21732827D01*
X71948855Y-21630721D01*
X71848603Y-21562222D01*
X71729600Y-21538123D01*
X70002400Y-21538123D01*
X69891227Y-21559042D01*
X69789121Y-21624745D01*
X69720622Y-21724997D01*
X69696523Y-21844000D01*
X56636000Y-21844000D01*
X56636000Y-20695000D01*
X150755000Y-20695000D01*
X150755000Y-73285000D01*
X150755000Y-73285000D01*
G37*
X150755000Y-73285000D02*
X56636000Y-73285000D01*
X56636000Y-70941818D01*
X78846400Y-70941818D01*
X78846400Y-71298182D01*
X78934974Y-71743472D01*
X79187211Y-72120971D01*
X79564710Y-72373208D01*
X80010000Y-72461782D01*
X80455290Y-72373208D01*
X80832789Y-72120971D01*
X81085026Y-71743472D01*
X81173600Y-71298182D01*
X81173600Y-70941818D01*
X81386400Y-70941818D01*
X81386400Y-71298182D01*
X81474974Y-71743472D01*
X81727211Y-72120971D01*
X82104710Y-72373208D01*
X82550000Y-72461782D01*
X82995290Y-72373208D01*
X83372789Y-72120971D01*
X83625026Y-71743472D01*
X83713600Y-71298182D01*
X83713600Y-70941818D01*
X83926400Y-70941818D01*
X83926400Y-71298182D01*
X84014974Y-71743472D01*
X84267211Y-72120971D01*
X84644710Y-72373208D01*
X85090000Y-72461782D01*
X85535290Y-72373208D01*
X85912789Y-72120971D01*
X86165026Y-71743472D01*
X86253600Y-71298182D01*
X86253600Y-70941818D01*
X86466400Y-70941818D01*
X86466400Y-71298182D01*
X86554974Y-71743472D01*
X86807211Y-72120971D01*
X87184710Y-72373208D01*
X87630000Y-72461782D01*
X88075290Y-72373208D01*
X88452789Y-72120971D01*
X88705026Y-71743472D01*
X88793600Y-71298182D01*
X88793600Y-70941818D01*
X89006400Y-70941818D01*
X89006400Y-71298182D01*
X89094974Y-71743472D01*
X89347211Y-72120971D01*
X89724710Y-72373208D01*
X90170000Y-72461782D01*
X90615290Y-72373208D01*
X90992789Y-72120971D01*
X91245026Y-71743472D01*
X91333600Y-71298182D01*
X91333600Y-71170000D01*
X91546400Y-71170000D01*
X91546400Y-71322400D01*
X91654108Y-71763884D01*
X91922566Y-72130544D01*
X92310903Y-72366560D01*
X92478757Y-72412791D01*
X92660000Y-72359851D01*
X92660000Y-71170000D01*
X92760000Y-71170000D01*
X92760000Y-72359851D01*
X92941243Y-72412791D01*
X93109097Y-72366560D01*
X93497434Y-72130544D01*
X93765892Y-71763884D01*
X93873600Y-71322400D01*
X93873600Y-71170000D01*
X94086400Y-71170000D01*
X94086400Y-71322400D01*
X94194108Y-71763884D01*
X94462566Y-72130544D01*
X94850903Y-72366560D01*
X95018757Y-72412791D01*
X95200000Y-72359851D01*
X95200000Y-71170000D01*
X95300000Y-71170000D01*
X95300000Y-72359851D01*
X95481243Y-72412791D01*
X95649097Y-72366560D01*
X96037434Y-72130544D01*
X96305892Y-71763884D01*
X96413600Y-71322400D01*
X96413600Y-71245000D01*
X96626400Y-71245000D01*
X96626400Y-72195674D01*
X96672072Y-72305937D01*
X96756464Y-72390328D01*
X96866727Y-72436000D01*
X97665000Y-72436000D01*
X97740000Y-72361000D01*
X97740000Y-71170000D01*
X97840000Y-71170000D01*
X97840000Y-72361000D01*
X97915000Y-72436000D01*
X98713273Y-72436000D01*
X98823536Y-72390328D01*
X98907928Y-72305937D01*
X98953600Y-72195674D01*
X98953600Y-71245000D01*
X98878600Y-71170000D01*
X97840000Y-71170000D01*
X97740000Y-71170000D01*
X96701400Y-71170000D01*
X96626400Y-71245000D01*
X96413600Y-71245000D01*
X96413600Y-71170000D01*
X95300000Y-71170000D01*
X95200000Y-71170000D01*
X94086400Y-71170000D01*
X93873600Y-71170000D01*
X92760000Y-71170000D01*
X92660000Y-71170000D01*
X91546400Y-71170000D01*
X91333600Y-71170000D01*
X91333600Y-70941818D01*
X91328783Y-70917600D01*
X91546400Y-70917600D01*
X91546400Y-71070000D01*
X92660000Y-71070000D01*
X92660000Y-69880149D01*
X92760000Y-69880149D01*
X92760000Y-71070000D01*
X93873600Y-71070000D01*
X93873600Y-70917600D01*
X94086400Y-70917600D01*
X94086400Y-71070000D01*
X95200000Y-71070000D01*
X95200000Y-69880149D01*
X95300000Y-69880149D01*
X95300000Y-71070000D01*
X96413600Y-71070000D01*
X96413600Y-70917600D01*
X96305892Y-70476116D01*
X96037434Y-70109456D01*
X95930271Y-70044326D01*
X96626400Y-70044326D01*
X96626400Y-70995000D01*
X96701400Y-71070000D01*
X97740000Y-71070000D01*
X97740000Y-69879000D01*
X97840000Y-69879000D01*
X97840000Y-71070000D01*
X98878600Y-71070000D01*
X98953600Y-70995000D01*
X98953600Y-70941818D01*
X101706400Y-70941818D01*
X101706400Y-71298182D01*
X101794974Y-71743472D01*
X102047211Y-72120971D01*
X102424710Y-72373208D01*
X102870000Y-72461782D01*
X103315290Y-72373208D01*
X103692789Y-72120971D01*
X103945026Y-71743472D01*
X104033600Y-71298182D01*
X104033600Y-70941818D01*
X104246400Y-70941818D01*
X104246400Y-71298182D01*
X104334974Y-71743472D01*
X104587211Y-72120971D01*
X104964710Y-72373208D01*
X105410000Y-72461782D01*
X105855290Y-72373208D01*
X106232789Y-72120971D01*
X106485026Y-71743472D01*
X106573600Y-71298182D01*
X106573600Y-70941818D01*
X106786400Y-70941818D01*
X106786400Y-71298182D01*
X106874974Y-71743472D01*
X107127211Y-72120971D01*
X107504710Y-72373208D01*
X107950000Y-72461782D01*
X108395290Y-72373208D01*
X108772789Y-72120971D01*
X109025026Y-71743472D01*
X109113600Y-71298182D01*
X109113600Y-70941818D01*
X109326400Y-70941818D01*
X109326400Y-71298182D01*
X109414974Y-71743472D01*
X109667211Y-72120971D01*
X110044710Y-72373208D01*
X110490000Y-72461782D01*
X110935290Y-72373208D01*
X111312789Y-72120971D01*
X111565026Y-71743472D01*
X111653600Y-71298182D01*
X111653600Y-70941818D01*
X111866400Y-70941818D01*
X111866400Y-71298182D01*
X111954974Y-71743472D01*
X112207211Y-72120971D01*
X112584710Y-72373208D01*
X113030000Y-72461782D01*
X113475290Y-72373208D01*
X113852789Y-72120971D01*
X114105026Y-71743472D01*
X114193600Y-71298182D01*
X114193600Y-70941818D01*
X114406400Y-70941818D01*
X114406400Y-71298182D01*
X114494974Y-71743472D01*
X114747211Y-72120971D01*
X115124710Y-72373208D01*
X115570000Y-72461782D01*
X116015290Y-72373208D01*
X116392789Y-72120971D01*
X116645026Y-71743472D01*
X116733600Y-71298182D01*
X116733600Y-70941818D01*
X116946400Y-70941818D01*
X116946400Y-71298182D01*
X117034974Y-71743472D01*
X117287211Y-72120971D01*
X117664710Y-72373208D01*
X118110000Y-72461782D01*
X118555290Y-72373208D01*
X118932789Y-72120971D01*
X119185026Y-71743472D01*
X119273600Y-71298182D01*
X119273600Y-70941818D01*
X119185026Y-70496528D01*
X118932789Y-70119029D01*
X118910297Y-70104000D01*
X119480523Y-70104000D01*
X119480523Y-72136000D01*
X119501442Y-72247173D01*
X119567145Y-72349279D01*
X119667397Y-72417778D01*
X119786400Y-72441877D01*
X121513600Y-72441877D01*
X121624773Y-72420958D01*
X121726879Y-72355255D01*
X121795378Y-72255003D01*
X121819477Y-72136000D01*
X121819477Y-70941818D01*
X124566400Y-70941818D01*
X124566400Y-71298182D01*
X124654974Y-71743472D01*
X124907211Y-72120971D01*
X125284710Y-72373208D01*
X125730000Y-72461782D01*
X126175290Y-72373208D01*
X126552789Y-72120971D01*
X126805026Y-71743472D01*
X126893600Y-71298182D01*
X126893600Y-70941818D01*
X127106400Y-70941818D01*
X127106400Y-71298182D01*
X127194974Y-71743472D01*
X127447211Y-72120971D01*
X127824710Y-72373208D01*
X128270000Y-72461782D01*
X128715290Y-72373208D01*
X129092789Y-72120971D01*
X129345026Y-71743472D01*
X129433600Y-71298182D01*
X129433600Y-70941818D01*
X129646400Y-70941818D01*
X129646400Y-71298182D01*
X129734974Y-71743472D01*
X129987211Y-72120971D01*
X130364710Y-72373208D01*
X130810000Y-72461782D01*
X131255290Y-72373208D01*
X131632789Y-72120971D01*
X131885026Y-71743472D01*
X131973600Y-71298182D01*
X131973600Y-70941818D01*
X132186400Y-70941818D01*
X132186400Y-71298182D01*
X132274974Y-71743472D01*
X132527211Y-72120971D01*
X132904710Y-72373208D01*
X133350000Y-72461782D01*
X133795290Y-72373208D01*
X134172789Y-72120971D01*
X134425026Y-71743472D01*
X134513600Y-71298182D01*
X134513600Y-70941818D01*
X134726400Y-70941818D01*
X134726400Y-71298182D01*
X134814974Y-71743472D01*
X135067211Y-72120971D01*
X135444710Y-72373208D01*
X135890000Y-72461782D01*
X136335290Y-72373208D01*
X136712789Y-72120971D01*
X136965026Y-71743472D01*
X137053600Y-71298182D01*
X137053600Y-70941818D01*
X137266400Y-70941818D01*
X137266400Y-71298182D01*
X137354974Y-71743472D01*
X137607211Y-72120971D01*
X137984710Y-72373208D01*
X138430000Y-72461782D01*
X138875290Y-72373208D01*
X139252789Y-72120971D01*
X139505026Y-71743472D01*
X139593600Y-71298182D01*
X139593600Y-70941818D01*
X139806400Y-70941818D01*
X139806400Y-71298182D01*
X139894974Y-71743472D01*
X140147211Y-72120971D01*
X140524710Y-72373208D01*
X140970000Y-72461782D01*
X141415290Y-72373208D01*
X141792789Y-72120971D01*
X142045026Y-71743472D01*
X142133600Y-71298182D01*
X142133600Y-70941818D01*
X142045026Y-70496528D01*
X141792789Y-70119029D01*
X141770297Y-70104000D01*
X142340523Y-70104000D01*
X142340523Y-72136000D01*
X142361442Y-72247173D01*
X142427145Y-72349279D01*
X142527397Y-72417778D01*
X142646400Y-72441877D01*
X144373600Y-72441877D01*
X144484773Y-72420958D01*
X144586879Y-72355255D01*
X144655378Y-72255003D01*
X144679477Y-72136000D01*
X144679477Y-70104000D01*
X144658558Y-69992827D01*
X144592855Y-69890721D01*
X144492603Y-69822222D01*
X144373600Y-69798123D01*
X142646400Y-69798123D01*
X142535227Y-69819042D01*
X142433121Y-69884745D01*
X142364622Y-69984997D01*
X142340523Y-70104000D01*
X141770297Y-70104000D01*
X141415290Y-69866792D01*
X140970000Y-69778218D01*
X140524710Y-69866792D01*
X140147211Y-70119029D01*
X139894974Y-70496528D01*
X139806400Y-70941818D01*
X139593600Y-70941818D01*
X139505026Y-70496528D01*
X139252789Y-70119029D01*
X138875290Y-69866792D01*
X138430000Y-69778218D01*
X137984710Y-69866792D01*
X137607211Y-70119029D01*
X137354974Y-70496528D01*
X137266400Y-70941818D01*
X137053600Y-70941818D01*
X136965026Y-70496528D01*
X136712789Y-70119029D01*
X136335290Y-69866792D01*
X135890000Y-69778218D01*
X135444710Y-69866792D01*
X135067211Y-70119029D01*
X134814974Y-70496528D01*
X134726400Y-70941818D01*
X134513600Y-70941818D01*
X134425026Y-70496528D01*
X134172789Y-70119029D01*
X133795290Y-69866792D01*
X133350000Y-69778218D01*
X132904710Y-69866792D01*
X132527211Y-70119029D01*
X132274974Y-70496528D01*
X132186400Y-70941818D01*
X131973600Y-70941818D01*
X131885026Y-70496528D01*
X131632789Y-70119029D01*
X131255290Y-69866792D01*
X130810000Y-69778218D01*
X130364710Y-69866792D01*
X129987211Y-70119029D01*
X129734974Y-70496528D01*
X129646400Y-70941818D01*
X129433600Y-70941818D01*
X129345026Y-70496528D01*
X129092789Y-70119029D01*
X128715290Y-69866792D01*
X128270000Y-69778218D01*
X127824710Y-69866792D01*
X127447211Y-70119029D01*
X127194974Y-70496528D01*
X127106400Y-70941818D01*
X126893600Y-70941818D01*
X126805026Y-70496528D01*
X126552789Y-70119029D01*
X126175290Y-69866792D01*
X125730000Y-69778218D01*
X125284710Y-69866792D01*
X124907211Y-70119029D01*
X124654974Y-70496528D01*
X124566400Y-70941818D01*
X121819477Y-70941818D01*
X121819477Y-70104000D01*
X121798558Y-69992827D01*
X121732855Y-69890721D01*
X121632603Y-69822222D01*
X121513600Y-69798123D01*
X119786400Y-69798123D01*
X119675227Y-69819042D01*
X119573121Y-69884745D01*
X119504622Y-69984997D01*
X119480523Y-70104000D01*
X118910297Y-70104000D01*
X118555290Y-69866792D01*
X118110000Y-69778218D01*
X117664710Y-69866792D01*
X117287211Y-70119029D01*
X117034974Y-70496528D01*
X116946400Y-70941818D01*
X116733600Y-70941818D01*
X116645026Y-70496528D01*
X116392789Y-70119029D01*
X116015290Y-69866792D01*
X115570000Y-69778218D01*
X115124710Y-69866792D01*
X114747211Y-70119029D01*
X114494974Y-70496528D01*
X114406400Y-70941818D01*
X114193600Y-70941818D01*
X114105026Y-70496528D01*
X113852789Y-70119029D01*
X113475290Y-69866792D01*
X113030000Y-69778218D01*
X112584710Y-69866792D01*
X112207211Y-70119029D01*
X111954974Y-70496528D01*
X111866400Y-70941818D01*
X111653600Y-70941818D01*
X111565026Y-70496528D01*
X111312789Y-70119029D01*
X110935290Y-69866792D01*
X110490000Y-69778218D01*
X110044710Y-69866792D01*
X109667211Y-70119029D01*
X109414974Y-70496528D01*
X109326400Y-70941818D01*
X109113600Y-70941818D01*
X109025026Y-70496528D01*
X108772789Y-70119029D01*
X108395290Y-69866792D01*
X107950000Y-69778218D01*
X107504710Y-69866792D01*
X107127211Y-70119029D01*
X106874974Y-70496528D01*
X106786400Y-70941818D01*
X106573600Y-70941818D01*
X106485026Y-70496528D01*
X106232789Y-70119029D01*
X105855290Y-69866792D01*
X105410000Y-69778218D01*
X104964710Y-69866792D01*
X104587211Y-70119029D01*
X104334974Y-70496528D01*
X104246400Y-70941818D01*
X104033600Y-70941818D01*
X103945026Y-70496528D01*
X103692789Y-70119029D01*
X103315290Y-69866792D01*
X102870000Y-69778218D01*
X102424710Y-69866792D01*
X102047211Y-70119029D01*
X101794974Y-70496528D01*
X101706400Y-70941818D01*
X98953600Y-70941818D01*
X98953600Y-70044326D01*
X98907928Y-69934063D01*
X98823536Y-69849672D01*
X98713273Y-69804000D01*
X97915000Y-69804000D01*
X97840000Y-69879000D01*
X97740000Y-69879000D01*
X97665000Y-69804000D01*
X96866727Y-69804000D01*
X96756464Y-69849672D01*
X96672072Y-69934063D01*
X96626400Y-70044326D01*
X95930271Y-70044326D01*
X95649097Y-69873440D01*
X95481243Y-69827209D01*
X95300000Y-69880149D01*
X95200000Y-69880149D01*
X95018757Y-69827209D01*
X94850903Y-69873440D01*
X94462566Y-70109456D01*
X94194108Y-70476116D01*
X94086400Y-70917600D01*
X93873600Y-70917600D01*
X93765892Y-70476116D01*
X93497434Y-70109456D01*
X93109097Y-69873440D01*
X92941243Y-69827209D01*
X92760000Y-69880149D01*
X92660000Y-69880149D01*
X92478757Y-69827209D01*
X92310903Y-69873440D01*
X91922566Y-70109456D01*
X91654108Y-70476116D01*
X91546400Y-70917600D01*
X91328783Y-70917600D01*
X91245026Y-70496528D01*
X90992789Y-70119029D01*
X90615290Y-69866792D01*
X90170000Y-69778218D01*
X89724710Y-69866792D01*
X89347211Y-70119029D01*
X89094974Y-70496528D01*
X89006400Y-70941818D01*
X88793600Y-70941818D01*
X88705026Y-70496528D01*
X88452789Y-70119029D01*
X88075290Y-69866792D01*
X87630000Y-69778218D01*
X87184710Y-69866792D01*
X86807211Y-70119029D01*
X86554974Y-70496528D01*
X86466400Y-70941818D01*
X86253600Y-70941818D01*
X86165026Y-70496528D01*
X85912789Y-70119029D01*
X85535290Y-69866792D01*
X85090000Y-69778218D01*
X84644710Y-69866792D01*
X84267211Y-70119029D01*
X84014974Y-70496528D01*
X83926400Y-70941818D01*
X83713600Y-70941818D01*
X83625026Y-70496528D01*
X83372789Y-70119029D01*
X82995290Y-69866792D01*
X82550000Y-69778218D01*
X82104710Y-69866792D01*
X81727211Y-70119029D01*
X81474974Y-70496528D01*
X81386400Y-70941818D01*
X81173600Y-70941818D01*
X81085026Y-70496528D01*
X80832789Y-70119029D01*
X80455290Y-69866792D01*
X80010000Y-69778218D01*
X79564710Y-69866792D01*
X79187211Y-70119029D01*
X78934974Y-70496528D01*
X78846400Y-70941818D01*
X56636000Y-70941818D01*
X56636000Y-66292000D01*
X141021000Y-66292000D01*
X141021000Y-66876673D01*
X141066672Y-66986936D01*
X141151063Y-67071328D01*
X141261326Y-67117000D01*
X141546000Y-67117000D01*
X141621000Y-67042000D01*
X141621000Y-66217000D01*
X141721000Y-66217000D01*
X141721000Y-67042000D01*
X141796000Y-67117000D01*
X142080674Y-67117000D01*
X142190937Y-67071328D01*
X142275328Y-66986936D01*
X142321000Y-66876673D01*
X142321000Y-66292000D01*
X142246000Y-66217000D01*
X141721000Y-66217000D01*
X141621000Y-66217000D01*
X141096000Y-66217000D01*
X141021000Y-66292000D01*
X56636000Y-66292000D01*
X56636000Y-65457327D01*
X141021000Y-65457327D01*
X141021000Y-66042000D01*
X141096000Y-66117000D01*
X141621000Y-66117000D01*
X141621000Y-65292000D01*
X141721000Y-65292000D01*
X141721000Y-66117000D01*
X142246000Y-66117000D01*
X142321000Y-66042000D01*
X142321000Y-65517000D01*
X142915123Y-65517000D01*
X142915123Y-66817000D01*
X142936042Y-66928173D01*
X143001745Y-67030279D01*
X143101997Y-67098778D01*
X143221000Y-67122877D01*
X143921000Y-67122877D01*
X144032173Y-67101958D01*
X144134279Y-67036255D01*
X144202778Y-66936003D01*
X144226877Y-66817000D01*
X144226877Y-66465000D01*
X144948142Y-66465000D01*
X144952178Y-66485290D01*
X145204415Y-66862789D01*
X145581914Y-67115026D01*
X146027204Y-67203600D01*
X146072796Y-67203600D01*
X146518086Y-67115026D01*
X146895585Y-66862789D01*
X147147822Y-66485290D01*
X147151858Y-66465000D01*
X147488142Y-66465000D01*
X147492178Y-66485290D01*
X147744415Y-66862789D01*
X148121914Y-67115026D01*
X148567204Y-67203600D01*
X148612796Y-67203600D01*
X149058086Y-67115026D01*
X149435585Y-66862789D01*
X149687822Y-66485290D01*
X149776396Y-66040000D01*
X149687822Y-65594710D01*
X149435585Y-65217211D01*
X149058086Y-64964974D01*
X148612796Y-64876400D01*
X148567204Y-64876400D01*
X148121914Y-64964974D01*
X147744415Y-65217211D01*
X147492178Y-65594710D01*
X147488142Y-65615000D01*
X147151858Y-65615000D01*
X147147822Y-65594710D01*
X146895585Y-65217211D01*
X146518086Y-64964974D01*
X146072796Y-64876400D01*
X146027204Y-64876400D01*
X145581914Y-64964974D01*
X145204415Y-65217211D01*
X144952178Y-65594710D01*
X144948142Y-65615000D01*
X144226877Y-65615000D01*
X144226877Y-65517000D01*
X144205958Y-65405827D01*
X144140255Y-65303721D01*
X144040003Y-65235222D01*
X143921000Y-65211123D01*
X143221000Y-65211123D01*
X143109827Y-65232042D01*
X143007721Y-65297745D01*
X142939222Y-65397997D01*
X142915123Y-65517000D01*
X142321000Y-65517000D01*
X142321000Y-65457327D01*
X142275328Y-65347064D01*
X142190937Y-65262672D01*
X142080674Y-65217000D01*
X141796000Y-65217000D01*
X141721000Y-65292000D01*
X141621000Y-65292000D01*
X141546000Y-65217000D01*
X141261326Y-65217000D01*
X141151063Y-65262672D01*
X141066672Y-65347064D01*
X141021000Y-65457327D01*
X56636000Y-65457327D01*
X56636000Y-63500000D01*
X144863604Y-63500000D01*
X144952178Y-63945290D01*
X145204415Y-64322789D01*
X145581914Y-64575026D01*
X146027204Y-64663600D01*
X146072796Y-64663600D01*
X146518086Y-64575026D01*
X146895585Y-64322789D01*
X147147822Y-63945290D01*
X147236396Y-63500000D01*
X147403604Y-63500000D01*
X147492178Y-63945290D01*
X147744415Y-64322789D01*
X148121914Y-64575026D01*
X148567204Y-64663600D01*
X148612796Y-64663600D01*
X149058086Y-64575026D01*
X149435585Y-64322789D01*
X149687822Y-63945290D01*
X149776396Y-63500000D01*
X149687822Y-63054710D01*
X149435585Y-62677211D01*
X149058086Y-62424974D01*
X148612796Y-62336400D01*
X148567204Y-62336400D01*
X148121914Y-62424974D01*
X147744415Y-62677211D01*
X147492178Y-63054710D01*
X147403604Y-63500000D01*
X147236396Y-63500000D01*
X147147822Y-63054710D01*
X146895585Y-62677211D01*
X146518086Y-62424974D01*
X146072796Y-62336400D01*
X146027204Y-62336400D01*
X145581914Y-62424974D01*
X145204415Y-62677211D01*
X144952178Y-63054710D01*
X144863604Y-63500000D01*
X56636000Y-63500000D01*
X56636000Y-62729824D01*
X59978896Y-62729824D01*
X60070048Y-62950429D01*
X60238683Y-63119359D01*
X60459129Y-63210896D01*
X60697824Y-63211104D01*
X60918429Y-63119952D01*
X61087359Y-62951317D01*
X61178896Y-62730871D01*
X61179104Y-62492176D01*
X61087952Y-62271571D01*
X60919317Y-62102641D01*
X60698871Y-62011104D01*
X60460176Y-62010896D01*
X60239571Y-62102048D01*
X60070641Y-62270683D01*
X59979104Y-62491129D01*
X59978896Y-62729824D01*
X56636000Y-62729824D01*
X56636000Y-61967824D01*
X66582896Y-61967824D01*
X66674048Y-62188429D01*
X66842683Y-62357359D01*
X67063129Y-62448896D01*
X67301824Y-62449104D01*
X67522429Y-62357952D01*
X67691359Y-62189317D01*
X67782896Y-61968871D01*
X67782896Y-61967824D01*
X74710896Y-61967824D01*
X74802048Y-62188429D01*
X74970683Y-62357359D01*
X75191129Y-62448896D01*
X75429824Y-62449104D01*
X75650429Y-62357952D01*
X75819359Y-62189317D01*
X75910896Y-61968871D01*
X75910896Y-61967824D01*
X82965896Y-61967824D01*
X83057048Y-62188429D01*
X83225683Y-62357359D01*
X83446129Y-62448896D01*
X83684824Y-62449104D01*
X83905429Y-62357952D01*
X84074359Y-62189317D01*
X84165896Y-61968871D01*
X84165896Y-61967824D01*
X91093896Y-61967824D01*
X91185048Y-62188429D01*
X91353683Y-62357359D01*
X91574129Y-62448896D01*
X91812824Y-62449104D01*
X92033429Y-62357952D01*
X92202359Y-62189317D01*
X92293896Y-61968871D01*
X92293896Y-61967824D01*
X99221896Y-61967824D01*
X99313048Y-62188429D01*
X99481683Y-62357359D01*
X99702129Y-62448896D01*
X99940824Y-62449104D01*
X100161429Y-62357952D01*
X100330359Y-62189317D01*
X100421896Y-61968871D01*
X100421896Y-61967824D01*
X107349896Y-61967824D01*
X107441048Y-62188429D01*
X107609683Y-62357359D01*
X107830129Y-62448896D01*
X108068824Y-62449104D01*
X108289429Y-62357952D01*
X108458359Y-62189317D01*
X108549896Y-61968871D01*
X108549896Y-61967824D01*
X115477896Y-61967824D01*
X115569048Y-62188429D01*
X115737683Y-62357359D01*
X115958129Y-62448896D01*
X116196824Y-62449104D01*
X116417429Y-62357952D01*
X116586359Y-62189317D01*
X116677896Y-61968871D01*
X116677896Y-61967824D01*
X123605896Y-61967824D01*
X123697048Y-62188429D01*
X123865683Y-62357359D01*
X124086129Y-62448896D01*
X124324824Y-62449104D01*
X124545429Y-62357952D01*
X124714359Y-62189317D01*
X124805896Y-61968871D01*
X124806104Y-61730176D01*
X124714952Y-61509571D01*
X124546317Y-61340641D01*
X124325871Y-61249104D01*
X124087176Y-61248896D01*
X123866571Y-61340048D01*
X123697641Y-61508683D01*
X123606104Y-61729129D01*
X123605896Y-61967824D01*
X116677896Y-61967824D01*
X116678104Y-61730176D01*
X116586952Y-61509571D01*
X116418317Y-61340641D01*
X116197871Y-61249104D01*
X115959176Y-61248896D01*
X115738571Y-61340048D01*
X115569641Y-61508683D01*
X115478104Y-61729129D01*
X115477896Y-61967824D01*
X108549896Y-61967824D01*
X108550104Y-61730176D01*
X108458952Y-61509571D01*
X108290317Y-61340641D01*
X108069871Y-61249104D01*
X107831176Y-61248896D01*
X107610571Y-61340048D01*
X107441641Y-61508683D01*
X107350104Y-61729129D01*
X107349896Y-61967824D01*
X100421896Y-61967824D01*
X100422104Y-61730176D01*
X100330952Y-61509571D01*
X100162317Y-61340641D01*
X99941871Y-61249104D01*
X99703176Y-61248896D01*
X99482571Y-61340048D01*
X99313641Y-61508683D01*
X99222104Y-61729129D01*
X99221896Y-61967824D01*
X92293896Y-61967824D01*
X92294104Y-61730176D01*
X92202952Y-61509571D01*
X92034317Y-61340641D01*
X91813871Y-61249104D01*
X91575176Y-61248896D01*
X91354571Y-61340048D01*
X91185641Y-61508683D01*
X91094104Y-61729129D01*
X91093896Y-61967824D01*
X84165896Y-61967824D01*
X84166104Y-61730176D01*
X84074952Y-61509571D01*
X83906317Y-61340641D01*
X83685871Y-61249104D01*
X83447176Y-61248896D01*
X83226571Y-61340048D01*
X83057641Y-61508683D01*
X82966104Y-61729129D01*
X82965896Y-61967824D01*
X75910896Y-61967824D01*
X75911104Y-61730176D01*
X75819952Y-61509571D01*
X75651317Y-61340641D01*
X75430871Y-61249104D01*
X75192176Y-61248896D01*
X74971571Y-61340048D01*
X74802641Y-61508683D01*
X74711104Y-61729129D01*
X74710896Y-61967824D01*
X67782896Y-61967824D01*
X67783104Y-61730176D01*
X67691952Y-61509571D01*
X67523317Y-61340641D01*
X67302871Y-61249104D01*
X67064176Y-61248896D01*
X66843571Y-61340048D01*
X66674641Y-61508683D01*
X66583104Y-61729129D01*
X66582896Y-61967824D01*
X56636000Y-61967824D01*
X56636000Y-60960000D01*
X144863604Y-60960000D01*
X144952178Y-61405290D01*
X145204415Y-61782789D01*
X145581914Y-62035026D01*
X146027204Y-62123600D01*
X146072796Y-62123600D01*
X146518086Y-62035026D01*
X146895585Y-61782789D01*
X147147822Y-61405290D01*
X147236396Y-60960000D01*
X147403604Y-60960000D01*
X147492178Y-61405290D01*
X147744415Y-61782789D01*
X148121914Y-62035026D01*
X148567204Y-62123600D01*
X148612796Y-62123600D01*
X149058086Y-62035026D01*
X149435585Y-61782789D01*
X149687822Y-61405290D01*
X149776396Y-60960000D01*
X149687822Y-60514710D01*
X149435585Y-60137211D01*
X149058086Y-59884974D01*
X148612796Y-59796400D01*
X148567204Y-59796400D01*
X148121914Y-59884974D01*
X147744415Y-60137211D01*
X147492178Y-60514710D01*
X147403604Y-60960000D01*
X147236396Y-60960000D01*
X147147822Y-60514710D01*
X146895585Y-60137211D01*
X146518086Y-59884974D01*
X146072796Y-59796400D01*
X146027204Y-59796400D01*
X145581914Y-59884974D01*
X145204415Y-60137211D01*
X144952178Y-60514710D01*
X144863604Y-60960000D01*
X56636000Y-60960000D01*
X56636000Y-59935824D01*
X76742896Y-59935824D01*
X76834048Y-60156429D01*
X77002683Y-60325359D01*
X77223129Y-60416896D01*
X77461824Y-60417104D01*
X77682429Y-60325952D01*
X77851359Y-60157317D01*
X77942896Y-59936871D01*
X77942896Y-59935824D01*
X84870896Y-59935824D01*
X84962048Y-60156429D01*
X85130683Y-60325359D01*
X85351129Y-60416896D01*
X85589824Y-60417104D01*
X85810429Y-60325952D01*
X85979359Y-60157317D01*
X86070896Y-59936871D01*
X86070896Y-59935824D01*
X93125896Y-59935824D01*
X93217048Y-60156429D01*
X93385683Y-60325359D01*
X93606129Y-60416896D01*
X93844824Y-60417104D01*
X94065429Y-60325952D01*
X94234359Y-60157317D01*
X94325896Y-59936871D01*
X94325896Y-59935824D01*
X101253896Y-59935824D01*
X101345048Y-60156429D01*
X101513683Y-60325359D01*
X101734129Y-60416896D01*
X101972824Y-60417104D01*
X102193429Y-60325952D01*
X102362359Y-60157317D01*
X102453896Y-59936871D01*
X102453896Y-59935824D01*
X109381896Y-59935824D01*
X109473048Y-60156429D01*
X109641683Y-60325359D01*
X109862129Y-60416896D01*
X110100824Y-60417104D01*
X110321429Y-60325952D01*
X110490359Y-60157317D01*
X110581896Y-59936871D01*
X110581896Y-59935824D01*
X117509896Y-59935824D01*
X117601048Y-60156429D01*
X117769683Y-60325359D01*
X117990129Y-60416896D01*
X118228824Y-60417104D01*
X118449429Y-60325952D01*
X118618359Y-60157317D01*
X118709896Y-59936871D01*
X118709896Y-59935824D01*
X125637896Y-59935824D01*
X125729048Y-60156429D01*
X125897683Y-60325359D01*
X126118129Y-60416896D01*
X126356824Y-60417104D01*
X126577429Y-60325952D01*
X126746359Y-60157317D01*
X126837896Y-59936871D01*
X126837896Y-59935824D01*
X133765896Y-59935824D01*
X133857048Y-60156429D01*
X134025683Y-60325359D01*
X134246129Y-60416896D01*
X134484824Y-60417104D01*
X134705429Y-60325952D01*
X134874359Y-60157317D01*
X134965896Y-59936871D01*
X134966104Y-59698176D01*
X134874952Y-59477571D01*
X134706317Y-59308641D01*
X134485871Y-59217104D01*
X134247176Y-59216896D01*
X134026571Y-59308048D01*
X133857641Y-59476683D01*
X133766104Y-59697129D01*
X133765896Y-59935824D01*
X126837896Y-59935824D01*
X126838104Y-59698176D01*
X126746952Y-59477571D01*
X126578317Y-59308641D01*
X126357871Y-59217104D01*
X126119176Y-59216896D01*
X125898571Y-59308048D01*
X125729641Y-59476683D01*
X125638104Y-59697129D01*
X125637896Y-59935824D01*
X118709896Y-59935824D01*
X118710104Y-59698176D01*
X118618952Y-59477571D01*
X118450317Y-59308641D01*
X118229871Y-59217104D01*
X117991176Y-59216896D01*
X117770571Y-59308048D01*
X117601641Y-59476683D01*
X117510104Y-59697129D01*
X117509896Y-59935824D01*
X110581896Y-59935824D01*
X110582104Y-59698176D01*
X110490952Y-59477571D01*
X110322317Y-59308641D01*
X110101871Y-59217104D01*
X109863176Y-59216896D01*
X109642571Y-59308048D01*
X109473641Y-59476683D01*
X109382104Y-59697129D01*
X109381896Y-59935824D01*
X102453896Y-59935824D01*
X102454104Y-59698176D01*
X102362952Y-59477571D01*
X102194317Y-59308641D01*
X101973871Y-59217104D01*
X101735176Y-59216896D01*
X101514571Y-59308048D01*
X101345641Y-59476683D01*
X101254104Y-59697129D01*
X101253896Y-59935824D01*
X94325896Y-59935824D01*
X94326104Y-59698176D01*
X94234952Y-59477571D01*
X94066317Y-59308641D01*
X93845871Y-59217104D01*
X93607176Y-59216896D01*
X93386571Y-59308048D01*
X93217641Y-59476683D01*
X93126104Y-59697129D01*
X93125896Y-59935824D01*
X86070896Y-59935824D01*
X86071104Y-59698176D01*
X85979952Y-59477571D01*
X85811317Y-59308641D01*
X85590871Y-59217104D01*
X85352176Y-59216896D01*
X85131571Y-59308048D01*
X84962641Y-59476683D01*
X84871104Y-59697129D01*
X84870896Y-59935824D01*
X77942896Y-59935824D01*
X77943104Y-59698176D01*
X77851952Y-59477571D01*
X77683317Y-59308641D01*
X77462871Y-59217104D01*
X77224176Y-59216896D01*
X77003571Y-59308048D01*
X76834641Y-59476683D01*
X76743104Y-59697129D01*
X76742896Y-59935824D01*
X56636000Y-59935824D01*
X56636000Y-58420000D01*
X144863604Y-58420000D01*
X144952178Y-58865290D01*
X145204415Y-59242789D01*
X145581914Y-59495026D01*
X146027204Y-59583600D01*
X146072796Y-59583600D01*
X146518086Y-59495026D01*
X146895585Y-59242789D01*
X147147822Y-58865290D01*
X147236396Y-58420000D01*
X147403604Y-58420000D01*
X147492178Y-58865290D01*
X147744415Y-59242789D01*
X148121914Y-59495026D01*
X148567204Y-59583600D01*
X148612796Y-59583600D01*
X149058086Y-59495026D01*
X149435585Y-59242789D01*
X149687822Y-58865290D01*
X149776396Y-58420000D01*
X149687822Y-57974710D01*
X149435585Y-57597211D01*
X149058086Y-57344974D01*
X148612796Y-57256400D01*
X148567204Y-57256400D01*
X148121914Y-57344974D01*
X147744415Y-57597211D01*
X147492178Y-57974710D01*
X147403604Y-58420000D01*
X147236396Y-58420000D01*
X147147822Y-57974710D01*
X146895585Y-57597211D01*
X146518086Y-57344974D01*
X146072796Y-57256400D01*
X146027204Y-57256400D01*
X145581914Y-57344974D01*
X145204415Y-57597211D01*
X144952178Y-57974710D01*
X144863604Y-58420000D01*
X56636000Y-58420000D01*
X56636000Y-55880000D01*
X144863604Y-55880000D01*
X144952178Y-56325290D01*
X145204415Y-56702789D01*
X145581914Y-56955026D01*
X146027204Y-57043600D01*
X146072796Y-57043600D01*
X146518086Y-56955026D01*
X146895585Y-56702789D01*
X147147822Y-56325290D01*
X147236396Y-55880000D01*
X147403604Y-55880000D01*
X147492178Y-56325290D01*
X147744415Y-56702789D01*
X148121914Y-56955026D01*
X148567204Y-57043600D01*
X148612796Y-57043600D01*
X149058086Y-56955026D01*
X149435585Y-56702789D01*
X149687822Y-56325290D01*
X149776396Y-55880000D01*
X149687822Y-55434710D01*
X149435585Y-55057211D01*
X149058086Y-54804974D01*
X148612796Y-54716400D01*
X148567204Y-54716400D01*
X148121914Y-54804974D01*
X147744415Y-55057211D01*
X147492178Y-55434710D01*
X147403604Y-55880000D01*
X147236396Y-55880000D01*
X147147822Y-55434710D01*
X146895585Y-55057211D01*
X146518086Y-54804974D01*
X146072796Y-54716400D01*
X146027204Y-54716400D01*
X145581914Y-54804974D01*
X145204415Y-55057211D01*
X144952178Y-55434710D01*
X144863604Y-55880000D01*
X56636000Y-55880000D01*
X56636000Y-53340000D01*
X144863604Y-53340000D01*
X144952178Y-53785290D01*
X145204415Y-54162789D01*
X145581914Y-54415026D01*
X146027204Y-54503600D01*
X146072796Y-54503600D01*
X146518086Y-54415026D01*
X146895585Y-54162789D01*
X147147822Y-53785290D01*
X147236396Y-53340000D01*
X147403604Y-53340000D01*
X147492178Y-53785290D01*
X147744415Y-54162789D01*
X148121914Y-54415026D01*
X148567204Y-54503600D01*
X148612796Y-54503600D01*
X149058086Y-54415026D01*
X149435585Y-54162789D01*
X149687822Y-53785290D01*
X149776396Y-53340000D01*
X149687822Y-52894710D01*
X149435585Y-52517211D01*
X149058086Y-52264974D01*
X148612796Y-52176400D01*
X148567204Y-52176400D01*
X148121914Y-52264974D01*
X147744415Y-52517211D01*
X147492178Y-52894710D01*
X147403604Y-53340000D01*
X147236396Y-53340000D01*
X147147822Y-52894710D01*
X146895585Y-52517211D01*
X146518086Y-52264974D01*
X146072796Y-52176400D01*
X146027204Y-52176400D01*
X145581914Y-52264974D01*
X145204415Y-52517211D01*
X144952178Y-52894710D01*
X144863604Y-53340000D01*
X56636000Y-53340000D01*
X56636000Y-52442824D01*
X60232896Y-52442824D01*
X60324048Y-52663429D01*
X60492683Y-52832359D01*
X60713129Y-52923896D01*
X60951824Y-52924104D01*
X61172429Y-52832952D01*
X61341359Y-52664317D01*
X61432896Y-52443871D01*
X61433104Y-52205176D01*
X61373873Y-52061824D01*
X67852896Y-52061824D01*
X67944048Y-52282429D01*
X68112683Y-52451359D01*
X68333129Y-52542896D01*
X68571824Y-52543104D01*
X68792429Y-52451952D01*
X68961359Y-52283317D01*
X69052896Y-52062871D01*
X69052896Y-52061824D01*
X75980896Y-52061824D01*
X76072048Y-52282429D01*
X76240683Y-52451359D01*
X76461129Y-52542896D01*
X76699824Y-52543104D01*
X76920429Y-52451952D01*
X77089359Y-52283317D01*
X77180896Y-52062871D01*
X77180896Y-52061824D01*
X84235896Y-52061824D01*
X84327048Y-52282429D01*
X84495683Y-52451359D01*
X84716129Y-52542896D01*
X84954824Y-52543104D01*
X85175429Y-52451952D01*
X85344359Y-52283317D01*
X85435896Y-52062871D01*
X85435896Y-52061824D01*
X92363896Y-52061824D01*
X92455048Y-52282429D01*
X92623683Y-52451359D01*
X92844129Y-52542896D01*
X93082824Y-52543104D01*
X93303429Y-52451952D01*
X93472359Y-52283317D01*
X93563896Y-52062871D01*
X93563896Y-52061824D01*
X100491896Y-52061824D01*
X100583048Y-52282429D01*
X100751683Y-52451359D01*
X100972129Y-52542896D01*
X101210824Y-52543104D01*
X101431429Y-52451952D01*
X101600359Y-52283317D01*
X101691896Y-52062871D01*
X101691896Y-52061824D01*
X108619896Y-52061824D01*
X108711048Y-52282429D01*
X108879683Y-52451359D01*
X109100129Y-52542896D01*
X109338824Y-52543104D01*
X109559429Y-52451952D01*
X109728359Y-52283317D01*
X109819896Y-52062871D01*
X109819896Y-52061824D01*
X116747896Y-52061824D01*
X116839048Y-52282429D01*
X117007683Y-52451359D01*
X117228129Y-52542896D01*
X117466824Y-52543104D01*
X117687429Y-52451952D01*
X117856359Y-52283317D01*
X117947896Y-52062871D01*
X117947896Y-52061824D01*
X124875896Y-52061824D01*
X124967048Y-52282429D01*
X125135683Y-52451359D01*
X125356129Y-52542896D01*
X125594824Y-52543104D01*
X125815429Y-52451952D01*
X125984359Y-52283317D01*
X126075896Y-52062871D01*
X126076104Y-51824176D01*
X125984952Y-51603571D01*
X125816317Y-51434641D01*
X125595871Y-51343104D01*
X125357176Y-51342896D01*
X125136571Y-51434048D01*
X124967641Y-51602683D01*
X124876104Y-51823129D01*
X124875896Y-52061824D01*
X117947896Y-52061824D01*
X117948104Y-51824176D01*
X117856952Y-51603571D01*
X117688317Y-51434641D01*
X117467871Y-51343104D01*
X117229176Y-51342896D01*
X117008571Y-51434048D01*
X116839641Y-51602683D01*
X116748104Y-51823129D01*
X116747896Y-52061824D01*
X109819896Y-52061824D01*
X109820104Y-51824176D01*
X109728952Y-51603571D01*
X109560317Y-51434641D01*
X109339871Y-51343104D01*
X109101176Y-51342896D01*
X108880571Y-51434048D01*
X108711641Y-51602683D01*
X108620104Y-51823129D01*
X108619896Y-52061824D01*
X101691896Y-52061824D01*
X101692104Y-51824176D01*
X101600952Y-51603571D01*
X101432317Y-51434641D01*
X101211871Y-51343104D01*
X100973176Y-51342896D01*
X100752571Y-51434048D01*
X100583641Y-51602683D01*
X100492104Y-51823129D01*
X100491896Y-52061824D01*
X93563896Y-52061824D01*
X93564104Y-51824176D01*
X93472952Y-51603571D01*
X93304317Y-51434641D01*
X93083871Y-51343104D01*
X92845176Y-51342896D01*
X92624571Y-51434048D01*
X92455641Y-51602683D01*
X92364104Y-51823129D01*
X92363896Y-52061824D01*
X85435896Y-52061824D01*
X85436104Y-51824176D01*
X85344952Y-51603571D01*
X85176317Y-51434641D01*
X84955871Y-51343104D01*
X84717176Y-51342896D01*
X84496571Y-51434048D01*
X84327641Y-51602683D01*
X84236104Y-51823129D01*
X84235896Y-52061824D01*
X77180896Y-52061824D01*
X77181104Y-51824176D01*
X77089952Y-51603571D01*
X76921317Y-51434641D01*
X76700871Y-51343104D01*
X76462176Y-51342896D01*
X76241571Y-51434048D01*
X76072641Y-51602683D01*
X75981104Y-51823129D01*
X75980896Y-52061824D01*
X69052896Y-52061824D01*
X69053104Y-51824176D01*
X68961952Y-51603571D01*
X68793317Y-51434641D01*
X68572871Y-51343104D01*
X68334176Y-51342896D01*
X68113571Y-51434048D01*
X67944641Y-51602683D01*
X67853104Y-51823129D01*
X67852896Y-52061824D01*
X61373873Y-52061824D01*
X61341952Y-51984571D01*
X61173317Y-51815641D01*
X60952871Y-51724104D01*
X60714176Y-51723896D01*
X60493571Y-51815048D01*
X60324641Y-51983683D01*
X60233104Y-52204129D01*
X60232896Y-52442824D01*
X56636000Y-52442824D01*
X56636000Y-50800000D01*
X144863604Y-50800000D01*
X144952178Y-51245290D01*
X145204415Y-51622789D01*
X145581914Y-51875026D01*
X146027204Y-51963600D01*
X146072796Y-51963600D01*
X146518086Y-51875026D01*
X146895585Y-51622789D01*
X147147822Y-51245290D01*
X147236396Y-50800000D01*
X147403604Y-50800000D01*
X147492178Y-51245290D01*
X147744415Y-51622789D01*
X148121914Y-51875026D01*
X148567204Y-51963600D01*
X148612796Y-51963600D01*
X149058086Y-51875026D01*
X149435585Y-51622789D01*
X149687822Y-51245290D01*
X149776396Y-50800000D01*
X149687822Y-50354710D01*
X149435585Y-49977211D01*
X149058086Y-49724974D01*
X148612796Y-49636400D01*
X148567204Y-49636400D01*
X148121914Y-49724974D01*
X147744415Y-49977211D01*
X147492178Y-50354710D01*
X147403604Y-50800000D01*
X147236396Y-50800000D01*
X147147822Y-50354710D01*
X146895585Y-49977211D01*
X146518086Y-49724974D01*
X146072796Y-49636400D01*
X146027204Y-49636400D01*
X145581914Y-49724974D01*
X145204415Y-49977211D01*
X144952178Y-50354710D01*
X144863604Y-50800000D01*
X56636000Y-50800000D01*
X56636000Y-48378824D01*
X58454896Y-48378824D01*
X58546048Y-48599429D01*
X58714683Y-48768359D01*
X58935129Y-48859896D01*
X59173824Y-48860104D01*
X59394429Y-48768952D01*
X59563359Y-48600317D01*
X59654896Y-48379871D01*
X59655007Y-48251824D01*
X67471896Y-48251824D01*
X67563048Y-48472429D01*
X67731683Y-48641359D01*
X67952129Y-48732896D01*
X68190824Y-48733104D01*
X68411429Y-48641952D01*
X68580359Y-48473317D01*
X68619595Y-48378824D01*
X140242896Y-48378824D01*
X140334048Y-48599429D01*
X140502683Y-48768359D01*
X140723129Y-48859896D01*
X140961824Y-48860104D01*
X141182429Y-48768952D01*
X141351359Y-48600317D01*
X141442896Y-48379871D01*
X141443000Y-48260000D01*
X144863604Y-48260000D01*
X144952178Y-48705290D01*
X145204415Y-49082789D01*
X145581914Y-49335026D01*
X146027204Y-49423600D01*
X146072796Y-49423600D01*
X146518086Y-49335026D01*
X146895585Y-49082789D01*
X147147822Y-48705290D01*
X147236396Y-48260000D01*
X147403604Y-48260000D01*
X147492178Y-48705290D01*
X147744415Y-49082789D01*
X148121914Y-49335026D01*
X148567204Y-49423600D01*
X148612796Y-49423600D01*
X149058086Y-49335026D01*
X149435585Y-49082789D01*
X149687822Y-48705290D01*
X149776396Y-48260000D01*
X149687822Y-47814710D01*
X149435585Y-47437211D01*
X149058086Y-47184974D01*
X148612796Y-47096400D01*
X148567204Y-47096400D01*
X148121914Y-47184974D01*
X147744415Y-47437211D01*
X147492178Y-47814710D01*
X147403604Y-48260000D01*
X147236396Y-48260000D01*
X147147822Y-47814710D01*
X146895585Y-47437211D01*
X146518086Y-47184974D01*
X146072796Y-47096400D01*
X146027204Y-47096400D01*
X145581914Y-47184974D01*
X145204415Y-47437211D01*
X144952178Y-47814710D01*
X144863604Y-48260000D01*
X141443000Y-48260000D01*
X141443104Y-48141176D01*
X141351952Y-47920571D01*
X141183317Y-47751641D01*
X140962871Y-47660104D01*
X140724176Y-47659896D01*
X140503571Y-47751048D01*
X140334641Y-47919683D01*
X140243104Y-48140129D01*
X140242896Y-48378824D01*
X68619595Y-48378824D01*
X68671896Y-48252871D01*
X68672104Y-48014176D01*
X68580952Y-47793571D01*
X68412317Y-47624641D01*
X68191871Y-47533104D01*
X67953176Y-47532896D01*
X67732571Y-47624048D01*
X67563641Y-47792683D01*
X67472104Y-48013129D01*
X67471896Y-48251824D01*
X59655007Y-48251824D01*
X59655104Y-48141176D01*
X59563952Y-47920571D01*
X59395317Y-47751641D01*
X59174871Y-47660104D01*
X58936176Y-47659896D01*
X58715571Y-47751048D01*
X58546641Y-47919683D01*
X58455104Y-48140129D01*
X58454896Y-48378824D01*
X56636000Y-48378824D01*
X56636000Y-45838824D01*
X140877896Y-45838824D01*
X140969048Y-46059429D01*
X141137683Y-46228359D01*
X141358129Y-46319896D01*
X141596824Y-46320104D01*
X141817429Y-46228952D01*
X141986359Y-46060317D01*
X142077896Y-45839871D01*
X142078000Y-45720000D01*
X144863604Y-45720000D01*
X144952178Y-46165290D01*
X145204415Y-46542789D01*
X145581914Y-46795026D01*
X146027204Y-46883600D01*
X146072796Y-46883600D01*
X146518086Y-46795026D01*
X146895585Y-46542789D01*
X147147822Y-46165290D01*
X147236396Y-45720000D01*
X147403604Y-45720000D01*
X147492178Y-46165290D01*
X147744415Y-46542789D01*
X148121914Y-46795026D01*
X148567204Y-46883600D01*
X148612796Y-46883600D01*
X149058086Y-46795026D01*
X149435585Y-46542789D01*
X149687822Y-46165290D01*
X149776396Y-45720000D01*
X149687822Y-45274710D01*
X149435585Y-44897211D01*
X149058086Y-44644974D01*
X148612796Y-44556400D01*
X148567204Y-44556400D01*
X148121914Y-44644974D01*
X147744415Y-44897211D01*
X147492178Y-45274710D01*
X147403604Y-45720000D01*
X147236396Y-45720000D01*
X147147822Y-45274710D01*
X146895585Y-44897211D01*
X146518086Y-44644974D01*
X146072796Y-44556400D01*
X146027204Y-44556400D01*
X145581914Y-44644974D01*
X145204415Y-44897211D01*
X144952178Y-45274710D01*
X144863604Y-45720000D01*
X142078000Y-45720000D01*
X142078104Y-45601176D01*
X141986952Y-45380571D01*
X141818317Y-45211641D01*
X141597871Y-45120104D01*
X141359176Y-45119896D01*
X141138571Y-45211048D01*
X140969641Y-45379683D01*
X140878104Y-45600129D01*
X140877896Y-45838824D01*
X56636000Y-45838824D01*
X56636000Y-43425824D01*
X91220896Y-43425824D01*
X91312048Y-43646429D01*
X91480683Y-43815359D01*
X91701129Y-43906896D01*
X91939824Y-43907104D01*
X92160429Y-43815952D01*
X92329359Y-43647317D01*
X92420896Y-43426871D01*
X92420896Y-43425824D01*
X113191896Y-43425824D01*
X113283048Y-43646429D01*
X113451683Y-43815359D01*
X113672129Y-43906896D01*
X113910824Y-43907104D01*
X114131429Y-43815952D01*
X114300359Y-43647317D01*
X114391896Y-43426871D01*
X114392007Y-43298824D01*
X141512896Y-43298824D01*
X141604048Y-43519429D01*
X141772683Y-43688359D01*
X141993129Y-43779896D01*
X142231824Y-43780104D01*
X142452429Y-43688952D01*
X142621359Y-43520317D01*
X142712896Y-43299871D01*
X142713000Y-43180000D01*
X144863604Y-43180000D01*
X144952178Y-43625290D01*
X145204415Y-44002789D01*
X145581914Y-44255026D01*
X146027204Y-44343600D01*
X146072796Y-44343600D01*
X146518086Y-44255026D01*
X146895585Y-44002789D01*
X147147822Y-43625290D01*
X147236396Y-43180000D01*
X147403604Y-43180000D01*
X147492178Y-43625290D01*
X147744415Y-44002789D01*
X148121914Y-44255026D01*
X148567204Y-44343600D01*
X148612796Y-44343600D01*
X149058086Y-44255026D01*
X149435585Y-44002789D01*
X149687822Y-43625290D01*
X149776396Y-43180000D01*
X149687822Y-42734710D01*
X149435585Y-42357211D01*
X149058086Y-42104974D01*
X148612796Y-42016400D01*
X148567204Y-42016400D01*
X148121914Y-42104974D01*
X147744415Y-42357211D01*
X147492178Y-42734710D01*
X147403604Y-43180000D01*
X147236396Y-43180000D01*
X147147822Y-42734710D01*
X146895585Y-42357211D01*
X146518086Y-42104974D01*
X146072796Y-42016400D01*
X146027204Y-42016400D01*
X145581914Y-42104974D01*
X145204415Y-42357211D01*
X144952178Y-42734710D01*
X144863604Y-43180000D01*
X142713000Y-43180000D01*
X142713104Y-43061176D01*
X142621952Y-42840571D01*
X142453317Y-42671641D01*
X142232871Y-42580104D01*
X141994176Y-42579896D01*
X141773571Y-42671048D01*
X141604641Y-42839683D01*
X141513104Y-43060129D01*
X141512896Y-43298824D01*
X114392007Y-43298824D01*
X114392104Y-43188176D01*
X114300952Y-42967571D01*
X114132317Y-42798641D01*
X113911871Y-42707104D01*
X113673176Y-42706896D01*
X113452571Y-42798048D01*
X113283641Y-42966683D01*
X113192104Y-43187129D01*
X113191896Y-43425824D01*
X92420896Y-43425824D01*
X92421104Y-43188176D01*
X92329952Y-42967571D01*
X92161317Y-42798641D01*
X91940871Y-42707104D01*
X91702176Y-42706896D01*
X91481571Y-42798048D01*
X91312641Y-42966683D01*
X91221104Y-43187129D01*
X91220896Y-43425824D01*
X56636000Y-43425824D01*
X56636000Y-42663824D01*
X65820896Y-42663824D01*
X65912048Y-42884429D01*
X66080683Y-43053359D01*
X66301129Y-43144896D01*
X66539824Y-43145104D01*
X66760429Y-43053952D01*
X66929359Y-42885317D01*
X67020896Y-42664871D01*
X67021104Y-42426176D01*
X66929952Y-42205571D01*
X66761317Y-42036641D01*
X66540871Y-41945104D01*
X66302176Y-41944896D01*
X66081571Y-42036048D01*
X65912641Y-42204683D01*
X65821104Y-42425129D01*
X65820896Y-42663824D01*
X56636000Y-42663824D01*
X56636000Y-41774824D01*
X127542896Y-41774824D01*
X127634048Y-41995429D01*
X127802683Y-42164359D01*
X128023129Y-42255896D01*
X128261824Y-42256104D01*
X128482429Y-42164952D01*
X128651359Y-41996317D01*
X128742896Y-41775871D01*
X128743104Y-41537176D01*
X128651952Y-41316571D01*
X128483317Y-41147641D01*
X128262871Y-41056104D01*
X128024176Y-41055896D01*
X127803571Y-41147048D01*
X127634641Y-41315683D01*
X127543104Y-41536129D01*
X127542896Y-41774824D01*
X56636000Y-41774824D01*
X56636000Y-40640000D01*
X144863604Y-40640000D01*
X144952178Y-41085290D01*
X145204415Y-41462789D01*
X145581914Y-41715026D01*
X146027204Y-41803600D01*
X146072796Y-41803600D01*
X146518086Y-41715026D01*
X146895585Y-41462789D01*
X147147822Y-41085290D01*
X147236396Y-40640000D01*
X147403604Y-40640000D01*
X147492178Y-41085290D01*
X147744415Y-41462789D01*
X148121914Y-41715026D01*
X148567204Y-41803600D01*
X148612796Y-41803600D01*
X149058086Y-41715026D01*
X149435585Y-41462789D01*
X149687822Y-41085290D01*
X149776396Y-40640000D01*
X149687822Y-40194710D01*
X149435585Y-39817211D01*
X149058086Y-39564974D01*
X148612796Y-39476400D01*
X148567204Y-39476400D01*
X148121914Y-39564974D01*
X147744415Y-39817211D01*
X147492178Y-40194710D01*
X147403604Y-40640000D01*
X147236396Y-40640000D01*
X147147822Y-40194710D01*
X146895585Y-39817211D01*
X146518086Y-39564974D01*
X146072796Y-39476400D01*
X146027204Y-39476400D01*
X145581914Y-39564974D01*
X145204415Y-39817211D01*
X144952178Y-40194710D01*
X144863604Y-40640000D01*
X56636000Y-40640000D01*
X56636000Y-39615824D01*
X136686896Y-39615824D01*
X136778048Y-39836429D01*
X136946683Y-40005359D01*
X137167129Y-40096896D01*
X137405824Y-40097104D01*
X137626429Y-40005952D01*
X137795359Y-39837317D01*
X137886896Y-39616871D01*
X137887104Y-39378176D01*
X137795952Y-39157571D01*
X137627317Y-38988641D01*
X137406871Y-38897104D01*
X137168176Y-38896896D01*
X136947571Y-38988048D01*
X136778641Y-39156683D01*
X136687104Y-39377129D01*
X136686896Y-39615824D01*
X56636000Y-39615824D01*
X56636000Y-38472824D01*
X83346896Y-38472824D01*
X83438048Y-38693429D01*
X83606683Y-38862359D01*
X83827129Y-38953896D01*
X84065824Y-38954104D01*
X84286429Y-38862952D01*
X84455359Y-38694317D01*
X84546896Y-38473871D01*
X84546896Y-38472824D01*
X105190896Y-38472824D01*
X105282048Y-38693429D01*
X105450683Y-38862359D01*
X105671129Y-38953896D01*
X105909824Y-38954104D01*
X106130429Y-38862952D01*
X106299359Y-38694317D01*
X106390896Y-38473871D01*
X106391007Y-38345824D01*
X130336896Y-38345824D01*
X130428048Y-38566429D01*
X130596683Y-38735359D01*
X130817129Y-38826896D01*
X131055824Y-38827104D01*
X131276429Y-38735952D01*
X131445359Y-38567317D01*
X131536896Y-38346871D01*
X131537104Y-38108176D01*
X131533726Y-38100000D01*
X144863604Y-38100000D01*
X144952178Y-38545290D01*
X145204415Y-38922789D01*
X145581914Y-39175026D01*
X146027204Y-39263600D01*
X146072796Y-39263600D01*
X146518086Y-39175026D01*
X146895585Y-38922789D01*
X147147822Y-38545290D01*
X147236396Y-38100000D01*
X147403604Y-38100000D01*
X147492178Y-38545290D01*
X147744415Y-38922789D01*
X148121914Y-39175026D01*
X148567204Y-39263600D01*
X148612796Y-39263600D01*
X149058086Y-39175026D01*
X149435585Y-38922789D01*
X149687822Y-38545290D01*
X149776396Y-38100000D01*
X149687822Y-37654710D01*
X149435585Y-37277211D01*
X149058086Y-37024974D01*
X148612796Y-36936400D01*
X148567204Y-36936400D01*
X148121914Y-37024974D01*
X147744415Y-37277211D01*
X147492178Y-37654710D01*
X147403604Y-38100000D01*
X147236396Y-38100000D01*
X147147822Y-37654710D01*
X146895585Y-37277211D01*
X146518086Y-37024974D01*
X146072796Y-36936400D01*
X146027204Y-36936400D01*
X145581914Y-37024974D01*
X145204415Y-37277211D01*
X144952178Y-37654710D01*
X144863604Y-38100000D01*
X131533726Y-38100000D01*
X131445952Y-37887571D01*
X131277317Y-37718641D01*
X131056871Y-37627104D01*
X130818176Y-37626896D01*
X130597571Y-37718048D01*
X130428641Y-37886683D01*
X130337104Y-38107129D01*
X130336896Y-38345824D01*
X106391007Y-38345824D01*
X106391104Y-38235176D01*
X106299952Y-38014571D01*
X106131317Y-37845641D01*
X105910871Y-37754104D01*
X105672176Y-37753896D01*
X105451571Y-37845048D01*
X105282641Y-38013683D01*
X105191104Y-38234129D01*
X105190896Y-38472824D01*
X84546896Y-38472824D01*
X84547104Y-38235176D01*
X84455952Y-38014571D01*
X84287317Y-37845641D01*
X84066871Y-37754104D01*
X83828176Y-37753896D01*
X83607571Y-37845048D01*
X83438641Y-38013683D01*
X83347104Y-38234129D01*
X83346896Y-38472824D01*
X56636000Y-38472824D01*
X56636000Y-37075824D01*
X141512896Y-37075824D01*
X141604048Y-37296429D01*
X141772683Y-37465359D01*
X141993129Y-37556896D01*
X142231824Y-37557104D01*
X142452429Y-37465952D01*
X142621359Y-37297317D01*
X142712896Y-37076871D01*
X142713104Y-36838176D01*
X142621952Y-36617571D01*
X142453317Y-36448641D01*
X142232871Y-36357104D01*
X141994176Y-36356896D01*
X141773571Y-36448048D01*
X141604641Y-36616683D01*
X141513104Y-36837129D01*
X141512896Y-37075824D01*
X56636000Y-37075824D01*
X56636000Y-35805824D01*
X58327896Y-35805824D01*
X58419048Y-36026429D01*
X58587683Y-36195359D01*
X58808129Y-36286896D01*
X59046824Y-36287104D01*
X59267429Y-36195952D01*
X59436359Y-36027317D01*
X59527896Y-35806871D01*
X59528104Y-35568176D01*
X59436952Y-35347571D01*
X59268317Y-35178641D01*
X59249492Y-35170824D01*
X88426896Y-35170824D01*
X88518048Y-35391429D01*
X88686683Y-35560359D01*
X88907129Y-35651896D01*
X89145824Y-35652104D01*
X89366429Y-35560952D01*
X89367382Y-35560000D01*
X144863604Y-35560000D01*
X144952178Y-36005290D01*
X145204415Y-36382789D01*
X145581914Y-36635026D01*
X146027204Y-36723600D01*
X146072796Y-36723600D01*
X146518086Y-36635026D01*
X146895585Y-36382789D01*
X147147822Y-36005290D01*
X147236396Y-35560000D01*
X147403604Y-35560000D01*
X147492178Y-36005290D01*
X147744415Y-36382789D01*
X148121914Y-36635026D01*
X148567204Y-36723600D01*
X148612796Y-36723600D01*
X149058086Y-36635026D01*
X149435585Y-36382789D01*
X149687822Y-36005290D01*
X149776396Y-35560000D01*
X149687822Y-35114710D01*
X149435585Y-34737211D01*
X149058086Y-34484974D01*
X148612796Y-34396400D01*
X148567204Y-34396400D01*
X148121914Y-34484974D01*
X147744415Y-34737211D01*
X147492178Y-35114710D01*
X147403604Y-35560000D01*
X147236396Y-35560000D01*
X147147822Y-35114710D01*
X146895585Y-34737211D01*
X146518086Y-34484974D01*
X146072796Y-34396400D01*
X146027204Y-34396400D01*
X145581914Y-34484974D01*
X145204415Y-34737211D01*
X144952178Y-35114710D01*
X144863604Y-35560000D01*
X89367382Y-35560000D01*
X89535359Y-35392317D01*
X89626896Y-35171871D01*
X89627104Y-34933176D01*
X89535952Y-34712571D01*
X89367317Y-34543641D01*
X89348492Y-34535824D01*
X140877896Y-34535824D01*
X140969048Y-34756429D01*
X141137683Y-34925359D01*
X141358129Y-35016896D01*
X141596824Y-35017104D01*
X141817429Y-34925952D01*
X141986359Y-34757317D01*
X142077896Y-34536871D01*
X142078104Y-34298176D01*
X141986952Y-34077571D01*
X141818317Y-33908641D01*
X141597871Y-33817104D01*
X141359176Y-33816896D01*
X141138571Y-33908048D01*
X140969641Y-34076683D01*
X140878104Y-34297129D01*
X140877896Y-34535824D01*
X89348492Y-34535824D01*
X89146871Y-34452104D01*
X88908176Y-34451896D01*
X88687571Y-34543048D01*
X88518641Y-34711683D01*
X88427104Y-34932129D01*
X88426896Y-35170824D01*
X59249492Y-35170824D01*
X59047871Y-35087104D01*
X58809176Y-35086896D01*
X58588571Y-35178048D01*
X58419641Y-35346683D01*
X58328104Y-35567129D01*
X58327896Y-35805824D01*
X56636000Y-35805824D01*
X56636000Y-33265824D01*
X58327896Y-33265824D01*
X58419048Y-33486429D01*
X58587683Y-33655359D01*
X58808129Y-33746896D01*
X59046824Y-33747104D01*
X59267429Y-33655952D01*
X59436359Y-33487317D01*
X59527896Y-33266871D01*
X59528104Y-33028176D01*
X59524726Y-33020000D01*
X144863604Y-33020000D01*
X144952178Y-33465290D01*
X145204415Y-33842789D01*
X145581914Y-34095026D01*
X146027204Y-34183600D01*
X146072796Y-34183600D01*
X146518086Y-34095026D01*
X146895585Y-33842789D01*
X147147822Y-33465290D01*
X147236396Y-33020000D01*
X147403604Y-33020000D01*
X147492178Y-33465290D01*
X147744415Y-33842789D01*
X148121914Y-34095026D01*
X148567204Y-34183600D01*
X148612796Y-34183600D01*
X149058086Y-34095026D01*
X149435585Y-33842789D01*
X149687822Y-33465290D01*
X149776396Y-33020000D01*
X149687822Y-32574710D01*
X149435585Y-32197211D01*
X149058086Y-31944974D01*
X148612796Y-31856400D01*
X148567204Y-31856400D01*
X148121914Y-31944974D01*
X147744415Y-32197211D01*
X147492178Y-32574710D01*
X147403604Y-33020000D01*
X147236396Y-33020000D01*
X147147822Y-32574710D01*
X146895585Y-32197211D01*
X146518086Y-31944974D01*
X146072796Y-31856400D01*
X146027204Y-31856400D01*
X145581914Y-31944974D01*
X145204415Y-32197211D01*
X144952178Y-32574710D01*
X144863604Y-33020000D01*
X59524726Y-33020000D01*
X59436952Y-32807571D01*
X59268317Y-32638641D01*
X59047871Y-32547104D01*
X58809176Y-32546896D01*
X58588571Y-32638048D01*
X58419641Y-32806683D01*
X58328104Y-33027129D01*
X58327896Y-33265824D01*
X56636000Y-33265824D01*
X56636000Y-31995824D01*
X140242896Y-31995824D01*
X140334048Y-32216429D01*
X140502683Y-32385359D01*
X140723129Y-32476896D01*
X140961824Y-32477104D01*
X141182429Y-32385952D01*
X141351359Y-32217317D01*
X141442896Y-31996871D01*
X141443104Y-31758176D01*
X141351952Y-31537571D01*
X141183317Y-31368641D01*
X140962871Y-31277104D01*
X140724176Y-31276896D01*
X140503571Y-31368048D01*
X140334641Y-31536683D01*
X140243104Y-31757129D01*
X140242896Y-31995824D01*
X56636000Y-31995824D01*
X56636000Y-30725824D01*
X58581896Y-30725824D01*
X58673048Y-30946429D01*
X58841683Y-31115359D01*
X59062129Y-31206896D01*
X59300824Y-31207104D01*
X59521429Y-31115952D01*
X59690359Y-30947317D01*
X59781896Y-30726871D01*
X59782104Y-30488176D01*
X59778726Y-30480000D01*
X144863604Y-30480000D01*
X144952178Y-30925290D01*
X145204415Y-31302789D01*
X145581914Y-31555026D01*
X146027204Y-31643600D01*
X146072796Y-31643600D01*
X146518086Y-31555026D01*
X146895585Y-31302789D01*
X147147822Y-30925290D01*
X147236396Y-30480000D01*
X147403604Y-30480000D01*
X147492178Y-30925290D01*
X147744415Y-31302789D01*
X148121914Y-31555026D01*
X148567204Y-31643600D01*
X148612796Y-31643600D01*
X149058086Y-31555026D01*
X149435585Y-31302789D01*
X149687822Y-30925290D01*
X149776396Y-30480000D01*
X149687822Y-30034710D01*
X149435585Y-29657211D01*
X149058086Y-29404974D01*
X148612796Y-29316400D01*
X148567204Y-29316400D01*
X148121914Y-29404974D01*
X147744415Y-29657211D01*
X147492178Y-30034710D01*
X147403604Y-30480000D01*
X147236396Y-30480000D01*
X147147822Y-30034710D01*
X146895585Y-29657211D01*
X146518086Y-29404974D01*
X146072796Y-29316400D01*
X146027204Y-29316400D01*
X145581914Y-29404974D01*
X145204415Y-29657211D01*
X144952178Y-30034710D01*
X144863604Y-30480000D01*
X59778726Y-30480000D01*
X59690952Y-30267571D01*
X59522317Y-30098641D01*
X59301871Y-30007104D01*
X59063176Y-30006896D01*
X58842571Y-30098048D01*
X58673641Y-30266683D01*
X58582104Y-30487129D01*
X58581896Y-30725824D01*
X56636000Y-30725824D01*
X56636000Y-29455824D01*
X69376896Y-29455824D01*
X69468048Y-29676429D01*
X69636683Y-29845359D01*
X69857129Y-29936896D01*
X70095824Y-29937104D01*
X70316429Y-29845952D01*
X70485359Y-29677317D01*
X70576896Y-29456871D01*
X70577104Y-29218176D01*
X70485952Y-28997571D01*
X70317317Y-28828641D01*
X70096871Y-28737104D01*
X69858176Y-28736896D01*
X69637571Y-28828048D01*
X69468641Y-28996683D01*
X69377104Y-29217129D01*
X69376896Y-29455824D01*
X56636000Y-29455824D01*
X56636000Y-28058824D01*
X59089896Y-28058824D01*
X59181048Y-28279429D01*
X59349683Y-28448359D01*
X59570129Y-28539896D01*
X59808824Y-28540104D01*
X60029429Y-28448952D01*
X60198359Y-28280317D01*
X60237595Y-28185824D01*
X63153896Y-28185824D01*
X63245048Y-28406429D01*
X63413683Y-28575359D01*
X63634129Y-28666896D01*
X63872824Y-28667104D01*
X64093429Y-28575952D01*
X64262359Y-28407317D01*
X64353896Y-28186871D01*
X64354104Y-27948176D01*
X64350726Y-27940000D01*
X144863604Y-27940000D01*
X144952178Y-28385290D01*
X145204415Y-28762789D01*
X145581914Y-29015026D01*
X146027204Y-29103600D01*
X146072796Y-29103600D01*
X146518086Y-29015026D01*
X146895585Y-28762789D01*
X147147822Y-28385290D01*
X147236396Y-27940000D01*
X147403604Y-27940000D01*
X147492178Y-28385290D01*
X147744415Y-28762789D01*
X148121914Y-29015026D01*
X148567204Y-29103600D01*
X148612796Y-29103600D01*
X149058086Y-29015026D01*
X149435585Y-28762789D01*
X149687822Y-28385290D01*
X149776396Y-27940000D01*
X149687822Y-27494710D01*
X149435585Y-27117211D01*
X149058086Y-26864974D01*
X148612796Y-26776400D01*
X148567204Y-26776400D01*
X148121914Y-26864974D01*
X147744415Y-27117211D01*
X147492178Y-27494710D01*
X147403604Y-27940000D01*
X147236396Y-27940000D01*
X147147822Y-27494710D01*
X146895585Y-27117211D01*
X146518086Y-26864974D01*
X146072796Y-26776400D01*
X146027204Y-26776400D01*
X145581914Y-26864974D01*
X145204415Y-27117211D01*
X144952178Y-27494710D01*
X144863604Y-27940000D01*
X64350726Y-27940000D01*
X64262952Y-27727571D01*
X64094317Y-27558641D01*
X63873871Y-27467104D01*
X63635176Y-27466896D01*
X63414571Y-27558048D01*
X63245641Y-27726683D01*
X63154104Y-27947129D01*
X63153896Y-28185824D01*
X60237595Y-28185824D01*
X60289896Y-28059871D01*
X60290104Y-27821176D01*
X60198952Y-27600571D01*
X60030317Y-27431641D01*
X59867420Y-27364000D01*
X77536000Y-27364000D01*
X77536000Y-27648674D01*
X77581672Y-27758937D01*
X77666064Y-27843328D01*
X77776327Y-27889000D01*
X78361000Y-27889000D01*
X78436000Y-27814000D01*
X78436000Y-27289000D01*
X78536000Y-27289000D01*
X78536000Y-27814000D01*
X78611000Y-27889000D01*
X79195673Y-27889000D01*
X79305936Y-27843328D01*
X79390328Y-27758937D01*
X79436000Y-27648674D01*
X79436000Y-27364000D01*
X79361000Y-27289000D01*
X78536000Y-27289000D01*
X78436000Y-27289000D01*
X77611000Y-27289000D01*
X77536000Y-27364000D01*
X59867420Y-27364000D01*
X59809871Y-27340104D01*
X59571176Y-27339896D01*
X59350571Y-27431048D01*
X59181641Y-27599683D01*
X59090104Y-27820129D01*
X59089896Y-28058824D01*
X56636000Y-28058824D01*
X56636000Y-26829326D01*
X77536000Y-26829326D01*
X77536000Y-27114000D01*
X77611000Y-27189000D01*
X78436000Y-27189000D01*
X78436000Y-26664000D01*
X78536000Y-26664000D01*
X78536000Y-27189000D01*
X79361000Y-27189000D01*
X79436000Y-27114000D01*
X79436000Y-26829326D01*
X79390328Y-26719063D01*
X79305936Y-26634672D01*
X79195673Y-26589000D01*
X78611000Y-26589000D01*
X78536000Y-26664000D01*
X78436000Y-26664000D01*
X78361000Y-26589000D01*
X77776327Y-26589000D01*
X77666064Y-26634672D01*
X77581672Y-26719063D01*
X77536000Y-26829326D01*
X56636000Y-26829326D01*
X56636000Y-21844000D01*
X69696523Y-21844000D01*
X69696523Y-23876000D01*
X69717442Y-23987173D01*
X69783145Y-24089279D01*
X69883397Y-24157778D01*
X70002400Y-24181877D01*
X71489650Y-24181877D01*
X71373641Y-24297683D01*
X71282104Y-24518129D01*
X71281896Y-24756824D01*
X71373048Y-24977429D01*
X71541683Y-25146359D01*
X71762129Y-25237896D01*
X72000824Y-25238104D01*
X72221429Y-25146952D01*
X72390359Y-24978317D01*
X72481896Y-24757871D01*
X72482104Y-24519176D01*
X72390952Y-24298571D01*
X72222317Y-24129641D01*
X72001871Y-24038104D01*
X71981940Y-24038087D01*
X72011378Y-23995003D01*
X72035477Y-23876000D01*
X72035477Y-22681818D01*
X72242400Y-22681818D01*
X72242400Y-23038182D01*
X72330974Y-23483472D01*
X72583211Y-23860971D01*
X72960710Y-24113208D01*
X73406000Y-24201782D01*
X73851290Y-24113208D01*
X74228789Y-23860971D01*
X74481026Y-23483472D01*
X74569600Y-23038182D01*
X74569600Y-22681818D01*
X74782400Y-22681818D01*
X74782400Y-23038182D01*
X74870974Y-23483472D01*
X75123211Y-23860971D01*
X75500710Y-24113208D01*
X75946000Y-24201782D01*
X76391290Y-24113208D01*
X76768789Y-23860971D01*
X77021026Y-23483472D01*
X77109600Y-23038182D01*
X77109600Y-22681818D01*
X77322400Y-22681818D01*
X77322400Y-23038182D01*
X77410974Y-23483472D01*
X77663211Y-23860971D01*
X78040710Y-24113208D01*
X78061000Y-24117244D01*
X78061000Y-24683123D01*
X77836000Y-24683123D01*
X77724827Y-24704042D01*
X77622721Y-24769745D01*
X77554222Y-24869997D01*
X77530123Y-24989000D01*
X77530123Y-25689000D01*
X77551042Y-25800173D01*
X77616745Y-25902279D01*
X77716997Y-25970778D01*
X77836000Y-25994877D01*
X79136000Y-25994877D01*
X79247173Y-25973958D01*
X79349279Y-25908255D01*
X79417778Y-25808003D01*
X79441877Y-25689000D01*
X79441877Y-25400000D01*
X144863604Y-25400000D01*
X144952178Y-25845290D01*
X145204415Y-26222789D01*
X145581914Y-26475026D01*
X146027204Y-26563600D01*
X146072796Y-26563600D01*
X146518086Y-26475026D01*
X146895585Y-26222789D01*
X147147822Y-25845290D01*
X147236396Y-25400000D01*
X147403604Y-25400000D01*
X147492178Y-25845290D01*
X147744415Y-26222789D01*
X148121914Y-26475026D01*
X148567204Y-26563600D01*
X148612796Y-26563600D01*
X149058086Y-26475026D01*
X149435585Y-26222789D01*
X149687822Y-25845290D01*
X149776396Y-25400000D01*
X149687822Y-24954710D01*
X149435585Y-24577211D01*
X149058086Y-24324974D01*
X148612796Y-24236400D01*
X148567204Y-24236400D01*
X148121914Y-24324974D01*
X147744415Y-24577211D01*
X147492178Y-24954710D01*
X147403604Y-25400000D01*
X147236396Y-25400000D01*
X147147822Y-24954710D01*
X146895585Y-24577211D01*
X146518086Y-24324974D01*
X146072796Y-24236400D01*
X146027204Y-24236400D01*
X145581914Y-24324974D01*
X145204415Y-24577211D01*
X144952178Y-24954710D01*
X144863604Y-25400000D01*
X79441877Y-25400000D01*
X79441877Y-24989000D01*
X79420958Y-24877827D01*
X79355255Y-24775721D01*
X79255003Y-24707222D01*
X79136000Y-24683123D01*
X78911000Y-24683123D01*
X78911000Y-24117244D01*
X78931290Y-24113208D01*
X79308789Y-23860971D01*
X79561026Y-23483472D01*
X79649600Y-23038182D01*
X79649600Y-22681818D01*
X79862400Y-22681818D01*
X79862400Y-23038182D01*
X79950974Y-23483472D01*
X80203211Y-23860971D01*
X80580710Y-24113208D01*
X81026000Y-24201782D01*
X81471290Y-24113208D01*
X81848789Y-23860971D01*
X82101026Y-23483472D01*
X82189600Y-23038182D01*
X82189600Y-22681818D01*
X82402400Y-22681818D01*
X82402400Y-23038182D01*
X82490974Y-23483472D01*
X82743211Y-23860971D01*
X83120710Y-24113208D01*
X83566000Y-24201782D01*
X84011290Y-24113208D01*
X84388789Y-23860971D01*
X84641026Y-23483472D01*
X84729600Y-23038182D01*
X84729600Y-22681818D01*
X84942400Y-22681818D01*
X84942400Y-23038182D01*
X85030974Y-23483472D01*
X85283211Y-23860971D01*
X85660710Y-24113208D01*
X86106000Y-24201782D01*
X86551290Y-24113208D01*
X86928789Y-23860971D01*
X87181026Y-23483472D01*
X87269600Y-23038182D01*
X87269600Y-22681818D01*
X87482400Y-22681818D01*
X87482400Y-23038182D01*
X87570974Y-23483472D01*
X87823211Y-23860971D01*
X88200710Y-24113208D01*
X88646000Y-24201782D01*
X89091290Y-24113208D01*
X89468789Y-23860971D01*
X89721026Y-23483472D01*
X89809600Y-23038182D01*
X89809600Y-22681818D01*
X90022400Y-22681818D01*
X90022400Y-23038182D01*
X90110974Y-23483472D01*
X90363211Y-23860971D01*
X90740710Y-24113208D01*
X91186000Y-24201782D01*
X91631290Y-24113208D01*
X92008789Y-23860971D01*
X92261026Y-23483472D01*
X92349600Y-23038182D01*
X92349600Y-22681818D01*
X92562400Y-22681818D01*
X92562400Y-23038182D01*
X92650974Y-23483472D01*
X92903211Y-23860971D01*
X93280710Y-24113208D01*
X93726000Y-24201782D01*
X94171290Y-24113208D01*
X94548789Y-23860971D01*
X94801026Y-23483472D01*
X94889600Y-23038182D01*
X94889600Y-22681818D01*
X94801026Y-22236528D01*
X94548789Y-21859029D01*
X94526297Y-21844000D01*
X96620523Y-21844000D01*
X96620523Y-23876000D01*
X96641442Y-23987173D01*
X96707145Y-24089279D01*
X96807397Y-24157778D01*
X96926400Y-24181877D01*
X98653600Y-24181877D01*
X98764773Y-24160958D01*
X98866879Y-24095255D01*
X98935378Y-23995003D01*
X98959477Y-23876000D01*
X98959477Y-22681818D01*
X99166400Y-22681818D01*
X99166400Y-23038182D01*
X99254974Y-23483472D01*
X99507211Y-23860971D01*
X99884710Y-24113208D01*
X100330000Y-24201782D01*
X100775290Y-24113208D01*
X101152789Y-23860971D01*
X101405026Y-23483472D01*
X101493600Y-23038182D01*
X101493600Y-22681818D01*
X101706400Y-22681818D01*
X101706400Y-23038182D01*
X101794974Y-23483472D01*
X102047211Y-23860971D01*
X102424710Y-24113208D01*
X102870000Y-24201782D01*
X103315290Y-24113208D01*
X103692789Y-23860971D01*
X103945026Y-23483472D01*
X104033600Y-23038182D01*
X104033600Y-22681818D01*
X104246400Y-22681818D01*
X104246400Y-23038182D01*
X104334974Y-23483472D01*
X104587211Y-23860971D01*
X104964710Y-24113208D01*
X105410000Y-24201782D01*
X105855290Y-24113208D01*
X106232789Y-23860971D01*
X106485026Y-23483472D01*
X106573600Y-23038182D01*
X106573600Y-22681818D01*
X106786400Y-22681818D01*
X106786400Y-23038182D01*
X106874974Y-23483472D01*
X107127211Y-23860971D01*
X107504710Y-24113208D01*
X107950000Y-24201782D01*
X108395290Y-24113208D01*
X108772789Y-23860971D01*
X109025026Y-23483472D01*
X109113600Y-23038182D01*
X109113600Y-22681818D01*
X109326400Y-22681818D01*
X109326400Y-23038182D01*
X109414974Y-23483472D01*
X109667211Y-23860971D01*
X110044710Y-24113208D01*
X110490000Y-24201782D01*
X110935290Y-24113208D01*
X111312789Y-23860971D01*
X111565026Y-23483472D01*
X111653600Y-23038182D01*
X111653600Y-22681818D01*
X111866400Y-22681818D01*
X111866400Y-23038182D01*
X111954974Y-23483472D01*
X112207211Y-23860971D01*
X112584710Y-24113208D01*
X113030000Y-24201782D01*
X113475290Y-24113208D01*
X113852789Y-23860971D01*
X114105026Y-23483472D01*
X114193600Y-23038182D01*
X114193600Y-22681818D01*
X114406400Y-22681818D01*
X114406400Y-23038182D01*
X114494974Y-23483472D01*
X114747211Y-23860971D01*
X115124710Y-24113208D01*
X115570000Y-24201782D01*
X116015290Y-24113208D01*
X116392789Y-23860971D01*
X116645026Y-23483472D01*
X116733600Y-23038182D01*
X116733600Y-22681818D01*
X116645026Y-22236528D01*
X116392789Y-21859029D01*
X116370297Y-21844000D01*
X119480523Y-21844000D01*
X119480523Y-23876000D01*
X119501442Y-23987173D01*
X119567145Y-24089279D01*
X119667397Y-24157778D01*
X119786400Y-24181877D01*
X121513600Y-24181877D01*
X121624773Y-24160958D01*
X121726879Y-24095255D01*
X121795378Y-23995003D01*
X121819477Y-23876000D01*
X121819477Y-22681818D01*
X122026400Y-22681818D01*
X122026400Y-23038182D01*
X122114974Y-23483472D01*
X122367211Y-23860971D01*
X122744710Y-24113208D01*
X123190000Y-24201782D01*
X123635290Y-24113208D01*
X124012789Y-23860971D01*
X124265026Y-23483472D01*
X124353600Y-23038182D01*
X124353600Y-22681818D01*
X124566400Y-22681818D01*
X124566400Y-23038182D01*
X124654974Y-23483472D01*
X124907211Y-23860971D01*
X125284710Y-24113208D01*
X125730000Y-24201782D01*
X126175290Y-24113208D01*
X126552789Y-23860971D01*
X126805026Y-23483472D01*
X126893600Y-23038182D01*
X126893600Y-22681818D01*
X127106400Y-22681818D01*
X127106400Y-23038182D01*
X127194974Y-23483472D01*
X127447211Y-23860971D01*
X127824710Y-24113208D01*
X128270000Y-24201782D01*
X128715290Y-24113208D01*
X129092789Y-23860971D01*
X129345026Y-23483472D01*
X129433600Y-23038182D01*
X129433600Y-22681818D01*
X129646400Y-22681818D01*
X129646400Y-23038182D01*
X129734974Y-23483472D01*
X129987211Y-23860971D01*
X130364710Y-24113208D01*
X130810000Y-24201782D01*
X131255290Y-24113208D01*
X131632789Y-23860971D01*
X131885026Y-23483472D01*
X131973600Y-23038182D01*
X131973600Y-22681818D01*
X132186400Y-22681818D01*
X132186400Y-23038182D01*
X132274974Y-23483472D01*
X132527211Y-23860971D01*
X132904710Y-24113208D01*
X133350000Y-24201782D01*
X133795290Y-24113208D01*
X134172789Y-23860971D01*
X134425026Y-23483472D01*
X134513600Y-23038182D01*
X134513600Y-22681818D01*
X134726400Y-22681818D01*
X134726400Y-23038182D01*
X134814974Y-23483472D01*
X135067211Y-23860971D01*
X135444710Y-24113208D01*
X135890000Y-24201782D01*
X136335290Y-24113208D01*
X136712789Y-23860971D01*
X136965026Y-23483472D01*
X137053600Y-23038182D01*
X137053600Y-22681818D01*
X137266400Y-22681818D01*
X137266400Y-23038182D01*
X137354974Y-23483472D01*
X137607211Y-23860971D01*
X137984710Y-24113208D01*
X138430000Y-24201782D01*
X138875290Y-24113208D01*
X139252789Y-23860971D01*
X139505026Y-23483472D01*
X139593600Y-23038182D01*
X139593600Y-22681818D01*
X139505026Y-22236528D01*
X139344578Y-21996400D01*
X144880523Y-21996400D01*
X144880523Y-23723600D01*
X144901442Y-23834773D01*
X144967145Y-23936879D01*
X145067397Y-24005378D01*
X145186400Y-24029477D01*
X146913600Y-24029477D01*
X147024773Y-24008558D01*
X147126879Y-23942855D01*
X147195378Y-23842603D01*
X147219477Y-23723600D01*
X147219477Y-22860000D01*
X147403604Y-22860000D01*
X147492178Y-23305290D01*
X147744415Y-23682789D01*
X148121914Y-23935026D01*
X148567204Y-24023600D01*
X148612796Y-24023600D01*
X149058086Y-23935026D01*
X149435585Y-23682789D01*
X149687822Y-23305290D01*
X149776396Y-22860000D01*
X149687822Y-22414710D01*
X149435585Y-22037211D01*
X149058086Y-21784974D01*
X148612796Y-21696400D01*
X148567204Y-21696400D01*
X148121914Y-21784974D01*
X147744415Y-22037211D01*
X147492178Y-22414710D01*
X147403604Y-22860000D01*
X147219477Y-22860000D01*
X147219477Y-21996400D01*
X147198558Y-21885227D01*
X147132855Y-21783121D01*
X147032603Y-21714622D01*
X146913600Y-21690523D01*
X145186400Y-21690523D01*
X145075227Y-21711442D01*
X144973121Y-21777145D01*
X144904622Y-21877397D01*
X144880523Y-21996400D01*
X139344578Y-21996400D01*
X139252789Y-21859029D01*
X138875290Y-21606792D01*
X138430000Y-21518218D01*
X137984710Y-21606792D01*
X137607211Y-21859029D01*
X137354974Y-22236528D01*
X137266400Y-22681818D01*
X137053600Y-22681818D01*
X136965026Y-22236528D01*
X136712789Y-21859029D01*
X136335290Y-21606792D01*
X135890000Y-21518218D01*
X135444710Y-21606792D01*
X135067211Y-21859029D01*
X134814974Y-22236528D01*
X134726400Y-22681818D01*
X134513600Y-22681818D01*
X134425026Y-22236528D01*
X134172789Y-21859029D01*
X133795290Y-21606792D01*
X133350000Y-21518218D01*
X132904710Y-21606792D01*
X132527211Y-21859029D01*
X132274974Y-22236528D01*
X132186400Y-22681818D01*
X131973600Y-22681818D01*
X131885026Y-22236528D01*
X131632789Y-21859029D01*
X131255290Y-21606792D01*
X130810000Y-21518218D01*
X130364710Y-21606792D01*
X129987211Y-21859029D01*
X129734974Y-22236528D01*
X129646400Y-22681818D01*
X129433600Y-22681818D01*
X129345026Y-22236528D01*
X129092789Y-21859029D01*
X128715290Y-21606792D01*
X128270000Y-21518218D01*
X127824710Y-21606792D01*
X127447211Y-21859029D01*
X127194974Y-22236528D01*
X127106400Y-22681818D01*
X126893600Y-22681818D01*
X126805026Y-22236528D01*
X126552789Y-21859029D01*
X126175290Y-21606792D01*
X125730000Y-21518218D01*
X125284710Y-21606792D01*
X124907211Y-21859029D01*
X124654974Y-22236528D01*
X124566400Y-22681818D01*
X124353600Y-22681818D01*
X124265026Y-22236528D01*
X124012789Y-21859029D01*
X123635290Y-21606792D01*
X123190000Y-21518218D01*
X122744710Y-21606792D01*
X122367211Y-21859029D01*
X122114974Y-22236528D01*
X122026400Y-22681818D01*
X121819477Y-22681818D01*
X121819477Y-21844000D01*
X121798558Y-21732827D01*
X121732855Y-21630721D01*
X121632603Y-21562222D01*
X121513600Y-21538123D01*
X119786400Y-21538123D01*
X119675227Y-21559042D01*
X119573121Y-21624745D01*
X119504622Y-21724997D01*
X119480523Y-21844000D01*
X116370297Y-21844000D01*
X116015290Y-21606792D01*
X115570000Y-21518218D01*
X115124710Y-21606792D01*
X114747211Y-21859029D01*
X114494974Y-22236528D01*
X114406400Y-22681818D01*
X114193600Y-22681818D01*
X114105026Y-22236528D01*
X113852789Y-21859029D01*
X113475290Y-21606792D01*
X113030000Y-21518218D01*
X112584710Y-21606792D01*
X112207211Y-21859029D01*
X111954974Y-22236528D01*
X111866400Y-22681818D01*
X111653600Y-22681818D01*
X111565026Y-22236528D01*
X111312789Y-21859029D01*
X110935290Y-21606792D01*
X110490000Y-21518218D01*
X110044710Y-21606792D01*
X109667211Y-21859029D01*
X109414974Y-22236528D01*
X109326400Y-22681818D01*
X109113600Y-22681818D01*
X109025026Y-22236528D01*
X108772789Y-21859029D01*
X108395290Y-21606792D01*
X107950000Y-21518218D01*
X107504710Y-21606792D01*
X107127211Y-21859029D01*
X106874974Y-22236528D01*
X106786400Y-22681818D01*
X106573600Y-22681818D01*
X106485026Y-22236528D01*
X106232789Y-21859029D01*
X105855290Y-21606792D01*
X105410000Y-21518218D01*
X104964710Y-21606792D01*
X104587211Y-21859029D01*
X104334974Y-22236528D01*
X104246400Y-22681818D01*
X104033600Y-22681818D01*
X103945026Y-22236528D01*
X103692789Y-21859029D01*
X103315290Y-21606792D01*
X102870000Y-21518218D01*
X102424710Y-21606792D01*
X102047211Y-21859029D01*
X101794974Y-22236528D01*
X101706400Y-22681818D01*
X101493600Y-22681818D01*
X101405026Y-22236528D01*
X101152789Y-21859029D01*
X100775290Y-21606792D01*
X100330000Y-21518218D01*
X99884710Y-21606792D01*
X99507211Y-21859029D01*
X99254974Y-22236528D01*
X99166400Y-22681818D01*
X98959477Y-22681818D01*
X98959477Y-21844000D01*
X98938558Y-21732827D01*
X98872855Y-21630721D01*
X98772603Y-21562222D01*
X98653600Y-21538123D01*
X96926400Y-21538123D01*
X96815227Y-21559042D01*
X96713121Y-21624745D01*
X96644622Y-21724997D01*
X96620523Y-21844000D01*
X94526297Y-21844000D01*
X94171290Y-21606792D01*
X93726000Y-21518218D01*
X93280710Y-21606792D01*
X92903211Y-21859029D01*
X92650974Y-22236528D01*
X92562400Y-22681818D01*
X92349600Y-22681818D01*
X92261026Y-22236528D01*
X92008789Y-21859029D01*
X91631290Y-21606792D01*
X91186000Y-21518218D01*
X90740710Y-21606792D01*
X90363211Y-21859029D01*
X90110974Y-22236528D01*
X90022400Y-22681818D01*
X89809600Y-22681818D01*
X89721026Y-22236528D01*
X89468789Y-21859029D01*
X89091290Y-21606792D01*
X88646000Y-21518218D01*
X88200710Y-21606792D01*
X87823211Y-21859029D01*
X87570974Y-22236528D01*
X87482400Y-22681818D01*
X87269600Y-22681818D01*
X87181026Y-22236528D01*
X86928789Y-21859029D01*
X86551290Y-21606792D01*
X86106000Y-21518218D01*
X85660710Y-21606792D01*
X85283211Y-21859029D01*
X85030974Y-22236528D01*
X84942400Y-22681818D01*
X84729600Y-22681818D01*
X84641026Y-22236528D01*
X84388789Y-21859029D01*
X84011290Y-21606792D01*
X83566000Y-21518218D01*
X83120710Y-21606792D01*
X82743211Y-21859029D01*
X82490974Y-22236528D01*
X82402400Y-22681818D01*
X82189600Y-22681818D01*
X82101026Y-22236528D01*
X81848789Y-21859029D01*
X81471290Y-21606792D01*
X81026000Y-21518218D01*
X80580710Y-21606792D01*
X80203211Y-21859029D01*
X79950974Y-22236528D01*
X79862400Y-22681818D01*
X79649600Y-22681818D01*
X79561026Y-22236528D01*
X79308789Y-21859029D01*
X78931290Y-21606792D01*
X78486000Y-21518218D01*
X78040710Y-21606792D01*
X77663211Y-21859029D01*
X77410974Y-22236528D01*
X77322400Y-22681818D01*
X77109600Y-22681818D01*
X77021026Y-22236528D01*
X76768789Y-21859029D01*
X76391290Y-21606792D01*
X75946000Y-21518218D01*
X75500710Y-21606792D01*
X75123211Y-21859029D01*
X74870974Y-22236528D01*
X74782400Y-22681818D01*
X74569600Y-22681818D01*
X74481026Y-22236528D01*
X74228789Y-21859029D01*
X73851290Y-21606792D01*
X73406000Y-21518218D01*
X72960710Y-21606792D01*
X72583211Y-21859029D01*
X72330974Y-22236528D01*
X72242400Y-22681818D01*
X72035477Y-22681818D01*
X72035477Y-21844000D01*
X72014558Y-21732827D01*
X71948855Y-21630721D01*
X71848603Y-21562222D01*
X71729600Y-21538123D01*
X70002400Y-21538123D01*
X69891227Y-21559042D01*
X69789121Y-21624745D01*
X69720622Y-21724997D01*
X69696523Y-21844000D01*
X56636000Y-21844000D01*
X56636000Y-20695000D01*
X150755000Y-20695000D01*
X150755000Y-73285000D01*
M02*
