M48
;DRILL file {KiCad 4.0.5+dfsg1-4} date Sun Mar 19 16:59:59 2017
;FORMAT={-:-/ absolute / metric / decimal}
FMAT,2
METRIC,TZ
T1C0.400
T2C1.016
%
G90
G05
M71
T1
X58.928Y-33.147
X58.928Y-35.687
X59.055Y-41.021
X59.055Y-48.26
X59.182Y-30.607
X59.69Y-27.94
X60.579Y-57.912
X60.579Y-62.611
X60.706Y-68.199
X60.833Y-52.324
X62.Y-40.5
X63.754Y-28.067
X65.532Y-46.101
X66.421Y-42.545
X67.183Y-61.849
X68.072Y-48.133
X68.072Y-65.151
X68.453Y-49.911
X68.453Y-51.943
X69.596Y-27.559
X69.977Y-29.337
X70.358Y-55.499
X71.882Y-24.638
X73.279Y-39.497
X75.311Y-61.849
X76.2Y-65.151
X76.581Y-49.911
X76.581Y-51.943
X77.343Y-57.785
X77.343Y-59.817
X78.486Y-55.499
X81.661Y-28.448
X83.566Y-61.849
X83.947Y-38.354
X84.455Y-65.151
X84.836Y-49.911
X84.836Y-51.943
X85.09Y-41.402
X85.471Y-57.785
X85.471Y-59.817
X86.741Y-55.499
X86.995Y-28.448
X89.027Y-35.052
X91.694Y-61.849
X91.821Y-43.307
X92.583Y-65.151
X92.964Y-51.943
X93.091Y-49.911
X93.726Y-57.785
X93.726Y-59.817
X93.853Y-30.607
X94.869Y-55.499
X95.123Y-45.72
X99.187Y-30.607
X99.822Y-61.849
X100.711Y-65.151
X101.092Y-49.911
X101.092Y-51.943
X101.854Y-57.785
X101.854Y-59.817
X102.997Y-55.499
X104.648Y-30.607
X105.791Y-38.354
X106.934Y-41.402
X107.95Y-61.849
X108.839Y-65.151
X109.22Y-49.911
X109.22Y-51.943
X109.982Y-30.607
X109.982Y-57.785
X109.982Y-59.817
X111.125Y-55.499
X113.792Y-43.307
X114.046Y-28.448
X116.078Y-61.849
X116.967Y-45.72
X116.967Y-65.151
X117.348Y-49.911
X117.348Y-51.943
X118.11Y-57.785
X118.11Y-59.817
X119.253Y-55.499
X119.38Y-28.448
X124.206Y-61.849
X125.095Y-65.151
X125.476Y-49.911
X125.476Y-51.943
X126.238Y-57.785
X126.238Y-59.817
X127.381Y-55.499
X127.635Y-28.067
X128.143Y-41.656
X130.937Y-38.227
X132.461Y-41.656
X134.366Y-57.785
X134.366Y-59.817
X137.287Y-39.497
X140.843Y-31.877
X140.843Y-48.26
X141.478Y-34.417
X141.478Y-45.72
X142.113Y-36.957
X142.113Y-43.18
T2
X70.866Y-22.86
X73.406Y-22.86
X75.946Y-22.86
X78.486Y-22.86
X80.01Y-71.12
X81.026Y-22.86
X82.55Y-71.12
X83.566Y-22.86
X85.09Y-71.12
X86.106Y-22.86
X87.63Y-71.12
X88.646Y-22.86
X90.17Y-71.12
X91.186Y-22.86
X92.71Y-71.12
X93.726Y-22.86
X95.25Y-71.12
X97.79Y-22.86
X97.79Y-71.12
X100.33Y-22.86
X102.87Y-22.86
X102.87Y-71.12
X105.41Y-22.86
X105.41Y-71.12
X107.95Y-22.86
X107.95Y-71.12
X110.49Y-22.86
X110.49Y-71.12
X113.03Y-22.86
X113.03Y-71.12
X115.57Y-22.86
X115.57Y-71.12
X118.11Y-71.12
X120.65Y-22.86
X120.65Y-71.12
X123.19Y-22.86
X125.73Y-22.86
X125.73Y-71.12
X128.27Y-22.86
X128.27Y-71.12
X130.81Y-22.86
X130.81Y-71.12
X133.35Y-22.86
X133.35Y-71.12
X135.89Y-22.86
X135.89Y-71.12
X138.43Y-22.86
X138.43Y-71.12
X140.97Y-71.12
X143.51Y-71.12
X146.05Y-22.86
X146.05Y-25.4
X146.05Y-27.94
X146.05Y-30.48
X146.05Y-33.02
X146.05Y-35.56
X146.05Y-38.1
X146.05Y-40.64
X146.05Y-43.18
X146.05Y-45.72
X146.05Y-48.26
X146.05Y-50.8
X146.05Y-53.34
X146.05Y-55.88
X146.05Y-58.42
X146.05Y-60.96
X146.05Y-63.5
X146.05Y-66.04
X148.59Y-22.86
X148.59Y-25.4
X148.59Y-27.94
X148.59Y-30.48
X148.59Y-33.02
X148.59Y-35.56
X148.59Y-38.1
X148.59Y-40.64
X148.59Y-43.18
X148.59Y-45.72
X148.59Y-48.26
X148.59Y-50.8
X148.59Y-53.34
X148.59Y-55.88
X148.59Y-58.42
X148.59Y-60.96
X148.59Y-63.5
X148.59Y-66.04
T0
M30
